<?xml version="1.0" encoding="UTF-8" standalone="no"?>
<!-- Created with Inkscape (http://www.inkscape.org/) -->

<svg
   xmlns:dc="http://purl.org/dc/elements/1.1/"
   xmlns:cc="http://creativecommons.org/ns#"
   xmlns:rdf="http://www.w3.org/1999/02/22-rdf-syntax-ns#"
   xmlns:svg="http://www.w3.org/2000/svg"
   xmlns="http://www.w3.org/2000/svg"
   xmlns:sodipodi="http://sodipodi.sourceforge.net/DTD/sodipodi-0.dtd"
   xmlns:inkscape="http://www.inkscape.org/namespaces/inkscape"
   width="512"
   height="512"
   viewBox="0 0 512 512"
   version="1.1"
   id="svg8"
   inkscape:version="0.92.4 (5da689c313, 2019-01-14)"
   sodipodi:docname="U+7E93.svg">
  <defs
     id="defs2" />
  <sodipodi:namedview
     id="base"
     pagecolor="#ffffff"
     bordercolor="#666666"
     borderopacity="1.0"
     inkscape:pageopacity="0.0"
     inkscape:pageshadow="2"
     inkscape:zoom="0.73"
     inkscape:cx="285.89667"
     inkscape:cy="264.13279"
     inkscape:document-units="px"
     inkscape:current-layer="svg8"
     showgrid="false"
     units="px"
     inkscape:window-width="1280"
     inkscape:window-height="738"
     inkscape:window-x="-8"
     inkscape:window-y="-8"
     inkscape:window-maximized="1">
    <inkscape:grid
       type="xygrid"
       id="grid3724" />
  </sodipodi:namedview>
  <metadata
     id="metadata5">
    <g
       inkscape:label="圖層 1"
       inkscape:groupmode="layer"
       id="layer1"
       transform="translate(0,-161.53331)" />
    <rdf:RDF>
      <cc:Work
         rdf:about="">
        <dc:format>image/svg+xml</dc:format>
        <dc:type
           rdf:resource="http://purl.org/dc/dcmitype/StillImage" />
        <dc:title></dc:title>
      </cc:Work>
    </rdf:RDF>
  </metadata>
  <path
     style="fill:#000000;stroke:none;stroke-width:1px;stroke-linecap:butt;stroke-linejoin:miter;stroke-opacity:1;fill-opacity:1"
     d="M 42.883399,282.32624 C 48.572503,283.14566 54.267757,283.95657 59.909199,285.05725 63.686738,285.79427 67.319248,287.41674 71.161049,287.64817 77.051146,288.003 82.90778,286.49891 88.764045,285.77551 105.65569,283.68895 139.32584,278.65941 139.32584,278.65941 139.32584,278.65941 166.95425,271.06762 180.89888,267.79798 196.4175,264.15928 212.13229,261.41209 227.71536,258.06016 243.46909,254.67152 274.90637,247.57326 274.90637,247.57326 L 319.47566,240.83169 C 319.47566,240.83169 353.37621,236.64457 370.41199,235.58825 382.12748,234.86182 393.88105,234.68209 405.61798,234.83918 418.61558,235.01314 444.56929,236.71184 444.56929,236.71184 L 458.05243,237.08637 C 458.05243,237.08637 467.41573,240.45716 473.03371,246.8242 478.65169,253.19124 480.51749,257.65791 483.89513,263.3036 486.59094,267.80962 490.38148,272.00734 491.38577,277.16128 491.60199,278.27092 491.19233,279.41616 491.01124,280.53207 490.72492,282.29648 491.40718,284.83417 489.88764,285.77551 485.17712,288.69364 478.97447,283.59234 473.78277,281.65566 465.93615,278.72861 458.74604,274.27395 451.31086,270.41971 444.51717,266.89801 438.21803,262.33186 431.08614,259.55828 424.00282,256.80359 416.46971,255.28087 408.98876,253.94031 400.83276,252.47879 392.55538,251.37545 384.26966,251.31858 366.59242,251.19725 331.46067,256.1875 331.46067,256.1875 L 285.76779,262.18001 267.41573,265.55079 204.11985,280.53207 146.06742,297.386 109.73783,309.74555 C 109.73783,309.74555 105.75328,312.39821 103.63712,313.50695 97.03229,316.96749 90.52685,321.41985 83.146068,322.47963 78.287135,323.1773 73.262219,321.94497 68.539326,320.60697 63.546465,319.19248 58.694574,317.03703 54.353809,314.19323 50.663142,311.77534 47.46749,308.6126 44.537498,305.31375 40.251229,300.48789 35.459135,295.28946 33.333334,289.52083 33.333334,289.52083 29.265861,283.59354 30.914275,280.79732 32.636624,277.87568 38.902355,281.75284 42.883399,282.32624 Z"
     id="path3726"
     inkscape:connector-curvature="0"
     sodipodi:nodetypes="aaaacaaccaaccsaaaaaaaaaccccccaaaaasca" />
  <path
     style="fill:#000000;stroke:none;stroke-width:1px;stroke-linecap:butt;stroke-linejoin:miter;stroke-opacity:1;fill-opacity:1"
     d="M 197.00375,192.51708 C 196.62942,197.77242 209.73783,201.88038 209.73783,201.88038 212.09193,204.6982 220.22472,205.25117 220.22472,205.25117 220.22472,205.25117 226.02235,206.28633 228.83896,207.12383 231.52811,207.92344 234.88875,207.98107 236.70412,210.12008 241.56789,215.85097 241.1985,232.21746 241.1985,232.21746 L 243.82022,253.94031 C 243.82022,253.94031 248.66664,270.49713 249.4382,279.03394 250.00053,285.25577 246.90623,291.77316 248.68914,297.76053 251.57603,307.45527 259.82283,314.70337 266.29214,322.47963 269.73654,326.61988 273.22722,330.8485 277.52809,334.09012 279.22294,335.36755 281.1445,337.79212 283.14607,337.08637 284.85034,336.48545 284.65643,333.79827 285.27152,332.09906 287.83092,325.02876 291.24932,316.62957 291.7603,310.49461 292.04314,307.09879 292.4328,303.00903 290.26217,300.38225 288.57705,298.34301 284.96639,299.23725 282.77154,297.76053 278.07482,294.60051 273.85182,290.19171 271.53558,285.02645 268.5513,278.37144 270.00365,270.51522 268.91386,263.3036 267.6625,255.02283 265.41626,246.89975 264.41948,238.5845 263.91339,234.36269 264.97172,229.89843 263.67041,225.85042 261.95318,220.50862 258.15026,216.0287 254.68165,211.61821 251.24322,207.24609 243.07116,199.63319 243.07116,199.63319 243.07116,199.63319 231.62636,193.19865 225.46816,191.01896 219.67263,188.96764 213.58398,186.08223 207.49064,186.89911 203.56017,187.42603 197.28549,188.56146 197.00375,192.51708 Z"
     id="path3728"
     inkscape:connector-curvature="0"
     sodipodi:nodetypes="ascaaccaaaaaasaaaaaaacaaa" />
  <path
     style="fill:#000000;fill-opacity:1;stroke:none;stroke-width:1px;stroke-linecap:butt;stroke-linejoin:miter;stroke-opacity:1"
     d="M 124.34457,237.4609 141.1985,238.5845 160.67416,244.57701 C 160.67416,244.57701 167.30194,249.48518 168.16479,253.19124 169.71664,259.85665 163.63695,266.23526 162.92135,273.04143 162.38549,278.13802 163.0065,283.31573 163.67041,288.39723 164.59671,295.48695 165.8826,302.59505 168.16479,309.37102 171.73008,319.95661 177.05152,329.90036 182.397,339.7081 187.76652,349.55996 197.8544,365.25826 204.05388,374.7351 207.21364,379.56527 206.46374,381.39556 209.3633,382.77926 219.76504,387.74309 232.36685,381.05729 243.77742,379.43415 259.88933,377.14226 275.62858,372.56771 291.7603,370.41971 307.39618,368.33773 323.21225,367.96209 338.93418,366.68295 352.42541,365.58529 365.91846,362.10116 379.40075,363.3036 392.40116,364.46306 405.32439,368.06356 417.22846,373.41596 424.87092,376.85222 432.50884,381.12546 438.20225,387.27364 441.69556,391.04599 445.69288,400.75678 445.69288,400.75678 445.69288,400.75678 444.54816,407.46705 441.94757,408.99649 437.95282,411.34585 432.59131,408.97505 428.08989,407.87289 413.74351,404.36022 387.26592,390.64443 387.26592,390.64443 387.26592,390.64443 359.00481,383.91072 344.57785,383.14523 326.19784,382.17 307.6749,384.06358 289.48743,386.89054 278.05862,388.66697 266.91263,391.9907 255.78812,395.15593 245.6942,398.02792 236.04684,400.21039 225.8427,404.87663 220.04235,407.52907 213.54909,414.14299 207.11611,418.35978 202.62156,421.30594 198.58702,427.29736 193.25843,426.59948 185.64277,425.60206 177.15356,410.12008 177.15356,410.12008 177.15356,410.12008 167.57126,397.17255 166.66667,389.52083 166.28984,386.3333 166.34672,382.08422 168.91386,380.15753 171.01309,378.58202 174.41733,381.67722 176.77903,380.53207 178.71171,379.59494 180.52434,375.28862 180.52434,375.28862 L 180.14981,368.17252 C 180.14981,368.17252 168.57807,348.24453 163.67041,337.83544 160.39796,330.89462 157.33984,323.81302 155.05618,316.48712 153.19034,310.50159 150.93633,298.13506 150.93633,298.13506 L 146.06742,283.90285 141.57303,270.04517 130.71161,265.92532 C 130.71161,265.92532 122.33707,260.18556 120.22472,255.81296 118.53338,252.31185 118.01805,247.93683 119.10112,244.20248 119.89412,241.46827 124.34457,237.4609 124.34457,237.4609 Z"
     id="path3730"
     inkscape:connector-curvature="0"
     sodipodi:nodetypes="cccaaaassaaaaaaacaacaaasaacaaaccaaccccaac" />
</svg>
