<?xml version="1.0" encoding="UTF-8" standalone="no"?>
<!-- Created with Inkscape (http://www.inkscape.org/) -->

<svg
   xmlns:dc="http://purl.org/dc/elements/1.1/"
   xmlns:cc="http://creativecommons.org/ns#"
   xmlns:rdf="http://www.w3.org/1999/02/22-rdf-syntax-ns#"
   xmlns:svg="http://www.w3.org/2000/svg"
   xmlns="http://www.w3.org/2000/svg"
   xmlns:sodipodi="http://sodipodi.sourceforge.net/DTD/sodipodi-0.dtd"
   xmlns:inkscape="http://www.inkscape.org/namespaces/inkscape"
   width="512"
   height="512"
   viewBox="0 0 512 512"
   version="1.1"
   id="svg8"
   sodipodi:docname="U+4F88.svg"
   inkscape:version="0.92.4 (5da689c313, 2019-01-14)">
  <defs
     id="defs2" />
  <sodipodi:namedview
     id="base"
     pagecolor="#ffffff"
     bordercolor="#666666"
     borderopacity="1.0"
     inkscape:pageopacity="0.0"
     inkscape:pageshadow="2"
     inkscape:zoom="1.23"
     inkscape:cx="214.69685"
     inkscape:cy="241.79049"
     inkscape:document-units="px"
     inkscape:current-layer="svg8"
     showgrid="false"
     units="px"
     inkscape:window-width="1920"
     inkscape:window-height="986"
     inkscape:window-x="-11"
     inkscape:window-y="-11"
     inkscape:window-maximized="1" />
  <metadata
     id="metadata5">
    <rdf:RDF>
      <cc:Work
         rdf:about="">
        <dc:format>image/svg+xml</dc:format>
        <dc:type
           rdf:resource="http://purl.org/dc/dcmitype/StillImage" />
        <dc:title></dc:title>
      </cc:Work>
    </rdf:RDF>
  </metadata>
  <g
     inkscape:label="圖層 1"
     inkscape:groupmode="layer"
     id="layer1"
     transform="translate(0,-161.53331)" />
  <path
     style="fill:#000000;fill-opacity:1;stroke:none;stroke-width:1px;stroke-linecap:butt;stroke-linejoin:miter;stroke-opacity:1"
     d="M 161.12097,70.105208 C 164.57286,78.141755 180.69497,85.192067 175.37565,92.135154 149.41667,126.01834 99.350735,180.25494 99.350735,180.25494 99.350735,180.25494 56.307645,226.33039 32.396979,246.77673 26.290298,251.99864 15.987169,253.58904 12.958792,261.0314 12.298583,262.65389 8.2072346,267.07884 13.822711,266.21492 19.438187,265.351 44.923811,252.39221 44.923811,252.39221 L 100.21465,210.06016 152.48178,153.90539 187.03856,112.86922 C 187.03856,112.86922 190.70636,107.76696 193.51795,107.25374 196.38607,106.7302 199.06147,111.46269 201.72519,110.27746 205.97576,108.38615 206.90871,97.31867 206.90871,97.31867 206.90871,97.31867 197.27709,78.536189 189.19836,72.265007 186.42986,70.115935 182.65,69.764725 179.37582,68.514584 174.73074,66.741007 170.15445,61.612179 165.44057,63.193853 162.86496,64.058062 161.12097,70.105208 161.12097,70.105208 Z"
     id="path21"
     inkscape:connector-curvature="0"
     sodipodi:nodetypes="sscaasccccaacaaas" />
  <path
     style="fill:#000000;fill-opacity:1;stroke:none;stroke-width:1px;stroke-linecap:butt;stroke-linejoin:miter;stroke-opacity:1"
     d="M 151.00698,184.64864 C 150.55768,189.44961 155.5055,198.39724 155.5055,198.39724 154.82703,198.96263 148.00729,299.87968 140.38691,344.83159 136.62704,367.0107 131.13613,404.08684 128.724,409.62555 128.19666,410.83643 127.12628,407.52008 126.39281,406.42175 125.53356,405.13508 124.53396,401.01943 123.97244,402.46115 120.25531,412.00493 123.10852,425.1761 123.10852,425.1761 125.99841,434.62471 127.6279,443.69766 132.61163,453.25348 133.92485,455.77146 139.95495,448.93388 139.95495,448.93388 L 152.04982,387.5956 173.21585,220.42719 C 173.21585,220.42719 175.82459,206.20672 174.51173,199.26116 173.54078,194.12442 172.48965,187.5506 167.90581,185.0372 163.66344,182.71104 160.15457,175.73603 155.75854,176.00945 152.47832,176.21347 151.31321,181.37639 151.00698,184.64864 Z"
     id="path23"
     inkscape:connector-curvature="0"
     sodipodi:nodetypes="acssassscccassa" />
  <path
     style="fill:#000000;fill-opacity:1;stroke:none;stroke-width:1px;stroke-linecap:butt;stroke-linejoin:miter;stroke-opacity:1"
     d="M 316.59612,62.306593 C 316.59612,62.306593 324.3472,72.288958 324.55352,78.214369 325.04078,92.208333 316.64792,105.6702 308.41924,116.99969 297.83148,131.57723 267.38307,152.17755 267.38307,152.17755 267.38307,152.17755 260.90367,156.92911 257.44799,151.31364 253.99231,145.69816 247.65893,164.38527 247.51292,172.0477 247.42556,176.63214 252.98017,184.67035 252.98017,184.67035 V 184.67035 C 252.98017,184.67035 259.04102,186.45789 261.92369,185.63294 264.21927,184.976 267.56199,181.21467 267.56199,181.21467 267.56199,181.21467 316.70782,137.85682 334.33682,110.70942 338.67335,104.03148 343.07619,96.600319 343.49904,88.649122 343.80148,82.962227 338.65642,72.265007 338.65642,72.265007 L 322.67391,49.371142 C 322.67391,49.371142 318.78627,44.187625 317.49039,49.803101 316.19451,55.418578 316.59612,62.306593 316.59612,62.306593 Z"
     id="path25"
     inkscape:connector-curvature="0"
     sodipodi:nodetypes="caacsaaaacaaccsc" />
  <path
     style="fill:#000000;fill-opacity:1;stroke:none;stroke-width:1px;stroke-linecap:butt;stroke-linejoin:miter;stroke-opacity:1"
     d="M 355.07089,96.022791 C 366.99473,91.184696 388.36744,88.263116 403.88234,81.336161 410.196,78.517295 414.68836,70.909393 421.59269,70.537168 424.29403,70.391534 427.8817,71.501482 428.936,73.992846 433.08847,83.805393 418.56897,104.23002 418.56897,104.23002 418.56897,104.23002 369.64408,165.99294 342.97602,194.94157 327.10928,212.16518 310.64806,227.24921 292.86869,244.18497 291.09325,245.87616 287.17181,241.88407 287.25321,239.43342 287.54152,230.75362 290.05646,219.69113 296.32437,212.65192 297.31206,211.54269 299.0089,211.3803 300.35117,210.74449 304.48039,208.78854 312.73884,204.87664 312.73884,204.87664 L 354.20697,162.97655 C 354.20697,162.97655 379.31744,133.5144 388.76375,116.75686 391.96743,111.0736 402.48153,100.00351 396.10706,98.61455 385.45607,96.293768 375.19571,103.79701 365.00596,101.63827 361.28448,100.84986 351.54592,97.453046 355.07089,96.022791 Z"
     id="path27"
     inkscape:connector-curvature="0"
     sodipodi:nodetypes="saaacassaaccasas" />
  <path
     style="fill:#000000;stroke:none;stroke-width:1px;stroke-linecap:butt;stroke-linejoin:miter;stroke-opacity:1;fill-opacity:1"
     d="M 298.35766,174.1244 C 292.86538,180.78753 307.97972,189.35606 307.19734,198.4744 306.73424,203.8717 309.40194,212.14075 314.77211,212.85254 323.43362,214.00059 339.45234,200.48404 332.60898,193.64569 328.08876,186.12345 319.23736,179.84846 310.66214,176.06186 306.86393,174.38467 300.99856,170.9205 298.35766,174.1244 Z"
     id="path29"
     inkscape:connector-curvature="0"
     sodipodi:nodetypes="csacac" />
  <path
     style="fill:#000000;fill-opacity:1;stroke:none;stroke-width:1px;stroke-linecap:butt;stroke-linejoin:miter;stroke-opacity:1"
     d="M 372.78124,207.4684 C 372.78124,207.4684 349.14194,244.25728 333.32114,259.02336 316.36567,274.84846 296.79004,287.21989 275.28677,297.40707 275.28677,297.40707 266.47547,304.17024 261.76759,302.9315 258.39677,302.04457 258.72155,294.12334 255.28819,294.72426 244.0755,296.68676 244.4892,327.12124 244.4892,327.12124 244.4892,327.12124 247.94488,345.26355 260.03975,334.89652 272.13462,324.52948 311.83928,295.29062 336.49662,273.9902 348.13704,263.93454 360.74166,253.28111 370.18948,242.45714 377.42338,234.16955 377.83352,221.47831 378.39671,210.49212 378.54579,207.58399 379.91979,202.58294 377.10083,201.85292 374.81469,201.26088 372.78124,207.4684 372.78124,207.4684 Z"
     id="path31"
     inkscape:connector-curvature="0"
     sodipodi:nodetypes="casaacsasaac" />
  <path
     style="fill:#000000;fill-opacity:1;stroke:none;stroke-width:1px;stroke-linecap:butt;stroke-linejoin:miter;stroke-opacity:1"
     d="M 379.69259,240.7293 C 396.01215,236.43685 412.91462,234.70278 429.79992,228.63442 433.25455,227.39287 433.56911,221.26478 437.14323,220.42719 442.4278,219.18876 448.37733,222.68371 452.26183,226.47463 454.61619,228.77227 458.35241,233.10259 456.14946,235.54578 443.48265,249.59398 420.29681,275.71803 420.29681,275.71803 420.29681,275.71803 412.73398,287.07886 408.98878,291.52974 395.00063,308.15359 378.9507,324.59129 363.19502,340.94395 331.68567,373.64716 263.92739,431.65549 263.92739,431.65549 L 178.64283,495.34206 158.374,505.53288 C 158.374,505.53288 153.90418,504.8139 155.20006,502.22214 156.49594,499.63038 280.77382,397.53067 280.77382,397.53067 L 352.20909,337.02311 355.01849,334.64348 C 371.61706,317.16228 383.67616,302.35614 397.40294,287.81291 397.40294,287.81291 419.52673,261.29389 428.07208,245.04889 429.74924,241.86056 420.69323,244.34906 417.27309,245.48085 415.46389,246.07955 414.12565,247.63033 412.55192,248.70506 408.2222,251.66195 399.56274,257.57573 399.56274,257.57573 399.56274,257.57573 389.23802,260.23497 384.87611,258.00769 380.99922,256.02807 378.13037,251.52054 377.53279,247.20869 377.22026,244.95362 377.49085,241.30841 379.69259,240.7293 Z"
     id="path33"
     inkscape:connector-curvature="0"
     sodipodi:nodetypes="ssaascsscccsccccsaacaas" />
  <path
     style="fill:#000000;stroke:none;stroke-width:1px;stroke-linecap:butt;stroke-linejoin:miter;stroke-opacity:1;fill-opacity:1"
     d="M 301.48617,304.60693 C 300.03514,307.65813 307.22637,308.60839 308.8512,311.57069 314.35124,321.59808 306.89655,337.53917 315.33059,345.26355 319.49345,349.07614 327.82327,350.58446 332.17702,346.99139 337.19407,342.85092 335.50874,333.85731 333.90486,327.5532 331.88325,319.60719 320.28278,307.07217 320.28278,307.07217 318.35413,304.17241 304.20007,298.90018 301.48617,304.60693 Z"
     id="path35"
     inkscape:connector-curvature="0"
     sodipodi:nodetypes="aaaaasa" />
</svg>
