<?xml version="1.0" encoding="UTF-8" standalone="no"?>
<!-- Created with Inkscape (http://www.inkscape.org/) -->

<svg
   xmlns:dc="http://purl.org/dc/elements/1.1/"
   xmlns:cc="http://creativecommons.org/ns#"
   xmlns:rdf="http://www.w3.org/1999/02/22-rdf-syntax-ns#"
   xmlns:svg="http://www.w3.org/2000/svg"
   xmlns="http://www.w3.org/2000/svg"
   xmlns:sodipodi="http://sodipodi.sourceforge.net/DTD/sodipodi-0.dtd"
   xmlns:inkscape="http://www.inkscape.org/namespaces/inkscape"
   width="512"
   height="512"
   viewBox="0 0 512 512"
   version="1.1"
   id="svg8"
   inkscape:version="0.92.4 (5da689c313, 2019-01-14)"
   sodipodi:docname="U+529F.svg">
  <defs
     id="defs2" />
  <sodipodi:namedview
     id="base"
     pagecolor="#ffffff"
     bordercolor="#666666"
     borderopacity="1.0"
     inkscape:pageopacity="0.0"
     inkscape:pageshadow="2"
     inkscape:zoom="1.63"
     inkscape:cx="300.30675"
     inkscape:cy="261.4847"
     inkscape:document-units="px"
     inkscape:current-layer="layer1"
     showgrid="false"
     units="px"
     inkscape:window-width="1920"
     inkscape:window-height="1017"
     inkscape:window-x="-8"
     inkscape:window-y="-8"
     inkscape:window-maximized="1" />
  <metadata
     id="metadata5">
    <rdf:RDF>
      <cc:Work
         rdf:about="">
        <dc:format>image/svg+xml</dc:format>
        <dc:type
           rdf:resource="http://purl.org/dc/dcmitype/StillImage" />
        <dc:title></dc:title>
      </cc:Work>
    </rdf:RDF>
  </metadata>
  <g
     inkscape:label="圖層 1"
     inkscape:groupmode="layer"
     id="layer1"
     transform="translate(0,-161.53331)">
    <path
       style="fill:#000000;stroke:none;stroke-width:1px;stroke-linecap:butt;stroke-linejoin:miter;stroke-opacity:1;fill-opacity:1"
       d="M 44.360902,360.75136 C 53.582976,376.40947 56.169323,386.71526 72.180451,392.3303 90.14235,398.62947 96.963617,388.80152 109.02256,385.56339 123.41599,381.6984 137.35894,376.22905 151.12782,370.52579 160.86389,366.49298 179.0046,367.50728 179.69925,356.99196 180.03377,351.92819 171.68985,350.44647 166.91729,348.72128 160.98252,346.57597 154.36236,345.53795 148.1203,346.46564 141.34931,347.47194 129.32331,354.73632 129.32331,354.73632 129.32331,354.73632 111.95204,364.78186 102.25564,366.01451 95.198035,366.91171 90.630653,367.23859 83.5748,365.57934 80.084978,364.75867 75.986405,363.91555 70.676692,361.50323 63.515292,358.24964 56.288906,349.86082 48.872181,352.48068 45.911142,353.52662 42.198677,357.08013 44.360902,360.75136 Z"
       id="path3724"
       inkscape:connector-curvature="0"
       sodipodi:nodetypes="ssaaaaacsssas" />
    <path
       style="fill:#000000;stroke:none;stroke-width:1px;stroke-linecap:butt;stroke-linejoin:miter;stroke-opacity:1;fill-opacity:1"
       d="M 89.473684,424.66113 C 92.201151,431.01425 101.47073,432.73747 104.51128,438.94684 110.04977,450.25744 107.91092,463.95214 108.27068,476.54083 108.60748,488.32613 106.36537,500.0959 106.76692,511.87917 106.92151,516.41558 106.98514,521.05982 108.27068,525.41301 108.4294,525.95048 108.48361,526.76311 109.02255,526.91677 112.70158,527.96573 116.51776,523.9743 118.79699,520.90173 130.53149,505.08279 130.04293,486.97841 133.83459,463.75887 136.14008,449.64038 137.83892,435.92471 136.09022,420.90173 135.53057,416.09379 127.3138,416.53107 122.55639,415.63857 114.67385,414.15979 106.50936,415.97187 98.496241,415.63857 95.480905,415.51315 89.473684,414.88669 89.473684,414.88669 89.473684,414.88669 88.188365,421.66722 89.473684,424.66113 Z"
       id="path3726"
       inkscape:connector-curvature="0"
       sodipodi:nodetypes="aaaaaaassaaca" />
    <path
       style="fill:#000000;stroke:none;stroke-width:1px;stroke-linecap:butt;stroke-linejoin:miter;stroke-opacity:1;fill-opacity:1"
       d="M 236.84211,341.95436 C 235.09074,352.80327 238.9401,357.0497 243.08923,363.12653 245.35884,366.4506 239.94358,372.24929 252.63158,370.52579 264.95339,368.85204 283.23973,359.16724 294.36172,355.04402 314.93144,347.41827 327.54059,345.27725 343.60902,338.94684 358.00606,333.2749 370.25452,320.06237 385.71429,319.39797 391.5759,319.14606 402.43081,319.54861 402.25564,325.41301 401.58843,347.74974 401.22763,364.66199 398.49624,384.05963 396.03998,401.50337 390.77971,427.39784 385.47048,448.74055 381.93437,462.95544 378.03947,477.1279 372.95094,490.86376 370.58924,497.23889 367.71946,508.1789 364.91853,514.58927 363.42098,518.01665 363.71078,520.85624 360.16899,519.43519 350.49509,515.55381 334.3731,476.73561 334.31103,489.83644 334.18893,515.60714 333.91117,519.14345 336.62249,533.44547 337.80345,539.67492 342.22741,545.16345 342.63753,551.49058 343.12173,558.96045 340.51604,562.80606 338.34586,573.53331 337.48405,577.79327 347.55266,575.58413 351.38465,573.53331 360.94532,568.41659 364.73025,556.23814 369.42976,546.46564 381.942,520.44682 388.56401,491.90959 395.72694,463.94126 405.01871,427.66067 409.90199,388.26494 413.02018,348.90366 413.82458,338.74954 420.90333,336.38401 417.29323,318.64609 411.95545,292.41932 414.54769,287.76966 392.4812,297.59346 379.68044,303.29224 357.14286,314.88669 357.14286,314.88669 L 284.21053,339.69872 259.3985,346.46564 C 259.3985,346.46564 257.99605,349.00399 253.43172,345.67327 247.71211,341.49952 238.43904,332.06211 236.84211,341.95436 Z"
       id="path3728"
       inkscape:connector-curvature="0"
       sodipodi:nodetypes="sassaassassssaasaasssscccss" />
    <path
       style="fill:#000000;stroke:none;stroke-width:1px;stroke-linecap:butt;stroke-linejoin:miter;stroke-opacity:1;fill-opacity:1"
       d="M 34.653466,536.89965 C 18.565106,541.95798 38.606282,553.66928 63.861386,575.51351 73.751943,584.06828 82.339168,556.92025 92.574257,548.78083 104.57457,539.23762 117.58509,530.99195 130.69307,523.03826 144.01267,514.95616 159.67769,510.56989 171.78218,500.76103 176.32945,497.07616 187.85824,486.38753 183.16832,487.39469 159.66087,492.44293 149.53615,499.36502 132.67327,505.21648 111.42485,512.58973 90.249516,520.19515 68.811881,526.99865 57.491723,530.59125 71.071635,525.44945 34.653466,536.89965 Z"
       id="path3730"
       inkscape:connector-curvature="0"
       sodipodi:nodetypes="ssaaasass" />
    <path
       style="fill:#000000;stroke:none;stroke-width:1px;stroke-linecap:butt;stroke-linejoin:miter;stroke-opacity:1;fill-opacity:1"
       d="M 306.13497,230.58852 C 311.75179,253.18599 312.86373,276.70304 314.72392,299.91368 316.50586,322.14778 318.64372,344.52766 317.17791,366.78484 316.45546,377.75468 315.12826,388.86918 311.65644,399.30018 303.59798,423.51166 289.81506,445.51703 276.68711,467.39834 260.81067,493.86076 244.27332,520.27016 223.92639,543.47196 206.07683,563.82598 184.86499,581.06395 163.80369,598.07318 147.95397,610.87351 131.34551,622.79259 114.11043,633.65601 100.48285,642.2456 85.669742,648.81149 71.779141,656.96889 70.115555,657.94585 66.259405,658.2067 66.871166,660.03638 69.86536,668.99153 86.050583,660.30493 95.092025,657.58239 122.95618,649.192 147.83189,632.39757 171.77914,615.8646 193.97533,600.54054 215.02221,583.09506 233.12883,563.10386 249.39135,545.14869 262.37713,524.36409 274.84663,503.59466 289.72257,478.81701 302.6367,452.81912 314.11042,426.29405 320.32544,411.92611 327.19859,397.51281 330.06135,382.12227 333.57746,363.21925 331.28834,324.45356 331.28834,324.45356 L 330.06135,252.06092 C 330.06135,252.06092 331.08958,238.72896 328.22086,233.04251 324.50326,225.67339 317.71206,218.88141 309.81595,216.47809 307.04921,215.63599 302.69515,215.21341 301.22699,217.70509 298.89404,221.66443 305.02643,226.12868 306.13497,230.58852 Z"
       id="path3732"
       inkscape:connector-curvature="0"
       sodipodi:nodetypes="aaaaaaaaaaaaaaaaccaaaa" />
  </g>
</svg>
