<?xml version="1.0" encoding="UTF-8" standalone="no"?>
<!-- Created with Inkscape (http://www.inkscape.org/) -->

<svg
   xmlns:dc="http://purl.org/dc/elements/1.1/"
   xmlns:cc="http://creativecommons.org/ns#"
   xmlns:rdf="http://www.w3.org/1999/02/22-rdf-syntax-ns#"
   xmlns:svg="http://www.w3.org/2000/svg"
   xmlns="http://www.w3.org/2000/svg"
   xmlns:sodipodi="http://sodipodi.sourceforge.net/DTD/sodipodi-0.dtd"
   xmlns:inkscape="http://www.inkscape.org/namespaces/inkscape"
   width="512"
   height="512"
   viewBox="0 0 512 512"
   version="1.1"
   id="svg8"
   inkscape:version="0.92.4 (5da689c313, 2019-01-14)"
   sodipodi:docname="U+523B.svg">
  <defs
     id="defs2" />
  <sodipodi:namedview
     id="base"
     pagecolor="#ffffff"
     bordercolor="#666666"
     borderopacity="1.0"
     inkscape:pageopacity="0.0"
     inkscape:pageshadow="2"
     inkscape:zoom="1.8756036"
     inkscape:cx="240.66625"
     inkscape:cy="267.85736"
     inkscape:document-units="px"
     inkscape:current-layer="layer1"
     showgrid="false"
     units="px"
     inkscape:window-width="1920"
     inkscape:window-height="986"
     inkscape:window-x="-11"
     inkscape:window-y="-11"
     inkscape:window-maximized="1" />
  <metadata
     id="metadata5">
    <rdf:RDF>
      <cc:Work
         rdf:about="">
        <dc:format>image/svg+xml</dc:format>
        <dc:type
           rdf:resource="http://purl.org/dc/dcmitype/StillImage" />
        <dc:title></dc:title>
      </cc:Work>
    </rdf:RDF>
  </metadata>
  <g
     inkscape:label="圖層 1"
     inkscape:groupmode="layer"
     id="layer1"
     transform="translate(0,-161.53331)">
    <path
       style="fill:#000000;stroke:none;stroke-width:1px;stroke-linecap:butt;stroke-linejoin:miter;stroke-opacity:1;fill-opacity:1"
       d="M 135.95624,226.7438 C 165.09531,250.2088 163.22576,244.13845 176.47653,253.40188 182.09896,257.33244 186.18734,264.89851 193.00454,265.6646 197.82826,266.20667 204.56277,264.31937 206.33358,259.79982 210.07938,250.23957 201.27758,238.85611 194.07086,231.54225 189.82798,227.23629 183.37308,225.67541 177.54285,224.07799 169.78223,221.95167 161.56334,220.67463 153.55057,221.41218 147.44823,221.97388 131.18328,222.90025 135.95624,226.7438 Z"
       id="path826"
       inkscape:connector-curvature="0"
       sodipodi:nodetypes="saaaaaas" />
    <path
       style="fill:#000000;stroke:none;stroke-width:1px;stroke-linecap:butt;stroke-linejoin:miter;stroke-opacity:1;fill-opacity:1"
       d="M 19.193822,304.58541 C 34.849679,322.75643 47.451392,329.64401 47.451392,329.64401 47.451392,329.64401 60.062741,332.20141 66.112052,330.71033 78.186041,327.73426 86.929137,316.97644 98.101754,311.5165 113.16537,304.15509 129.0478,298.48727 145.01998,293.38901 154.62868,290.32195 164.47329,287.99972 174.34388,285.92475 191.27043,282.3665 208.28317,278.7379 225.5274,277.39416 243.95533,275.95818 262.52733,279.06277 280.97622,277.92732 283.66054,277.76211 286.72623,278.33815 288.97365,276.861 290.7056,275.72265 292.71297,273.53026 292.17262,271.52938 288.99975,259.78063 272.22407,255.6988 260.18292,253.93505 231.76354,249.77226 175.94336,272.06254 175.94336,272.06254 175.94336,272.06254 127.43262,284.24505 103.43337,291.25636 85.522265,296.48904 68.553739,305.43957 50.117201,308.31754 45.72735,309.0028 41.20693,308.78104 36.788158,308.31754 30.825599,307.69211 15.280536,300.04344 19.193822,304.58541 Z"
       id="path828"
       inkscape:connector-curvature="0"
       sodipodi:nodetypes="scaaaaaaaaacaaas" />
    <path
       style="fill:#000000;stroke:none;stroke-width:1px;stroke-linecap:butt;stroke-linejoin:miter;stroke-opacity:1;fill-opacity:1"
       d="M 58.647788,386.69231 C 68.937715,404.51466 68.258929,414.98718 79.441095,412.81723 128.38572,403.3193 125.71018,395.57679 149.28528,388.2918 159.1292,385.24991 167.59053,387.7446 179.14233,380.29437 182.12939,378.36789 174.03441,374.8552 170.61175,373.89643 156.51222,369.94681 141.04936,375.53427 126.89249,378.16172 100.77242,383.00949 98.897088,385.22785 84.772712,384.0265 76.596239,383.33105 72.769642,384.8713 61.313597,376.56224 58.487118,374.5122 56.901937,383.66846 58.647788,386.69231 Z"
       id="path830"
       inkscape:connector-curvature="0"
       sodipodi:nodetypes="ssasasass" />
    <path
       style="fill:#000000;stroke:none;stroke-width:1px;stroke-linecap:butt;stroke-linejoin:miter;stroke-opacity:1;fill-opacity:1"
       d="M 140.75469,307.78438 C 139.52122,313.03791 145.28917,317.85614 145.55315,323.24607 145.85494,329.40792 143.7161,335.50262 141.82101,341.37357 136.61605,357.49847 132.37879,361.41333 121.0277,387.75864 118.24129,394.22576 132.55099,378.59149 137.02256,372.83011 147.70173,359.07055 150.6327,340.10462 162.08116,326.9782 165.42215,323.14753 172.65093,322.70717 174.34388,317.91445 175.75087,313.93128 173.80499,308.93339 171.14491,305.65173 166.6406,300.09491 159.1036,296.14781 151.95109,296.05482 151.95109,296.05482 141.99018,302.52231 140.75469,307.78438 Z"
       id="path832"
       inkscape:connector-curvature="0"
       sodipodi:nodetypes="aaasaaaasa" />
    <path
       style="fill:#000000;stroke:none;stroke-width:1px;stroke-linecap:butt;stroke-linejoin:miter;stroke-opacity:1;fill-opacity:1"
       d="M 185.00711,343.50621 C 186.21453,337.04235 174.82127,339.28435 185.00711,323.77923 186.45772,321.57108 190.08265,319.98463 192.47138,321.11342 206.80816,327.88823 204.67036,325.50139 218.5963,332.84298 221.58746,334.41988 222.16927,341.49212 219.12946,342.97305 198.33616,353.10312 203.97682,347.84716 198.33616,353.10312 184.82126,365.69628 179.20721,384.73659 170.61175,401.08768 161.1795,419.0306 153.59165,437.89207 144.48682,456.00333 138.52348,467.86555 132.98333,480.00949 125.82616,491.19201 120.76755,499.0957 115.88954,507.47754 108.76499,513.5848 96.327184,524.24666 81.495347,533.16567 65.57889,537.04391 56.771094,539.19004 47.286911,538.2388 38.387643,536.51075 34.467099,535.74946 23.2774,533.04046 27.191247,532.24546 L 61.313596,525.31436 C 61.313596,525.31436 75.366605,519.0911 81.573742,514.65112 92.51457,506.8251 102.00503,497.01976 110.89764,486.92671 122.24776,474.04441 132.62527,460.16369 141.28785,445.3401 151.03899,428.65374 157.6155,410.29893 165.28013,392.55709 169.92654,381.80174 174.27274,370.91825 178.60917,360.03423 180.79577,354.54608 183.92234,349.31347 185.00711,343.50621 Z"
       id="path834"
       inkscape:connector-curvature="0"
       sodipodi:nodetypes="assssaaaaaaascaaaaaa" />
    <path
       style="fill:#000000;stroke:none;stroke-width:1px;stroke-linecap:butt;stroke-linejoin:miter;stroke-opacity:1;fill-opacity:1"
       d="M 223.92792,390.9576 C 223.7359,387.3862 218.55656,384.89107 219.12946,381.36069 219.4918,379.12789 221.69768,376.94007 223.92792,376.56224 229.57056,375.60631 234.9604,380.40223 239.38961,384.0265 244.39623,388.12325 250.61344,393.03887 251.11916,399.48819 251.76561,407.73214 244.4135,414.77962 239.38961,421.34782 231.21719,432.03238 220.61727,440.7288 210.06571,449.07223 204.72995,453.29137 194.92047,466.79555 193.00454,460.26863 193.00454,460.26863 197.28471,448.39321 199.93564,442.67429 204.51683,432.79117 210.91049,423.80987 215.39733,413.88356 218.75583,406.45348 224.36569,399.09971 223.92792,390.9576 Z"
       id="path836"
       inkscape:connector-curvature="0"
       sodipodi:nodetypes="aaaaaaasaaa" />
    <path
       style="fill:#000000;stroke:none;stroke-width:1px;stroke-linecap:butt;stroke-linejoin:miter;stroke-opacity:1;fill-opacity:1"
       d="M 303.90217,317.38129 C 303.45906,327.5406 302.26933,338.55578 306.56798,347.77151 310.49904,356.19917 317.70345,363.93977 326.29497,367.49849 329.25043,368.72268 333.43349,369.54538 335.89188,367.49849 341.16913,363.10458 339.17477,354.09064 339.62401,347.23835 340.07803,340.313 342.19379,332.3565 338.55769,326.44504 334.05358,319.1224 323.74463,317.70571 316.16489,313.64916 312.66116,311.77402 309.05146,306.53113 305.50166,308.31754 302.76118,309.69666 304.03585,314.31627 303.90217,317.38129 Z"
       id="path838"
       inkscape:connector-curvature="0"
       sodipodi:nodetypes="aaaaaaaaa" />
    <path
       style="fill:#000000;stroke:none;stroke-width:1px;stroke-linecap:butt;stroke-linejoin:miter;stroke-opacity:1;fill-opacity:1"
       d="M 391.87386,215.01424 C 392.97487,225.25844 398.50513,230.84273 399.87128,244.8713 404.5283,292.69263 396.32233,334.29777 399.33812,389.35812 401.42619,427.48074 406.96498,463.51598 407.86871,498.65627 408.07161,506.54573 411.09281,514.22335 411.06768,522.11538 411.04767,528.39872 410.09839,534.72603 408.40187,540.77604 408.03643,542.07925 408.05107,543.98598 406.80238,544.50817 397.82038,548.26436 388.5564,537.68782 379.61114,533.84494 371.13734,530.20461 354.55254,522.11538 354.55254,522.11538 L 348.1546,519.98274 370.54739,547.70715 404.13658,600.49016 C 404.13658,600.49016 410.02535,606.90703 413.73349,606.35493 420.08361,605.40947 423.3721,597.5497 426.52937,591.95957 430.64827,584.66683 435.50788,576.20479 433.99363,567.96729 429.6915,544.56373 421.73091,497.05678 421.73091,497.05678 L 414.79981,408.55194 C 414.79981,408.55194 413.8951,359.12905 414.79981,334.44246 415.51117,315.03185 415.11167,295.3449 419.0651,276.32784 422.13104,261.57983 423.67616,257.94514 433.99363,233.6749 437.99961,224.25146 428.76014,225.11371 408.93503,205.41733 405.00841,201.51621 396.59243,200.19577 392.40702,203.81784 389.58173,206.26286 391.47459,211.29927 391.87386,215.01424 Z"
       id="path840"
       inkscape:connector-curvature="0"
       sodipodi:nodetypes="asssaaaaccccaasccaassaa" />
    <path
       style="fill:#000000;stroke:none;stroke-width:1px;stroke-linecap:butt;stroke-linejoin:miter;stroke-opacity:1;fill-opacity:1"
       d="M 149.81844,438.94216 C 152.47618,447.94184 161.54366,453.61579 166.87962,461.33495 168.78636,464.09329 169.41835,468.00976 172.21123,469.86554 177.7596,473.55227 185.52542,471.26108 191.93822,473.06451 200.99275,475.61086 209.70783,479.40834 218.06314,483.72774 230.41357,490.11247 242.99616,499.68288 253.25181,506.12054 256.55646,508.19492 255.87778,514.07485 259.11659,516.25061 263.43527,519.15181 270.71,521.86239 274.57828,518.38325 278.80876,514.57835 276.03233,506.65361 274.04512,501.32208 270.20629,491.02283 261.73728,482.71658 253.25181,475.73032 243.61539,467.79646 231.43585,463.56442 220.19579,458.13598 209.37364,452.90937 198.36092,448.04434 187.13976,443.74061 177.6946,440.11804 168.03925,437.0478 158.34903,434.1437 155.7062,433.35166 150.3516,432.01106 150.3516,432.01106 150.3516,432.01106 149.16216,436.71985 149.81844,438.94216 Z"
       id="path842"
       inkscape:connector-curvature="0"
       sodipodi:nodetypes="aaaaasaaaaaaaca" />
  </g>
</svg>
