<?xml version="1.0" encoding="UTF-8" standalone="no"?>
<!-- Created with Inkscape (http://www.inkscape.org/) -->

<svg
   xmlns:dc="http://purl.org/dc/elements/1.1/"
   xmlns:cc="http://creativecommons.org/ns#"
   xmlns:rdf="http://www.w3.org/1999/02/22-rdf-syntax-ns#"
   xmlns:svg="http://www.w3.org/2000/svg"
   xmlns="http://www.w3.org/2000/svg"
   xmlns:sodipodi="http://sodipodi.sourceforge.net/DTD/sodipodi-0.dtd"
   xmlns:inkscape="http://www.inkscape.org/namespaces/inkscape"
   width="512"
   height="512"
   viewBox="0 0 512 512"
   version="1.1"
   id="svg8099"
   inkscape:version="0.92.4 (5da689c313, 2019-01-14)"
   sodipodi:docname="U+52D2.svg">
  <defs
     id="defs8093" />
  <sodipodi:namedview
     id="base"
     pagecolor="#ffffff"
     bordercolor="#666666"
     borderopacity="1.0"
     inkscape:pageopacity="0.0"
     inkscape:pageshadow="2"
     inkscape:zoom="1.5219183"
     inkscape:cx="200.28743"
     inkscape:cy="288.64122"
     inkscape:document-units="px"
     inkscape:current-layer="layer1"
     showgrid="false"
     units="px"
     inkscape:window-width="1920"
     inkscape:window-height="986"
     inkscape:window-x="-11"
     inkscape:window-y="-11"
     inkscape:window-maximized="1" />
  <metadata
     id="metadata8096">
    <rdf:RDF>
      <cc:Work
         rdf:about="">
        <dc:format>image/svg+xml</dc:format>
        <dc:type
           rdf:resource="http://purl.org/dc/dcmitype/StillImage" />
        <dc:title></dc:title>
      </cc:Work>
    </rdf:RDF>
  </metadata>
  <g
     inkscape:label="圖層 1"
     inkscape:groupmode="layer"
     id="layer1"
     transform="translate(0,-161.53332)">
    <path
       style="fill:#000000;stroke:none;stroke-width:1px;stroke-linecap:butt;stroke-linejoin:miter;stroke-opacity:1;fill-opacity:1"
       d="M 101.84515,207.01682 C 102.85546,230.355 115.12747,239.3756 121.55712,255.63967 130.96302,279.43226 141.24693,305.7207 149.15387,327.25981 151.30066,333.10784 167.70949,336.77276 167.5517,330.54514 166.6523,295.04848 171.95316,273.47051 156.38159,242.49836 146.77244,223.38557 129.42882,219.55494 111.04407,205.04563 108.58242,203.10289 101.70952,203.88384 101.84515,207.01682 Z"
       id="path8112"
       inkscape:connector-curvature="0"
       sodipodi:nodetypes="sasssss" />
    <path
       style="fill:#000000;stroke:none;stroke-width:1px;stroke-linecap:butt;stroke-linejoin:miter;stroke-opacity:1;fill-opacity:1"
       d="M 209.60389,188.61899 C 210.15384,198.30485 220.19535,205.08846 223.40227,214.24455 226.64009,223.48888 228.79417,233.36141 228.65879,243.15543 228.48246,255.91211 225.91097,268.93016 220.774,280.60816 211.22959,302.3057 198.09522,314.65269 179.37888,338.42992 176.58611,341.97786 187.83951,335.22232 191.86312,333.1734 202.80852,327.59974 214.83261,322.91784 223.40227,314.1185 232.36744,304.91305 236.97809,292.23117 242.45716,280.60816 250.85189,262.8 262.17609,245.05883 263.48326,225.41466 263.99119,217.78144 262.54043,209.39235 258.22674,203.07443 253.87608,196.70236 245.91539,193.68226 239.17184,189.93312 231.02776,185.40535 228.07962,180.48024 213.54628,178.76301 210.03232,178.34781 209.40331,185.08627 209.60389,188.61899 Z"
       id="path8114"
       inkscape:connector-curvature="0"
       sodipodi:nodetypes="aaaasaaaaaasa" />
    <path
       style="fill:#000000;stroke:none;stroke-width:1px;stroke-linecap:butt;stroke-linejoin:miter;stroke-opacity:1;fill-opacity:1"
       d="M 79.504924,366.68374 C 80.345561,376.20872 83.868965,385.79588 89.360906,393.62342 94.450567,400.8776 104.28746,403.71375 109.72993,410.70712 114.06166,416.27323 114.99727,423.90641 118.92885,429.76202 120.5714,432.20839 122.63427,438.28375 124.84244,436.33268 127.70038,433.8075 126.3772,420.5836 126.81364,412.67832 127.17585,406.11765 129.28649,399.05393 126.81364,392.96636 122.5584,382.49094 112.0078,375.69377 103.15928,368.65493 96.545201,363.39355 81.47612,355.51362 81.47612,355.51362 78.125128,353.76259 79.172528,362.91747 79.504924,366.68374 Z"
       id="path8116"
       inkscape:connector-curvature="0"
       sodipodi:nodetypes="aaaassaasa" />
    <path
       style="fill:#000000;stroke:none;stroke-width:1px;stroke-linecap:butt;stroke-linejoin:miter;stroke-opacity:1;fill-opacity:1"
       d="M 126.81364,362.74134 C 119.84736,365.76319 138.36143,376.36751 145.86854,375.22559 172.10025,371.23544 177.74738,366.08848 193.83432,362.08428 206.4673,358.93981 231.94412,353.54243 231.94412,353.54243 239.41623,354.44843 232.89064,370.19024 232.60117,378.51091 232.20337,389.94566 224.9191,395.06419 229.31585,412.67832 229.88961,414.97688 230.91293,418.92659 233.25825,418.59191 241.21311,417.45673 238.4179,403.35938 240.48597,395.59462 242.85214,386.71062 241.46509,376.71309 246.39956,368.65493 248.78785,364.75477 255.28966,366.39847 259.54087,364.71254 262.72765,363.44873 267.42565,363.39841 268.73978,360.11308 270.05392,356.82776 272.87468,348.39991 270.05392,343.68645 264.16124,333.83985 249.98935,329.77333 238.51477,329.88807 232.24325,329.95078 227.3329,335.65052 221.43107,337.77286 190.7366,348.81081 161.04278,347.89331 126.81364,362.74134 Z"
       id="path8118"
       inkscape:connector-curvature="0"
       sodipodi:nodetypes="ssasasaasacaaas" />
    <path
       style="fill:#000000;stroke:none;stroke-width:1px;stroke-linecap:butt;stroke-linejoin:miter;stroke-opacity:1;fill-opacity:1"
       d="M 27.59675,516.49467 C 32.971665,524.89712 48.846218,526.47025 57.164697,521.09413 68.766191,513.59624 77.701069,511.09244 88.703841,505.32456 105.39574,496.57433 119.81235,489.14687 136.66962,484.95553 156.50981,480.02253 177.33701,479.26767 197.77671,479.699 220.07544,480.16956 242.31292,483.65623 264.14033,488.24085 271.73673,489.8364 286.48055,494.81151 286.48055,494.81151 286.48055,494.81151 296.41951,493.48154 297.65067,489.55498 299.6176,483.28181 292.55563,477.00503 287.79468,472.47128 281.19757,466.18899 272.22039,462.56612 263.48326,459.98704 255.03891,457.49439 241.58702,456.92547 237.20064,457.35878 192.85487,461.73942 150.2405,472.43162 107.10167,481.6702 87.051151,485.9642 49.936977,494.81151 47.308715,496.12564 44.680453,497.43977 34.260928,501.81825 30.225012,507.29575 28.333337,509.86311 25.878306,513.80828 27.59675,516.49467 Z"
       id="path8120"
       inkscape:connector-curvature="0"
       sodipodi:nodetypes="assaaacaaasasaa" />
    <path
       style="fill:#000000;stroke:none;stroke-width:1px;stroke-linecap:butt;stroke-linejoin:miter;stroke-opacity:1;fill-opacity:1"
       d="M 300.27893,379.16798 C 306.69268,392.64309 303.22929,398.85102 314.73437,406.10767 327.55221,414.19233 338.72992,397.49313 350.87297,393.62342 365.0049,389.1199 378.92151,383.3878 393.58223,381.13918 404.4089,379.47862 411.49802,377.55907 426.4355,380.48211 432.14673,381.59971 434.42661,391.47265 432.34909,396.90875 421.37545,425.62268 417.81685,451.18155 408.69473,477.7278 400.57924,501.34466 391.35126,521.28136 381.09798,547.37675 378.46332,554.08217 367.10542,543.50235 360.72895,540.14903 351.15148,535.11234 333.51595,510.3131 334.44633,521.09413 336.29633,542.53137 337.24425,544.72428 341.01699,555.9186 344.45805,566.12878 354.1583,581.54415 355.47243,584.82948 356.78656,588.11481 371.95739,599.34066 380.44092,595.99959 396.14842,589.81351 394.33503,565.19552 400.15288,549.34794 413.52161,512.9321 423.91306,475.48476 434.97735,438.30388 439.58528,422.81922 437.05499,403.42521 448.11866,391.65223 451.29687,388.27026 457.25529,389.39825 461.25997,387.05277 465.54473,384.54325 469.90595,381.47295 472.43009,377.19679 475.50947,371.98 480.16304,364.18139 476.37248,359.45602 473.90562,356.38079 468.12175,361.11477 464.5453,359.45602 457.7781,356.3174 456.47417,346.2306 450.08986,342.37231 441.44885,337.15021 429.87664,332.00345 420.52191,335.80166 412.7546,338.95535 414.57022,353.87708 406.72354,356.82776 374.55323,368.92515 353.00425,366.85946 321.96209,374.56852 316.39873,375.95013 315.8277,361.41199 310.13491,362.08428 303.60598,362.85531 297.45348,373.2318 300.27893,379.16798 Z"
       id="path8122"
       inkscape:connector-curvature="0"
       sodipodi:nodetypes="ssaassasasasaaaaaaaaaassas" />
    <path
       style="fill:#000000;stroke:none;stroke-width:1px;stroke-linecap:butt;stroke-linejoin:miter;stroke-opacity:1;fill-opacity:1"
       d="M 55.193501,276.0087 C 55.193501,276.0087 67.021508,294.9797 76.876662,297.69186 92.344135,301.94854 108.49152,291.45547 123.52831,285.86468 129.4959,283.64589 139.2462,283.54132 140.61201,277.32283 141.21372,274.58328 137.96043,271.7921 135.35549,270.75218 124.88422,266.57193 113.01475,273.81477 101.84515,275.35163 95.493227,276.22561 82.790251,277.97989 82.790251,277.97989 75.851985,277.42247 68.991876,277.32283 68.991876,277.32283 Z"
       id="path8124"
       inkscape:connector-curvature="0"
       sodipodi:nodetypes="caaaaascc" />
    <path
       style="fill:#000000;stroke:none;stroke-width:1px;stroke-linecap:butt;stroke-linejoin:miter;stroke-opacity:1;fill-opacity:1"
       d="M 197.77671,252.35434 C 188.41302,257.03771 222.7452,268.12391 222.7452,268.12391 254.16108,269.37808 271.32202,259.09943 295.67947,254.98261 303.98758,253.5784 325.71389,257.77317 320.64796,251.04021 320.64796,251.04021 299.1715,225.79818 286.48055,230.01412 272.36169,234.70442 258.21087,239.49996 243.7713,243.15543 228.6143,246.99252 211.15508,245.66298 197.77671,252.35434 Z"
       id="path8126"
       inkscape:connector-curvature="0"
       sodipodi:nodetypes="ssassas" />
    <path
       style="fill:#000000;stroke:none;stroke-width:1px;stroke-linecap:butt;stroke-linejoin:miter;stroke-opacity:1;fill-opacity:1"
       d="M 97.245692,435.67561 C 89.384149,442.9286 115.17941,451.382 126.15657,451.44518 138.30567,451.5151 147.55789,437.89856 158.35279,434.36148 172.7179,429.65458 185.38454,427.2128 199.09084,424.5055 207.56938,422.83081 216.07587,420.38607 224.7164,420.56311 236.09683,420.79629 247.51744,430.99113 258.22674,427.13376 261.15544,426.07888 266.35565,422.09292 264.14033,419.90604 245.89875,401.89865 255.0139,409.12139 231.94412,403.4794 218.37296,400.16041 190.54899,410.05006 190.54899,410.05006 190.54899,410.05006 153.0387,417.28657 134.69842,422.5343 121.97844,426.17389 108.44514,425.3431 97.245692,435.67561 Z"
       id="path8128"
       inkscape:connector-curvature="0"
       sodipodi:nodetypes="sasaaasscas" />
    <path
       style="fill:#000000;stroke:none;stroke-width:1px;stroke-linecap:butt;stroke-linejoin:miter;stroke-opacity:1;fill-opacity:1"
       d="M 377.15559,311.49024 C 366.18679,334.86296 364.40858,361.53432 357.44362,386.3957 352.88223,402.67754 349.67682,419.48901 342.98818,435.01855 332.77908,458.72183 321.84381,483.18402 304.22132,502.03923 293.76866,513.22306 275.0668,515.2495 266.11152,527.66478 263.71787,530.98324 262.82619,539.49196 262.82619,539.49196 262.82619,539.49196 267.6689,544.02746 270.71098,544.09142 283.83661,544.36738 296.06487,534.78569 305.53545,525.69359 323.4477,508.49717 332.65727,483.88076 342.98818,461.30117 351.95042,441.71297 356.61048,420.42285 364.01428,400.19408 370.87831,381.44008 374.04198,360.56009 385.69744,344.34351 389.6909,338.78729 400.76206,338.00825 401.46701,331.2022 402.15774,324.53352 393.44129,320.43962 388.98277,315.43263 386.30496,312.42541 384.45387,306.55866 380.44092,306.89078 378.56324,307.04618 377.95603,309.78463 377.15559,311.49024 Z"
       id="path8130"
       inkscape:connector-curvature="0"
       sodipodi:nodetypes="aaaaacaaaaaaaaa" />
    <path
       style="fill:#000000;stroke:none;stroke-width:1px;stroke-linecap:butt;stroke-linejoin:miter;stroke-opacity:1;fill-opacity:1"
       d="M 174.12235,383.76744 C 176.39368,423.40295 177.05932,426.23232 177.40768,447.50279 177.98165,482.54774 180.79209,517.9952 175.43648,552.63327 174.49405,558.72855 176.2293,569.17148 170.17996,570.37404 164.37589,571.52784 158.45159,552.42867 159.00984,556.57567 163.6093,590.74307 161.60588,583.28372 165.5805,595.99959 169.40958,608.24986 178.55332,643.18537 182.00714,630.82406 185.04234,619.961 188.0085,604.83895 189.89193,594.02839 191.3075,585.90322 184.47175,581.11444 185.29247,569.71697 188.69054,522.5273 185.36223,478.70693 191.20606,433.70442 192.7938,421.47749 202.21182,409.49386 199.09084,397.56582 197.75565,392.46286 193.23227,388.22033 188.57779,385.73864 184.28658,383.45063 173.84413,378.91233 174.12235,383.76744 Z"
       id="path8132"
       inkscape:connector-curvature="0"
       sodipodi:nodetypes="saaasasssaaas" />
  </g>
</svg>
