<?xml version="1.0" encoding="UTF-8" standalone="no"?>
<!-- Created with Inkscape (http://www.inkscape.org/) -->

<svg
   xmlns:dc="http://purl.org/dc/elements/1.1/"
   xmlns:cc="http://creativecommons.org/ns#"
   xmlns:rdf="http://www.w3.org/1999/02/22-rdf-syntax-ns#"
   xmlns:svg="http://www.w3.org/2000/svg"
   xmlns="http://www.w3.org/2000/svg"
   xmlns:sodipodi="http://sodipodi.sourceforge.net/DTD/sodipodi-0.dtd"
   xmlns:inkscape="http://www.inkscape.org/namespaces/inkscape"
   width="512"
   height="520"
   viewBox="0 0 512 520"
   version="1.1"
   id="svg5147"
   inkscape:version="0.92.4 (5da689c313, 2019-01-14)"
   sodipodi:docname="U+5BE6.svg">
  <defs
     id="defs5141" />
  <sodipodi:namedview
     id="base"
     pagecolor="#ffffff"
     bordercolor="#666666"
     borderopacity="1.0"
     inkscape:pageopacity="0.0"
     inkscape:pageshadow="2"
     inkscape:zoom="0.76508705"
     inkscape:cx="237.80294"
     inkscape:cy="230.89567"
     inkscape:document-units="px"
     inkscape:current-layer="svg5147"
     showgrid="false"
     units="px"
     inkscape:window-width="1920"
     inkscape:window-height="986"
     inkscape:window-x="-11"
     inkscape:window-y="-11"
     inkscape:window-maximized="1" />
  <metadata
     id="metadata5144">
    <rdf:RDF>
      <cc:Work
         rdf:about="">
        <dc:format>image/svg+xml</dc:format>
        <dc:type
           rdf:resource="http://purl.org/dc/dcmitype/StillImage" />
        <dc:title></dc:title>
      </cc:Work>
    </rdf:RDF>
  </metadata>
  <g
     inkscape:label="圖層 1"
     inkscape:groupmode="layer"
     id="layer1"
     transform="translate(0,-159.41665)" />
  <path
     style="fill:#000000;stroke:none;stroke-width:1px;stroke-linecap:butt;stroke-linejoin:miter;stroke-opacity:1;fill-opacity:1"
     d="M 117.10526,35.131579 C 123.12886,47.50888 134.77558,57.314681 138.15789,70.657895 140.96197,81.719971 138.96418,93.655518 136.84211,104.86842 134.98499,114.68134 131.80718,124.41835 126.97368,133.1579 124.25531,138.07304 117.4826,140.79524 116.44737,146.31579 114.28694,157.83667 126.97368,179.86842 126.97368,179.86842 130.32257,184.87302 134.99677,177.45045 137.5,171.97368 139.00736,168.67576 140.34225,162.68384 141.54787,159.27646 148.53493,139.52939 151.1805,118.20249 157.89473,98.289474 160.60116,90.262763 166.241,79.849189 166.44737,70 166.61339,62.076602 165.30485,53.296133 160.52631,46.973684 151.34146,34.821275 135.59427,28.48426 121.05263,23.947368 118.32309,23.095771 114.20375,20.993209 112.5,23.289474 109.97631,26.69083 115.25189,31.32327 117.10526,35.131579 Z"
     id="path5160"
     inkscape:connector-curvature="0"
     sodipodi:nodetypes="aaaaassssaaaaa" />
  <path
     style="fill:#000000;stroke:none;stroke-width:1px;stroke-linecap:butt;stroke-linejoin:miter;stroke-opacity:1;fill-opacity:1"
     d="M 150.65789,56.842105 C 142.37413,58.584515 162.93438,74.371742 171.05263,71.973684 210.00709,60.466889 235.50299,52.495241 268.42105,45.657895 284.69699,42.277251 317.76316,38.421053 317.76316,38.421053 317.76316,38.421053 398.68421,30.526316 402.63158,31.184211 406.57895,31.842105 415.13158,37.105263 415.13158,37.105263 L 411.18421,76.578947 C 411.18421,76.578947 397.36842,69.342105 400.65789,74.605263 403.94737,79.868421 407.61488,85.930532 413.15789,89.078947 416.44963,90.948648 421.03414,92.893471 424.34211,91.052632 427.43791,89.329861 426.99966,84.483958 428.28947,81.184211 432.9897,69.159496 429.23764,49.453772 442.10526,45 446.66915,43.420334 443.63779,34.830565 441.44737,30.526316 435.07872,18.011672 422.52509,5.6057145 408.55263,4.2105263 400.45225,3.401681 394.62019,12.992305 386.8421,15.394737 357.91619,24.32913 326.5659,21.560099 296.71053,26.578947 265.53477,31.81976 234.91569,39.963042 203.94737,46.315789 186.21033,49.954311 165.8226,53.652353 150.65789,56.842105 Z"
     id="path5162"
     inkscape:connector-curvature="0"
     sodipodi:nodetypes="ssacscccaaasaaaaas" />
  <path
     style="fill:#000000;stroke:none;stroke-width:1px;stroke-linecap:butt;stroke-linejoin:miter;stroke-opacity:1;fill-opacity:1"
     d="M 225,16.052632 C 256.63648,25.248362 261.93661,36.48802 270.59891,54.346642 270.59891,54.346642 275.09235,72.053804 280.92105,69.88657 291.96911,65.778669 293.26224,54.119782 298.02632,36.991833 302.51607,20.850162 262.5,6.8421053 262.5,6.8421053 262.5,6.8421053 247.36842,1.5789474 236.84211,4.8684211 226.31579,8.1578947 219.78621,14.537147 225,16.052632 Z"
     id="path5164"
     inkscape:connector-curvature="0"
     sodipodi:nodetypes="sssscss" />
  <path
     style="fill:#000000;stroke:none;stroke-width:1px;stroke-linecap:butt;stroke-linejoin:miter;stroke-opacity:1;fill-opacity:1"
     d="M 205.60344,98.017241 C 203.73719,105.28725 207.49215,112.93004 207.75862,120.43103 208.58013,143.55577 206.94641,166.70624 206.03448,189.82759 205.82467,195.14731 205.60344,203.62069 205.17241,205.77587 204.74137,207.93104 204.52876,218.08313 208.62069,219.13793 214.18395,220.57201 216.07299,204.77305 218.10345,196.72413 219.30453,191.96294 213.42325,190.27054 214.65517,185.51724 220.20812,164.09156 220.48752,141.9303 225,120.43103 226.28138,114.32604 230.96378,109.07305 229.74138,102.32759 229.74138,102.32759 216.46071,89.49849 212.06897,88.534483 207.67723,87.570476 206.55468,94.31166 205.60344,98.017241 Z"
     id="path5166"
     inkscape:connector-curvature="0"
     sodipodi:nodetypes="aaacsssasza" />
  <path
     style="fill:#000000;stroke:none;stroke-width:1px;stroke-linecap:butt;stroke-linejoin:miter;stroke-opacity:1;fill-opacity:1"
     d="M 220.25862,105.34483 C 220.25862,105.34483 258.8257,86.830531 278.87931,79.482759 287.45946,76.338936 296.03781,71.972577 305.17241,71.724138 316.38988,71.419049 328.22126,73.857356 337.93103,79.482759 343.38417,82.642062 351.29138,86.988284 350.86207,93.275862 350.39586,100.10393 335.88465,99.432141 334.91379,106.2069 330.16511,139.34355 329.84909,163.35709 328.01724,191.98276 327.82433,194.99725 327.58621,201.03448 327.58621,201.03448 325.4541,203.52218 323.7069,204.48276 319.82759,195 315.94828,185.51724 323.7069,100.17241 323.7069,100.17241 323.7069,100.17241 324.56897,79.051724 308.18966,85.948276 291.81034,92.844828 272.16198,101.96442 256.03448,113.10345 251.59687,116.16844 248.99331,125.83068 243.96552,123.87931 234.21506,120.09499 227.20748,121.39234 220.25862,116.98276 217.50824,115.23744 213.37113,112.88513 213.7931,109.65517 214.12864,107.0868 220.25862,105.34483 220.25862,105.34483 Z"
     id="path5168"
     inkscape:connector-curvature="0"
     sodipodi:nodetypes="caaaasasscsasaac" />
  <path
     style="fill:#000000;stroke:none;stroke-width:1px;stroke-linecap:butt;stroke-linejoin:miter;stroke-opacity:1;fill-opacity:1"
     d="M 55.603448,210.08621 C 69.437453,223.96753 86.206897,220.43104 100.43103,212.24138 114.65517,204.05173 132.11831,193.82718 149.13793,187.24138 177.87222,176.12256 208.23268,169.54605 238.36207,163.10345 252.72972,160.0312 267.31086,157.97487 281.89655,156.2069 293.77721,154.76681 305.73836,154.08539 317.67241,153.18966 339.49732,151.55155 361.35939,147.31429 383.18966,148.87931 405.31011,150.46513 446.12069,161.37931 448.27586,162.67241 450.43103,163.96552 467.67242,169.56897 467.67242,169.56897 467.67242,169.56897 485.45835,171.20293 474.13793,157.06896 467.5064,148.78925 462.68919,147.70879 456.80525,143.23348 453.09912,140.41461 449.76227,136.89574 445.49195,135.03945 438.70592,132.0896 431.07198,130.06364 423.70689,130.77587 418.49364,131.28001 414.24609,135.48036 409.15073,136.69257 398.32024,139.26919 392.66648,139.3453 375.86207,139.39655 354.98874,139.46021 334.97093,139.54181 314.65517,141.55172 284.5206,144.53304 254.66883,150.14546 225,156.2069 199.05202,161.50816 173.36037,168.07606 147.84483,175.17241 124.07088,181.78439 100.82037,190.16392 77.155172,197.15517 70.390772,199.15353 55.226693,196.13687 52.041927,204.22966 51.205236,206.35577 52.657982,207.13067 55.603448,210.08621 Z"
     id="path5170"
     inkscape:connector-curvature="0"
     sodipodi:nodetypes="ssaaaaaccsaaaasaaasas" />
  <path
     style="fill:#000000;stroke:none;stroke-width:1px;stroke-linecap:butt;stroke-linejoin:miter;stroke-opacity:1;fill-opacity:1"
     d="M 243.53448,120.43103 C 244.41301,127.39848 251.74467,131.99732 254.31034,138.53448 258.81976,150.0242 261.46829,162.92774 262.06897,174.74138 262.24843,178.27084 257.393,180.69073 257.32759,184.22414 257.23119,189.43146 259.92237,194.96361 263.7931,198.44828 265.48146,199.96825 268.13426,201.40841 270.25862,200.60345 272.49028,199.75783 272.75944,196.53227 273.84485,194.40689 276.68022,188.85488 280.27403,182.21319 281.46552,177.32759 284.9053,163.22308 291.69487,147.76283 282.75862,133.7931 277.53914,125.63367 269.54712,123.07538 262.06897,119.13793 256.9205,116.42712 250.88809,110.48973 245.68966,113.10345 243.41501,114.24712 243.21598,117.90505 243.53448,120.43103 Z"
     id="path5172"
     inkscape:connector-curvature="0"
     sodipodi:nodetypes="aasaaaassaaa" />
  <path
     style="fill:#000000;stroke:none;stroke-width:1px;stroke-linecap:butt;stroke-linejoin:miter;stroke-opacity:1;fill-opacity:1"
     d="M 163.7931,223.44828 C 155.04418,227.9943 185.34483,242.84483 185.34483,242.84483 202.95081,233.18147 205.39737,229.76741 216.37931,225.17241 227.12107,220.6779 238.7191,218.57537 250,215.68966 262.42593,212.51105 274.75054,208.46845 287.5,207.06897 307.0669,204.92115 326.96249,205.56638 346.55172,207.5 357.17972,208.54907 378.01724,213.53448 378.01724,213.53448 378.01724,213.53448 396.12069,216.12069 380.60345,203.18966 365.08621,190.25862 348.7069,187.67241 348.7069,187.67241 L 298.27586,193.7069 C 298.27586,193.7069 251.77971,201.86012 228.87931,207.5 217.53434,210.29402 206.61291,214.6579 195.25862,217.41379 184.8803,219.93279 171.86783,219.25257 163.7931,223.44828 Z"
     id="path5174"
     inkscape:connector-curvature="0"
     sodipodi:nodetypes="ssaaaacsccaas" />
  <path
     style="fill:#000000;stroke:none;stroke-width:1px;stroke-linecap:butt;stroke-linejoin:miter;stroke-opacity:1;fill-opacity:1"
     d="M 184.91379,262.24138 C 184.58331,271.96035 189.47067,281.15422 191.37931,290.68966 193.52582,301.41348 196.39684,312.09641 196.98276,323.01724 197.93924,340.84473 191.13588,358.77425 193.53448,376.46552 194.53565,383.84986 198.08518,390.67103 200.86207,397.58621 202.27558,401.10622 204.3483,404.35151 205.60345,407.93103 209.02212,417.6806 215.04365,395.53546 217.24138,386.37931 217.9129,383.58162 218.12404,380.60011 217.67241,377.75862 216.85147,372.59349 212.22021,367.68516 212.06897,363.10345 211.06385,332.65443 213.41195,303.54027 208.62069,274.31034 207.87169,269.74093 205.64128,267.78706 203.0112,265.51035 198.36527,261.48862 192.49099,260.20236 186.2069,257.93103 184.79617,257.42114 184.96477,260.7422 184.91379,262.24138 Z"
     id="path5176"
     inkscape:connector-curvature="0"
     sodipodi:nodetypes="aaaaassassasa" />
  <path
     style="fill:#000000;stroke:none;stroke-width:1px;stroke-linecap:butt;stroke-linejoin:miter;stroke-opacity:1;fill-opacity:1"
     d="M 211.63793,252.32759 C 212.95836,259.95951 219.09544,268.66106 226.72414,270 233.8857,271.25695 235.86555,262.43124 245.68966,259.22414 265.56099,252.73711 288.53337,247.71418 309.05172,243.7069 313.67732,242.80351 317.54188,250.20261 317.67241,254.91379 318.70636,292.23291 322.91839,326.13064 318.53448,359.65517 316.66862,373.92374 308.62069,393.27586 308.62069,393.27586 308.62069,393.27586 298.08565,406.19335 297.84483,413.96552 297.71335,418.20868 300.05501,422.56259 303.01724,425.60345 307.68105,430.39106 313.18501,436.28087 321.12069,434.22414 323.90235,433.5032 327.02325,431.7479 328.01724,429.05172 334.08033,412.60577 333.48046,397.25613 334.91379,381.2069 337.47151,352.56766 337.21357,323.74428 337.93103,295 338.17126,285.37549 335.95742,275.44306 338.36207,266.12069 339.5822,261.39046 342.11212,256.92641 345.25862,253.18966 347.36895,250.68345 352.66015,250.41202 353.01724,247.15517 353.60672,241.7789 347.14093,237.70215 342.67241,234.65517 333.92583,228.69108 312.5,224.74138 312.5,224.74138 312.5,224.74138 296.98276,234.22414 294.39655,234.22414 291.81034,234.22414 259.94994,243.75537 242.24138,245 233.19375,245.63591 225.30006,244.83393 215.08621,243.27586 211.89436,242.78896 211.08749,249.14609 211.63793,252.32759 Z"
     id="path5178"
     inkscape:connector-curvature="0"
     sodipodi:nodetypes="aasssscaassaaaaaacsasa" />
  <path
     style="fill:#000000;stroke:none;stroke-width:1px;stroke-linecap:butt;stroke-linejoin:miter;stroke-opacity:1;fill-opacity:1"
     d="M 226.72414,297.15517 C 227.62782,302.35235 240.51724,304.91379 240.51724,304.91379 255.50334,302.97158 262.76091,297.17663 273.7069,292.84483 276.75923,291.63689 279.66563,290.06518 282.75862,288.96552 285.71529,287.91432 291.11277,289.43877 291.81034,286.37931 292.96414,281.31884 285.23508,277.17861 280.17241,276.03448 270.10445,273.75919 260.22141,281.38575 250.43103,284.65518 244.66469,286.58081 246.55741,288.14829 232.32759,290.68966 229.52008,291.19107 226.23558,294.3454 226.72414,297.15517 Z"
     id="path5180"
     inkscape:connector-curvature="0"
     sodipodi:nodetypes="asaaaassa" />
  <path
     style="fill:#000000;stroke:none;stroke-width:1px;stroke-linecap:butt;stroke-linejoin:miter;stroke-opacity:1;fill-opacity:1"
     d="M 227.58621,350.17241 C 232.23773,353.55385 239.26783,356.65306 244.39655,354.05172 264.37778,343.91704 275.36523,338.2295 290.08621,334.22414 296.24274,332.54904 280.88718,323.90552 274.56897,323.01724 268.62514,322.1816 263.27638,327.08998 257.63008,329.12635 254.51201,330.2509 251.37415,331.32203 248.27586,332.5 243.93652,334.14981 239.81954,336.43603 235.34483,337.67242 231.83857,338.64122 227.61915,337.93612 224.56897,339.39655 217.7938,344.84972 223.61529,347.03092 227.58621,350.17241 Z"
     id="path5182"
     inkscape:connector-curvature="0"
     sodipodi:nodetypes="cssaaaacc" />
  <path
     style="fill:#000000;stroke:none;stroke-width:1px;stroke-linecap:butt;stroke-linejoin:miter;stroke-opacity:1;fill-opacity:1"
     d="M 146.12069,409.65517 C 150.46466,418.95649 158.38567,429.23108 168.53448,430.77586 181.17623,432.70009 191.08173,418.55464 203.01724,413.96552 219.48565,407.63353 236.47447,402.20417 253.87931,399.31034 268.35338,396.9038 283.18789,396.47374 297.84483,397.15517 304.94886,397.48545 314.02507,405.28791 318.96552,400.17241 321.80447,397.23287 319.22887,391.39757 316.81034,388.10345 312.39855,382.09444 304.38124,376.84506 296.98276,377.75862 276.69545,380.26369 257.01871,386.57122 237.06897,391.12069 217.93869,395.48329 199.16865,401.7294 179.74138,404.48276 174.32815,405.24996 168.82012,405.66317 163.36207,405.34483 157.39617,404.99687 150.14196,398.34135 145.68966,402.32759 143.86677,403.95966 145.08534,407.43827 146.12069,409.65517 Z"
     id="path5184"
     inkscape:connector-curvature="0"
     sodipodi:nodetypes="aaaaaaasaaaaa" />
  <path
     style="fill:#000000;stroke:none;stroke-width:1px;stroke-linecap:butt;stroke-linejoin:miter;stroke-opacity:1;fill-opacity:1"
     d="M 94.396552,450.17241 C 87.207966,459.468 87.068966,484.65517 87.068966,484.65517 87.068966,484.65517 91.124858,504.19742 98.275862,510.08621 101.80069,512.98887 107.42665,514.86838 111.63793,513.10345 119.43361,509.83631 121.55172,504.05173 125,491.55172 128.66798,478.25527 99.568966,447.58621 99.568966,447.58621 99.568966,447.58621 95.575783,448.64754 94.396552,450.17241 Z"
     id="path5186"
     inkscape:connector-curvature="0"
     sodipodi:nodetypes="acaasca" />
  <path
     style="fill:#000000;stroke:none;stroke-width:1px;stroke-linecap:butt;stroke-linejoin:miter;stroke-opacity:1;fill-opacity:1"
     d="M 390.51724,448.44828 C 390.51724,448.44828 391.42952,441.62209 393.53448,442.41379 407.72924,447.75257 418.8109,454.2477 426.2931,465.25862 432.26719,474.05019 434.42935,485.69464 433.62069,496.2931 433.06655,503.55578 431.96983,513.34273 425.43103,516.55172 421.14345,518.6559 414.91564,516.14625 411.63793,512.67241 403.35998,503.89914 407.12361,488.94522 403.87931,477.32759 402.08286,470.89461 400.42781,464.32245 397.41379,458.36207 395.59722,454.7697 390.51724,448.44828 390.51724,448.44828 Z"
     id="path5188"
     inkscape:connector-curvature="0"
     sodipodi:nodetypes="csaaaaaac" />
</svg>
