<?xml version="1.0" encoding="UTF-8" standalone="no"?>
<!-- Created with Inkscape (http://www.inkscape.org/) -->

<svg
   xmlns:dc="http://purl.org/dc/elements/1.1/"
   xmlns:cc="http://creativecommons.org/ns#"
   xmlns:rdf="http://www.w3.org/1999/02/22-rdf-syntax-ns#"
   xmlns:svg="http://www.w3.org/2000/svg"
   xmlns="http://www.w3.org/2000/svg"
   xmlns:sodipodi="http://sodipodi.sourceforge.net/DTD/sodipodi-0.dtd"
   xmlns:inkscape="http://www.inkscape.org/namespaces/inkscape"
   width="512"
   height="512"
   viewBox="0 0 512 512"
   version="1.1"
   id="svg4559"
   inkscape:version="0.92.4 (5da689c313, 2019-01-14)"
   sodipodi:docname="U+5BCC.svg">
  <defs
     id="defs4553" />
  <sodipodi:namedview
     id="base"
     pagecolor="#ffffff"
     bordercolor="#666666"
     borderopacity="1.0"
     inkscape:pageopacity="0.0"
     inkscape:pageshadow="2"
     inkscape:zoom="1.3995495"
     inkscape:cx="338.16709"
     inkscape:cy="232.25592"
     inkscape:document-units="px"
     inkscape:current-layer="svg4559"
     showgrid="false"
     units="px"
     inkscape:window-width="1920"
     inkscape:window-height="986"
     inkscape:window-x="-11"
     inkscape:window-y="-11"
     inkscape:window-maximized="1" />
  <metadata
     id="metadata4556">
    <rdf:RDF>
      <cc:Work
         rdf:about="">
        <dc:format>image/svg+xml</dc:format>
        <dc:type
           rdf:resource="http://purl.org/dc/dcmitype/StillImage" />
        <dc:title></dc:title>
      </cc:Work>
    </rdf:RDF>
  </metadata>
  <g
     inkscape:label="圖層 1"
     inkscape:groupmode="layer"
     id="layer1"
     transform="translate(0,-161.53331)" />
  <path
     style="fill:#000000;stroke:none;stroke-width:1px;stroke-linecap:butt;stroke-linejoin:miter;stroke-opacity:1;fill-opacity:1"
     d="M 103.03556,98.847609 C 103.43214,107.73213 104.61961,116.92291 105.21096,126.13005 105.63423,132.72033 105.75208,139.31898 105.05587,145.8197 103.14686,163.64461 92.138697,193.84433 91.418805,197.84256 89.486076,208.57679 84.347737,207.94408 84.347737,207.94408 80.307127,203.3984 71.181962,205.82279 71.720831,207.94408 75.963539,224.64574 76.383539,233.27215 85.35789,241.7842 88.564243,244.82538 91.839579,235.56856 93.944187,231.68267 108.32847,205.12395 112.83348,173.30504 119.70308,144.80955 120.95082,139.63386 124.5263,134.97637 124.75384,129.65726 125.1535,120.31469 123.54112,110.05033 118.18785,102.38314 116.10281,99.39685 112.72165,96.673532 109.09647,96.322227 106.91801,96.111119 102.93796,96.661124 103.03556,98.847609 Z"
     id="path4572"
     inkscape:connector-curvature="0"
     sodipodi:nodetypes="sssscssasaaas" />
  <path
     style="fill:#000000;stroke:none;stroke-width:1px;stroke-linecap:butt;stroke-linejoin:miter;stroke-opacity:1;fill-opacity:1"
     d="M 136.37059,98.342532 C 140.74792,104.90853 145.22557,113.06619 149.50258,118.04051 153.39291,122.56511 157.89607,115.84336 163.64471,111.47452 172.46404,104.77202 409.11178,72.583643 409.11178,72.583643 409.11178,72.583643 417.5207,70.475704 421.23361,72.078566 424.30175,73.403079 428.66791,76.427663 427.7996,79.65471 423.43092,95.890746 417.76136,109.9083 411.63716,124.6065 410.13105,128.2212 406.01702,131.33879 406.5864,135.2131 407.64357,142.40651 413.9999,150.64321 421.23361,151.37554 424.34934,151.69097 426.77894,148.20361 428.80976,145.8197 439.11243,133.72572 450.52804,103.3933 450.52804,103.3933 450.52804,103.3933 455.86058,92.395797 452.54834,88.746083 440.68285,75.671676 435.04338,55.167274 423.25392,46.824753 417.6514,42.860266 406.47082,59.509707 396.48487,60.966888 316.05324,72.70373 244.0837,80.850255 159.09903,90.766388 151.81373,91.616447 145.80061,88.554261 137.38075,87.230854 134.84204,86.831827 133.29344,91.227385 133.34014,93.796846 133.37323,95.617622 135.36044,96.827304 136.37059,98.342532 Z"
     id="path4574"
     inkscape:connector-curvature="0"
     sodipodi:nodetypes="asscasaaaacsssssaa" />
  <path
     style="fill:#000000;stroke:none;stroke-width:1px;stroke-linecap:butt;stroke-linejoin:miter;stroke-opacity:1;fill-opacity:1"
     d="M 228.97394,31.431153 C 239.13457,31.888449 248.79962,37.716153 256.75172,44.057416 263.70167,49.599534 275.66672,56.817568 272.91334,65.269537 268.58314,78.561814 257.77288,93.878491 250.69111,86.481658 237.7517,72.966577 232.12691,67.56896 224.93354,56.543511 219.20083,47.756833 216.02507,43.98177 218.87293,34.966507 221.0244,28.155751 225.41027,31.270764 228.97394,31.431153 Z"
     id="path4576"
     inkscape:connector-curvature="0"
     sodipodi:nodetypes="aassssa" />
  <path
     style="fill:#000000;stroke:none;stroke-width:1px;stroke-linecap:butt;stroke-linejoin:miter;stroke-opacity:1;fill-opacity:1"
     d="M 189.42732,144.59912 C 190.38032,150.71121 203.0837,163.10132 203.0837,163.10132 207.2284,167.38835 212.50872,165.48171 220.70485,160.01762 231.27753,152.96916 273.74008,144.80675 300.88106,140.19383 311.64163,138.36495 322.00213,140.12173 333.48018,137.11013 337.61631,136.0249 338.42415,128.80889 337.00441,124.77533 334.55601,117.81927 318.94274,112 318.94274,112 277.66144,123.88562 248.27095,129.56616 207.48899,137.99119 207.48899,137.99119 199.71102,134.07741 194.71366,131.82379 191.4795,130.3653 188.1273,136.26143 189.42732,144.59912 Z"
     id="path4578"
     inkscape:connector-curvature="0"
     sodipodi:nodetypes="sssasassss" />
  <path
     style="fill:#000000;stroke:none;stroke-width:1px;stroke-linecap:butt;stroke-linejoin:miter;stroke-opacity:1;fill-opacity:1"
     d="M 170.04405,202.30837 C 171.80617,201.86784 201.32286,217.73425 203.52423,230.5022 205.72687,243.27753 207.25916,266.3845 211.45375,278.51983 213.11899,283.33752 224.59685,286.8313 225.9912,282.04405 229.89183,268.65194 225.11013,243.27753 225.11013,243.27753 L 221.5859,215.96476 C 221.5859,215.96476 216.29956,201.42731 201.76211,196.14097 187.79593,191.06236 179.50816,185.52953 171.36564,191.73568 168.54093,193.88865 160.35242,200.98678 170.04405,202.30837 Z"
     id="path4580"
     inkscape:connector-curvature="0"
     sodipodi:nodetypes="csssccsac" />
  <path
     style="fill:#000000;stroke:none;stroke-width:1px;stroke-linecap:butt;stroke-linejoin:miter;stroke-opacity:1;fill-opacity:1"
     d="M 221.14537,188.21145 C 217.27894,197.19616 229.27306,208.29613 238.32599,212 244.80553,214.65102 253.52319,212.7976 259.03084,208.47577 268.67078,200.91135 280.61674,200.10573 280.61674,200.10573 285.42574,198.78023 299.32307,195.86182 291.62996,210.23789 280.8999,230.28908 283.25992,236.22908 283.25992,236.22908 283.25992,236.22908 281.51924,244.21193 284.14097,246.36124 286.19763,248.04729 290.43367,248.76942 292.07049,245.48018 300.3925,228.75682 307.09785,212.24705 318.5022,200.10573 321.23703,197.19417 328.19383,194.81938 328.19383,193.05727 328.19383,193.05727 332.44155,180.85195 328.19383,178.51982 320.19238,174.12677 309.78967,168.28861 302.20264,167.06608 296.60662,166.16437 293.76319,174.98188 288.54626,177.19824 269.63803,185.2312 248.06997,184.28374 227.7533,187.3304 225.55574,187.65994 222.02375,186.17029 221.14537,188.21145 Z"
     id="path4582"
     inkscape:connector-curvature="0"
     sodipodi:nodetypes="aassscasssssaaa" />
  <path
     style="fill:#000000;stroke:none;stroke-width:1px;stroke-linecap:butt;stroke-linejoin:miter;stroke-opacity:1;fill-opacity:1"
     d="M 221.5859,256.05286 C 235.63643,247.79101 251.99889,244.02662 267.84141,240.19383 275.77391,238.27472 292.07048,236.6696 292.07048,236.6696 L 304.40529,236.22907 C 304.40529,236.22907 318.94273,246.36123 306.1674,249.0044 293.39207,251.64757 285.20115,249.49977 274.88987,251.20705 261.25587,253.46449 248.12776,258.11916 234.80176,261.77974 228.61668,263.47875 221.17041,271.23941 216.29956,267.06608 214.50151,265.52551 211.01322,265.30396 217.18062,260.01762 223.34802,254.73128 219.88292,257.05423 221.5859,256.05286 Z"
     id="path4584"
     inkscape:connector-curvature="0"
     sodipodi:nodetypes="aaccsaaasa" />
  <path
     style="fill:#000000;stroke:none;stroke-width:1px;stroke-linecap:butt;stroke-linejoin:miter;stroke-opacity:1;fill-opacity:1"
     d="M 147.13656,304.07048 C 153.29907,314.9154 161.60408,321.97342 166.51982,332.26432 176.29244,352.72291 182.81114,373.94673 185.90308,397.46256 186.92358,405.22401 176.09222,411.24025 176.65198,419.04846 177.59919,432.26137 194.71366,451.64758 197.35683,452.96916 200,454.29075 202.48431,446.96281 203.52423,443.27753 205.91732,434.79691 204.94135,425.45957 203.0837,416.84581 201.8358,411.05942 196.13244,406.46489 196.03524,400.54626 195.71009,380.74836 192.32904,370.967 192.07049,345.48018 192.07049,345.48018 187.21975,323.73851 179.29515,316.84581 172.2382,310.70777 164.2645,302.48851 154.62555,301.42731 151.9942,301.13761 145.82869,301.76887 147.13656,304.07048 Z"
     id="path4586"
     inkscape:connector-curvature="0"
     sodipodi:nodetypes="sasacaasssas" />
  <path
     style="fill:#000000;stroke:none;stroke-width:1px;stroke-linecap:butt;stroke-linejoin:miter;stroke-opacity:1;fill-opacity:1"
     d="M 203.52423,297.90308 C 207.06537,294.43915 213.18911,301.87932 218.06167,300.98678 254.21108,294.36504 293.35181,286.23687 330.95061,278.63074 333.26417,278.16272 337.88546,277.19824 337.88546,277.19824 L 344.58058,272.02473 C 344.58058,272.02473 352.29468,260.26387 357.26872,262.22026 362.99793,264.47367 367.12461,275.67465 377.09251,279.40088 380.53117,280.68633 384.15564,284.56871 383.70044,288.21145 382.97531,294.01428 371.02659,293.45984 370.04405,299.22467 362.84134,341.485 351.23109,383.05637 347.13656,421.69163 346.0232,432.19709 334.03743,444.96185 327.7533,433.14537 327.7533,433.14537 321.14537,422.13216 321.14537,416.84581 321.14537,411.55947 329.23782,391.1277 332.59912,378.0793 339.57609,350.99505 341.90099,327.55486 350.66079,296.14097 351.81073,292.01713 347.13656,288.21145 339.64758,289.53304 332.15859,290.85463 233.03965,316.84581 233.03965,316.84581 233.03965,316.84581 224.32917,320.33537 219.82379,319.92952 215.04204,319.49878 209.60601,317.9526 206.60793,314.20264 203.15496,309.88371 199.57138,301.76974 203.52423,297.90308 Z"
     id="path4588"
     inkscape:connector-curvature="0"
     sodipodi:nodetypes="asaccssassssasscaaa" />
  <path
     style="fill:#000000;stroke:none;stroke-width:1px;stroke-linecap:butt;stroke-linejoin:miter;stroke-opacity:1;fill-opacity:1"
     d="M 206.60793,365.30396 C 206.60793,365.30396 217.19611,377.20216 223.78855,375.87665 252.49998,370.1038 278.09215,359.66463 306.60793,354.29074 311.0533,353.453 318.74795,353.62546 319.82379,349.0044 320.7197,345.15618 315.1547,342.42567 311.89427,340.19383 308.13596,337.62118 303.52713,334.20291 299.11894,335.34802 269.67997,342.99534 242.9076,356.01012 216.74009,359.13656 212.81415,359.60562 204.96702,361.70668 206.60793,365.30396 Z"
     id="path4590"
     inkscape:connector-curvature="0"
     sodipodi:nodetypes="sssaasss" />
  <path
     style="fill:#000000;stroke:none;stroke-width:1px;stroke-linecap:butt;stroke-linejoin:miter;stroke-opacity:1;fill-opacity:1"
     d="M 248.01762,310.67841 C 248.01762,310.67841 252.18489,321.35053 252.86343,326.97798 254.65859,341.8661 250.60607,356.91604 250.6608,371.91189 250.6989,382.3542 251.46044,392.7915 252.42291,403.18943 252.84596,407.75976 250.73808,413.81506 254.18502,416.84581 256.50085,418.88202 261.03969,418.78651 263.43612,416.84581 272.76923,409.28759 268.63998,393.39386 270.92511,381.60353 273.67662,367.40685 278.41409,338.87225 278.41409,338.87225 L 271.80617,317.28634 C 271.80617,317.28634 261.12121,298.86828 252.86344,300.54626 249.19464,301.29176 248.01762,310.67841 248.01762,310.67841 Z"
     id="path4592"
     inkscape:connector-curvature="0"
     sodipodi:nodetypes="caaaaaaccac" />
  <path
     style="fill:#000000;stroke:none;stroke-width:1px;stroke-linecap:butt;stroke-linejoin:miter;stroke-opacity:1;fill-opacity:1"
     d="M 189.42731,419.48899 C 189.42731,419.48899 194.55547,434.54673 200.44053,433.5859 223.35777,429.84431 235.16499,425.9489 252.42291,421.69163 262.4515,419.21773 272.11597,414.93092 282.37885,413.76211 295.58559,412.25804 306.23297,411.85519 322.46696,415.96476 326.02577,416.86566 333.03965,419.04846 333.03965,419.04846 333.03965,419.04846 343.17181,419.04846 337.00441,411.11894 330.837,403.18943 326.95536,395.77791 319.38326,396.5815 289.92771,399.70746 259.84818,408.76779 229.95595,414.20264 222.92552,415.48088 215.95497,417.86226 208.81057,417.72687 203.71411,417.63029 198.67921,413.06408 193.8326,414.64317 191.75701,415.31943 188.91258,417.36756 189.42731,419.48899 Z"
     id="path4594"
     inkscape:connector-curvature="0"
     sodipodi:nodetypes="ssassccsaaas" />
</svg>
