<?xml version="1.0" encoding="UTF-8" standalone="no"?>
<!-- Created with Inkscape (http://www.inkscape.org/) -->

<svg
   xmlns:dc="http://purl.org/dc/elements/1.1/"
   xmlns:cc="http://creativecommons.org/ns#"
   xmlns:rdf="http://www.w3.org/1999/02/22-rdf-syntax-ns#"
   xmlns:svg="http://www.w3.org/2000/svg"
   xmlns="http://www.w3.org/2000/svg"
   xmlns:sodipodi="http://sodipodi.sourceforge.net/DTD/sodipodi-0.dtd"
   xmlns:inkscape="http://www.inkscape.org/namespaces/inkscape"
   width="512"
   height="512"
   viewBox="0 0 512 512"
   version="1.1"
   id="svg4545"
   inkscape:version="0.92.4 (5da689c313, 2019-01-14)"
   sodipodi:docname="U+632F.svg">
  <defs
     id="defs4539" />
  <sodipodi:namedview
     id="base"
     pagecolor="#ffffff"
     bordercolor="#666666"
     borderopacity="1.0"
     inkscape:pageopacity="0.0"
     inkscape:pageshadow="2"
     inkscape:zoom="1.63"
     inkscape:cx="300.30675"
     inkscape:cy="264.73777"
     inkscape:document-units="px"
     inkscape:current-layer="layer1"
     showgrid="false"
     units="px"
     inkscape:window-width="1920"
     inkscape:window-height="1017"
     inkscape:window-x="-8"
     inkscape:window-y="-8"
     inkscape:window-maximized="1" />
  <metadata
     id="metadata4542">
    <rdf:RDF>
      <cc:Work
         rdf:about="">
        <dc:format>image/svg+xml</dc:format>
        <dc:type
           rdf:resource="http://purl.org/dc/dcmitype/StillImage" />
        <dc:title></dc:title>
      </cc:Work>
    </rdf:RDF>
  </metadata>
  <g
     inkscape:label="圖層 1"
     inkscape:groupmode="layer"
     id="layer1"
     transform="translate(0,-161.53331)">
    <path
       style="fill:#000000;stroke:none;stroke-width:1px;stroke-linecap:butt;stroke-linejoin:miter;stroke-opacity:1;fill-opacity:1"
       d="M 14.473684,327.48068 C 30.209745,352.17474 25.138332,341.52942 30.86764,348.22737 34.453299,352.41925 33.519668,355.95612 42.105263,360.37541 45.620383,362.18476 48.634562,362.67117 51.973684,362.3491 65.188506,361.07448 76.490192,352.15065 88.81579,347.21752 101.70847,342.05742 114.25226,335.80638 127.63158,332.08594 133.84915,330.35699 145.08679,335.04234 146.71053,328.79647 148.55462,321.70297 136.93429,315.04185 129.60526,314.98068 104.47199,314.77092 83.906884,317.61363 61.184211,320.24384 45.532782,322.05553 6.2030757,314.5019 14.473684,327.48068 Z"
       id="path4558"
       inkscape:connector-curvature="0"
       sodipodi:nodetypes="sasaaaasas" />
    <path
       style="fill:#000000;stroke:none;stroke-width:1px;stroke-linecap:butt;stroke-linejoin:miter;stroke-opacity:1;fill-opacity:1"
       d="M 14.473684,478.13857 C 34.890766,458.01821 55.724949,439.51692 76.973684,420.90173 92.898172,406.95091 109.01912,393.20295 125.65789,380.11226 134.65486,373.03381 141.06383,365.1562 153.28947,359.71753 163.63312,355.11608 142.16473,379.49451 135.52632,388.66489 121.20167,408.45313 104.63388,426.54953 88.157895,444.58594 74.666072,459.35557 59.361289,472.41421 46.052632,487.3491 39.308148,494.91772 37.599391,501.94857 26.973684,511.03331 20.998655,516.14182 9.2226134,506.5945 6.5789474,499.1912 4.0585074,492.13298 9.1354554,483.39922 14.473684,478.13857 Z"
       id="path4560"
       inkscape:connector-curvature="0"
       sodipodi:nodetypes="saasaaasas" />
    <path
       style="fill:#000000;stroke:none;stroke-width:1px;stroke-linecap:butt;stroke-linejoin:miter;stroke-opacity:1;fill-opacity:1"
       d="M 230.26316,275.50699 C 260.66949,258.05192 287.72956,258.03005 323.02632,244.58594 327.23125,242.98433 328.08617,236.45492 332.23684,234.71752 339.72435,231.58337 348.81045,233.02253 356.57895,235.37541 365.25552,238.00332 374.95898,242.06445 379.60526,249.8491 381.29488,252.67999 383.48544,259.02064 380.26316,259.71752 357.87417,264.55958 358.73409,260.57555 348.02632,261.6912 334.57711,263.09248 321.01853,264.35484 307.89474,267.61226 293.21958,271.25474 278.69212,276.05505 265.13158,282.74384 260.44017,285.0579 251.97368,291.29647 251.97368,291.29647 251.97368,291.29647 245.77966,298.40477 242.76316,296.55963 233.16899,290.69104 226.67321,291.39602 222.36842,282.74384 220.7782,279.54767 227.16712,277.28431 230.26316,275.50699 Z"
       id="path4562"
       inkscape:connector-curvature="0"
       sodipodi:nodetypes="ssaaasaaacsss" />
    <path
       style="fill:#000000;stroke:none;stroke-width:1px;stroke-linecap:butt;stroke-linejoin:miter;stroke-opacity:1;fill-opacity:1"
       d="M 201.97368,315.63857 C 202.93224,325.85376 211.64739,334.41564 212.23196,344.65904 213.1023,359.90978 205.22002,374.39617 201.97368,389.32278 196.64499,413.82397 193.77273,438.9099 186.84211,463.00699 180.95365,483.48058 164.47368,522.87542 164.47368,522.87542 164.47368,522.87542 146.55792,557.07971 134.5273,572.02259 125.30814,583.47344 113.23245,592.29558 102.63158,602.48068 96.033252,608.82022 90.54047,616.53266 82.894737,621.55963 75.748387,626.25827 72.421132,622.91967 59.210526,631.42805 50.176477,637.24649 81.192234,634.63748 91.447368,631.42805 103.92945,627.52167 113.97006,617.81734 123.68421,609.05963 135.92719,598.02207 146.877,585.3409 155.92105,571.55963 164.74636,558.11168 170.88198,543.02564 176.97368,528.13857 184.24862,510.35985 190.64682,492.14688 195.39474,473.53331 201.33852,450.2315 201.6762,425.71068 207.89474,402.48068 210.48066,392.82069 212.55704,382.57646 218.15302,374.28867 220.19996,371.25711 224.78561,370.27684 226.31579,366.95436 230.07813,358.78521 228.52412,348.83993 226.97368,339.98068 226.16243,335.34518 224.77671,331.02225 221.85672,326.82278 219.47416,323.39622 216.2992,317.47584 212.49768,313.66613 209.83295,310.99566 207.39711,305.98862 203.28947,307.08594 200.50277,307.83038 201.7042,312.76677 201.97368,315.63857 Z"
       id="path4564"
       inkscape:connector-curvature="0"
       sodipodi:nodetypes="aaaacaaasaaaaaaaaasasa" />
    <path
       style="fill:#000000;stroke:none;stroke-width:1px;stroke-linecap:butt;stroke-linejoin:miter;stroke-opacity:1;fill-opacity:1"
       d="M 261.18421,341.29647 C 267.26613,356.50666 272.01698,369.83176 282.38304,367.1493 304.48009,361.43117 305.29284,357.21476 317.44639,354.79549 320.23855,354.23969 323.90772,352.37476 325.97466,354.33253 328.52209,356.74543 326.06677,361.35128 325.97466,364.85884 325.81216,371.0462 323.62864,377.36607 325,383.40173 326.21762,388.76074 327.59172,396.43334 332.89474,397.87542 335.36255,398.54651 337.95263,395.98399 339.47368,393.92805 344.38159,387.29423 342.98894,377.78118 345.44347,369.90271 347.90916,361.98843 348.62501,352.75343 354.2154,346.63273 361.3787,338.7899 375.7609,340.61347 382.89474,332.74384 385.87705,329.45394 390.58343,323.43916 387.5,320.24384 377.48235,309.86267 368.59483,308.58349 352.63158,304.45436 347.56718,303.14438 342.94092,309.93912 339.93664,314.39588 338.29281,316.83446 340.35299,321.11078 337.5,322.87542 321.35587,332.86094 307.34837,332.88942 292.10526,337.3491 285.57036,339.26102 279.15975,342.12417 272.36842,342.61226 268.6243,342.88135 259.79052,337.811 261.18421,341.29647 Z"
       id="path4566"
       inkscape:connector-curvature="0"
       sodipodi:nodetypes="ssaaaaaaaaassasaas" />
    <path
       style="fill:#000000;stroke:none;stroke-width:1px;stroke-linecap:butt;stroke-linejoin:miter;stroke-opacity:1;fill-opacity:1"
       d="M 375.58479,365.44364 C 374.20028,375.15274 374.33402,385.44203 370.32164,394.39101 364.86963,406.55086 354.7119,416.06938 345.71151,425.89685 336.59446,435.8517 326.80375,445.2954 316.10624,453.52843 309.43968,458.65916 302.05003,462.79687 294.73684,466.95436 285.86953,471.99536 276.68173,476.45947 267.49512,480.89199 260.59408,484.22172 258.38462,480.69866 246.56433,490.3949 242.84579,493.44524 257.14967,492.98159 262.5,492.61226 276.14338,491.67046 289.56484,487.17691 301.97368,481.42805 317.3159,474.3202 330.89417,463.72474 344.07895,453.13857 361.07917,439.48895 376.41684,423.82752 391.423,408.01187 395.71672,403.48653 402.72065,399.98119 403.60624,393.80621 404.7777,385.6379 398.5804,377.68295 393.42105,371.24286 388.96337,365.67863 382.84968,355.54867 376.31579,358.40173 374.15306,359.3461 375.91794,363.10736 375.58479,365.44364 Z"
       id="path4568"
       inkscape:connector-curvature="0"
       sodipodi:nodetypes="aaaaaasaaaaaaaa" />
    <path
       style="fill:#000000;stroke:none;stroke-width:1px;stroke-linecap:butt;stroke-linejoin:miter;stroke-opacity:1;fill-opacity:1"
       d="M 351.31579,484.71752 C 365.85428,503.23385 370.77769,510.7562 381.57895,522.87542 393.5471,536.30391 405.8616,549.5861 419.73684,561.03331 427.29055,567.2652 434.63049,574.90743 444.07895,577.48068 447.47102,578.4045 451.11832,577.27091 454.60526,576.82278 464.8004,575.51254 474.61532,571.63079 484.86842,570.90173 493.41072,570.29432 498.76693,571.62779 510.52632,572.21752 513.40712,572.36199 509.21053,563.66489 509.21053,563.66489 509.21053,563.66489 494.83426,556.43888 487.5,553.13857 471.26313,545.83222 438.18226,532.622 438.18226,532.622 428.54706,528.94316 416.38871,522.36071 397.36842,510.37542 385.7254,503.03878 381.22782,496.81697 361.91521,483.54793 359.16214,481.65639 349.25299,482.09033 351.31579,484.71752 Z"
       id="path4570"
       inkscape:connector-curvature="0"
       sodipodi:nodetypes="saaaaascacsss" />
    <path
       style="fill:#000000;stroke:none;stroke-width:1px;stroke-linecap:butt;stroke-linejoin:miter;stroke-opacity:1;fill-opacity:1"
       d="M 88.343558,219.54558 C 93.157848,223.94483 98.257111,228.46343 101.22699,234.26951 103.71194,239.12757 104.90798,250.22043 104.90798,250.22043 104.90798,250.22043 103.68098,271.69282 103.68098,274.7603 103.68098,277.82779 99.386503,315.8646 99.386503,315.8646 L 91.411043,367.39834 87.116564,409.11613 77.300613,477.82779 C 77.300613,477.82779 75.246055,522.51672 71.165644,544.69895 69.74235,552.43636 51.273038,540.37308 43.558282,534.26951 35.240324,527.68871 31.367079,516.89653 25.766871,507.88914 24.025807,505.08881 24.143643,499.58931 20.858896,499.30018 17.676824,499.02009 15.316211,503.52315 14.723926,506.66214 13.285072,514.28777 18.676439,521.77693 22.08589,528.74803 26.621158,538.02102 33.087829,546.24361 39.263804,554.5149 43.086157,559.63406 47.683525,564.1406 51.533742,569.23883 60.934161,581.68632 67.050464,596.69588 77.91411,607.88914 81.788511,611.88109 91.411043,617.70509 91.411043,617.70509 91.411043,617.70509 92.516892,608.72406 92.638037,604.20815 92.934375,593.16161 92.991348,582.01625 91.411043,571.07932 89.992441,561.2615 85.449521,552.0654 84.04908,542.24497 83.182484,536.16807 83.270369,529.97621 83.435583,523.84005 84.004662,502.70406 86.984835,481.70134 88.957055,460.64987 91.449184,434.04889 93.639887,407.40906 96.932515,380.89527 99.505857,360.17351 102.64696,339.51963 106.13497,318.93208 109.056,301.69102 110.77027,284.10006 115.95092,267.39834 119.72183,255.24144 132.80902,245.06617 131.28834,232.42902 130.24261,223.73877 122.02519,217.21704 115.33742,211.57012 111.9826,208.73743 108.06734,205.63198 103.68098,205.43515 95.713537,205.07762 82.526116,206.71667 81.595092,214.6376 81.270392,217.40007 86.290233,217.66927 88.343558,219.54558 Z"
       id="path4572"
       inkscape:connector-curvature="0"
       sodipodi:nodetypes="aacsccccsaaaaaaaacaaaaaaaaaaaaa" />
    <path
       style="fill:#000000;stroke:none;stroke-width:1px;stroke-linecap:butt;stroke-linejoin:miter;stroke-opacity:1;fill-opacity:1"
       d="M 250.92025,418.31859 C 252.44166,424.16615 261.4425,425.64855 267.48466,425.68055 277.28555,425.73246 285.42195,417.77092 294.47853,414.02411 304.23364,409.98831 314.00702,405.98099 323.92638,402.36767 326.9645,401.26097 329.92495,399.73619 333.12883,399.30018 341.04183,398.22332 349.48863,403.08102 357.05521,400.52718 360.35483,399.41351 364.77023,397.25145 365.03067,393.77871 365.35581,389.44318 360.11737,386.28485 356.44172,383.96276 349.43601,379.5369 340.60298,375.40921 332.51534,377.21429 328.55362,378.0985 326.76661,383.05695 323.31289,385.18976 306.93046,395.30653 287.45633,399.28417 269.93865,407.27565 264.11426,409.9327 252.76074,415.8646 252.76074,415.8646 252.76074,415.8646 250.66279,417.32904 250.92025,418.31859 Z"
       id="path4574"
       inkscape:connector-curvature="0"
       sodipodi:nodetypes="aaaaaaaaaaaca" />
    <path
       style="fill:#000000;stroke:none;stroke-width:1px;stroke-linecap:butt;stroke-linejoin:miter;stroke-opacity:1;fill-opacity:1"
       d="M 235.58282,388.87073 C 235.85728,399.67285 249.69921,406.44286 251.53375,417.09159 252.94362,425.27531 248.92482,433.50006 247.23926,441.63147 245.10491,451.92789 241.51269,461.91896 239.8773,472.30632 239.04794,477.57411 238.65031,488.25724 238.65031,488.25724 238.65031,488.25724 242.57215,503.27838 243.55828,510.95662 244.78375,520.4984 244.58073,530.173 244.78528,539.79098 245.04182,551.85369 244.78528,575.9873 244.78528,575.9873 246.35192,590.42683 262.57669,604.82166 262.57669,604.82166 268.7483,612.24363 279.57178,596.37785 287.11656,590.71122 299.37477,581.50449 310.82531,570.9044 320.2454,558.80938 325.3108,552.30561 329.42134,551.92743 332.51534,537.33699 333.02617,534.92806 334.35971,530.39509 331.90184,529.36153 324.27475,526.15427 319.69673,540.61798 312.88344,545.31245 302.85713,552.22074 292.08578,558.109 280.9816,563.10386 273.07788,566.65909 256.44172,571.69282 256.44172,571.69282 L 251.53374,559.42288 253.37423,517.70509 249.07975,487.64374 251.53374,472.30632 265.64417,427.52104 271.16564,414.6376 C 271.16564,414.6376 259.35546,398.29739 252.14724,391.32472 248.26674,387.57103 255.82822,391.93822 239.2638,381.50877 237.66832,380.50421 235.51313,386.12798 235.58282,388.87073 Z"
       id="path4576"
       inkscape:connector-curvature="0"
       sodipodi:nodetypes="aaaacaassaasaaacccccccasa" />
  </g>
</svg>
