<?xml version="1.0" encoding="UTF-8" standalone="no"?>
<!-- Created with Inkscape (http://www.inkscape.org/) -->

<svg
   xmlns:dc="http://purl.org/dc/elements/1.1/"
   xmlns:cc="http://creativecommons.org/ns#"
   xmlns:rdf="http://www.w3.org/1999/02/22-rdf-syntax-ns#"
   xmlns:svg="http://www.w3.org/2000/svg"
   xmlns="http://www.w3.org/2000/svg"
   xmlns:sodipodi="http://sodipodi.sourceforge.net/DTD/sodipodi-0.dtd"
   xmlns:inkscape="http://www.inkscape.org/namespaces/inkscape"
   width="574"
   height="540"
   viewBox="0 0 574 540"
   version="1.1"
   id="svg5717"
   inkscape:version="0.92.4 (5da689c313, 2019-01-14)"
   sodipodi:docname="U+7891.svg">
  <defs
     id="defs5711" />
  <sodipodi:namedview
     id="base"
     pagecolor="#ffffff"
     bordercolor="#666666"
     borderopacity="1.0"
     inkscape:pageopacity="0.0"
     inkscape:pageshadow="2"
     inkscape:zoom="1.33"
     inkscape:cx="277.81955"
     inkscape:cy="293.77889"
     inkscape:document-units="px"
     inkscape:current-layer="layer1"
     showgrid="false"
     units="px"
     inkscape:window-width="1920"
     inkscape:window-height="1017"
     inkscape:window-x="-8"
     inkscape:window-y="-8"
     inkscape:window-maximized="1" />
  <metadata
     id="metadata5714">
    <rdf:RDF>
      <cc:Work
         rdf:about="">
        <dc:format>image/svg+xml</dc:format>
        <dc:type
           rdf:resource="http://purl.org/dc/dcmitype/StillImage" />
        <dc:title></dc:title>
      </cc:Work>
    </rdf:RDF>
  </metadata>
  <g
     inkscape:label="圖層 1"
     inkscape:groupmode="layer"
     id="layer1"
     transform="translate(0,-154.12498)">
    <path
       style="fill:#000000;stroke:none;stroke-width:1px;stroke-linecap:butt;stroke-linejoin:miter;stroke-opacity:1;fill-opacity:1"
       d="M 118.79699,282.0949 C 120.20604,294.45817 139.43769,299.56747 151.8797,299.38814 159.06018,299.28465 164.03424,291.5909 170.67669,288.86182 184.62466,283.13124 199.49189,279.75207 214.28571,276.83175 222.4592,275.21829 235.33835,273.82423 239.09774,273.82423 242.85714,273.82423 254.51933,280.20186 262.40602,279.08739 268.0704,278.28695 276.28773,276.41937 277.44361,270.81671 278.59838,265.21942 271.8604,260.15147 266.91729,257.28287 257.72054,251.94579 245.93895,251.93986 235.33835,252.7716 231.9399,253.03825 225.56391,255.77912 225.56391,255.77912 225.56391,255.77912 183.23728,268.0311 161.65414,272.32047 149.24332,274.78696 135.59395,272.37945 124.06015,277.58363 121.95396,278.53396 118.53534,279.7991 118.79699,282.0949 Z"
       id="path5730"
       inkscape:connector-curvature="0"
       sodipodi:nodetypes="aaaasaaaacaaa" />
    <path
       style="fill:#000000;stroke:none;stroke-width:1px;stroke-linecap:butt;stroke-linejoin:miter;stroke-opacity:1;fill-opacity:1"
       d="M 159.3985,323.44829 C 154.82415,331.18075 152.60167,340.0868 148.87218,348.26032 138.2169,371.61236 128.66572,395.68178 115.03759,417.43325 104.89567,433.62047 91.739358,447.71632 79.699248,462.54603 66.693643,478.56494 54.695525,495.5844 39.849624,509.91445 29.316425,520.08165 23.113889,519.87893 5.2631579,536.98212 2.1654765,539.95008 13.875799,539.49644 18.045113,538.48588 32.434539,534.99817 43.750513,523.43057 54.887218,513.67385 70.245049,500.21906 83.08587,484.02843 95.488722,467.80919 107.69188,451.8511 119.20211,435.20384 128.57143,417.43325 138.42617,398.74198 143.98997,378.0688 152.63158,358.78663 157.07821,348.8648 163.06533,339.63081 166.91729,329.46333 168.57606,325.08492 173.12886,319.91808 170.67669,315.92949 169.85293,314.5896 167.52556,314.46018 166.04974,315.0041 162.68777,316.24318 161.22282,320.36446 159.3985,323.44829 Z"
       id="path5732"
       inkscape:connector-curvature="0"
       sodipodi:nodetypes="aaaaasaaaaaaaaa" />
    <path
       style="fill:#000000;stroke:none;stroke-width:1px;stroke-linecap:butt;stroke-linejoin:miter;stroke-opacity:1;fill-opacity:1"
       d="M 140.6015,427.20769 C 141.48868,446.6977 147.90683,455.71149 151.12782,470.06483 154.43188,484.78837 153.00852,501.13312 160.15038,514.42573 162.49893,518.79692 168.80538,529.54783 170.67669,524.95205 170.67669,524.95205 168.17146,509.46149 167.66917,501.64378 166.60858,485.13646 167.66917,468.56107 167.66917,452.01972 167.66917,446.00468 169.97103,439.53177 167.66917,433.9746 165.6346,429.06271 161.53759,424.03003 156.39098,422.69641 151.09222,421.32336 140.35259,421.73958 140.6015,427.20769 Z"
       id="path5734"
       inkscape:connector-curvature="0"
       sodipodi:nodetypes="saasaaaas" />
    <path
       style="fill:#000000;stroke:none;stroke-width:1px;stroke-linecap:butt;stroke-linejoin:miter;stroke-opacity:1;fill-opacity:1"
       d="M 166.16541,408.41069 C 171.46378,412.46806 176.08414,418.8669 182.70677,419.68889 190.65408,420.6753 197.60833,413.77114 205.26316,411.41821 210.20191,409.90015 215.84963,405.03521 220.30075,407.65881 223.6526,409.63447 223.25086,415.04666 223.30827,418.93701 223.43744,427.69007 217.44071,435.74815 217.29323,444.50092 217.22864,448.33423 219.54887,455.77912 219.54887,455.77912 L 226.31579,467.80919 C 226.31579,467.80919 227.98757,468.28293 228.57143,467.80919 232.35027,464.74306 230.41442,458.24837 231.57895,453.52348 234.88256,440.11964 235.8711,425.58066 242.85714,413.67385 245.36825,409.39398 252.24339,407.97695 253.38346,403.14754 254.6581,397.74809 251.75527,391.54921 248.1203,387.35806 242.97968,381.43088 234.86121,375.92722 227.06767,376.83175 221.23446,377.50877 218.73486,385.38341 213.53383,388.10994 201.09335,394.6316 186.28809,395.03826 172.93233,399.38814 168.86016,400.71442 161.64761,399.68207 160.90226,403.89942 160.50012,406.17482 164.33087,407.00584 166.16541,408.41069 Z"
       id="path5736"
       inkscape:connector-curvature="0"
       sodipodi:nodetypes="aaaaaaccaaaaaaaaaa" />
    <path
       style="fill:#000000;stroke:none;stroke-width:1px;stroke-linecap:butt;stroke-linejoin:miter;stroke-opacity:1;fill-opacity:1"
       d="M 301.50376,267.80919 C 301.98496,277.07327 313.64505,281.89929 318.79699,289.6137 323.09617,296.0512 327.52195,302.60657 330.07519,309.91446 334.60063,322.86718 333.59943,337.18413 336.84211,350.51596 338.77149,358.44835 338.92834,367.73058 344.3609,373.82423 346.37612,376.08469 349.92174,378.93551 352.63158,377.58363 356.76687,375.52062 355.54942,368.67025 355.6391,364.04979 356.01975,344.43885 349.56684,325.25729 345.11278,306.15506 343.45548,299.04736 343.16774,291.16057 339.09774,285.10242 336.60931,281.39842 332.23592,279.37801 328.57143,276.83175 324.22969,273.8149 319.11952,271.92112 315.03759,268.56107 311.88761,265.96815 310.83118,259.18153 306.76692,259.53851 303.51168,259.82443 301.33425,264.54582 301.50376,267.80919 Z"
       id="path5738"
       inkscape:connector-curvature="0"
       sodipodi:nodetypes="aaaaaaaaaaaaa" />
    <path
       style="fill:#000000;stroke:none;stroke-width:1px;stroke-linecap:butt;stroke-linejoin:miter;stroke-opacity:1;fill-opacity:1"
       d="M 351.12782,249.76408 C 349.55497,256.4639 356.02548,264.47852 362.40602,267.05731 370.74856,270.42907 380.03406,263.38532 388.7218,261.04227 408.23841,255.77872 427.08412,248.20172 446.61654,242.99716 453.31482,241.21235 460.2131,236.72342 466.91729,238.48588 470.17832,239.34317 475.00322,241.929 474.43609,245.2528 467.85919,283.79843 460.50496,312.77488 448.87218,356.531 447.48959,361.73153 451.78426,368.03549 456.39098,370.81671 458.7511,372.24159 462.562,372.6033 464.66165,370.81671 471.81637,364.72875 467.35785,352.21447 469.17293,342.99716 474.74059,314.72353 483.55424,289.07538 488.7218,258.78663 489.23458,255.78105 494.82408,261.16698 497.74436,260.29039 502.33042,258.91378 510.82418,254.56647 508.27068,250.51596 499.18067,236.09684 493.87868,227.25294 481.95489,222.69641 465.04018,216.23266 445.70417,224.37438 427.81955,227.20769 406.20409,230.63205 384.22217,234.09908 363.90977,242.24528 359.32185,244.08525 352.25756,244.95178 351.12782,249.76408 Z"
       id="path5740"
       inkscape:connector-curvature="0"
       sodipodi:nodetypes="aaaaassaaasasaaaa" />
    <path
       style="fill:#000000;stroke:none;stroke-width:1px;stroke-linecap:butt;stroke-linejoin:miter;stroke-opacity:1;fill-opacity:1"
       d="M 363.90977,314.42573 C 358.54339,318.51742 374.66046,326.60585 381.20301,324.95205 407.88269,318.20806 434.58647,303.14754 434.58647,303.14754 434.58647,303.14754 440.35309,302.36788 440.6015,300.14002 441.39095,293.05975 430.32691,283.21779 424.06015,286.60618 401.39342,298.8619 383.96072,299.13755 363.90977,314.42573 Z"
       id="path5742"
       inkscape:connector-curvature="0"
       sodipodi:nodetypes="sscass" />
    <path
       style="fill:#000000;stroke:none;stroke-width:1px;stroke-linecap:butt;stroke-linejoin:miter;stroke-opacity:1;fill-opacity:1"
       d="M 275.93985,414.42573 C 270.4452,424.89326 284.39679,438.76997 294.73684,444.50092 299.55943,447.17383 311.2782,444.50092 311.2782,444.50092 311.2782,444.50092 312.63977,456.0566 312.03008,461.79415 310.77108,473.6421 308.73831,485.93471 303.00752,496.38062 298.40138,504.77654 290.76975,511.24813 283.45865,517.43325 274.75529,524.7962 264.60292,530.26646 254.88722,536.23024 251.44308,538.34435 244.3609,542.24528 244.3609,542.24528 244.3609,542.24528 257.98617,540.15903 264.66165,538.48588 275.88676,535.67241 288.0399,534.26372 297.74436,527.95957 310.39847,519.73929 320.5655,507.3567 327.81955,494.12498 336.21023,478.81999 336.47552,460.27031 342.10526,443.74904 343.84657,438.63892 349.34443,433.96949 348.1203,428.71145 347.35574,425.42744 343.63544,423.41576 340.6015,421.94453 325.95719,414.84316 308.72483,414.68868 292.4812,413.67385 286.97246,413.32969 278.5052,409.53864 275.93985,414.42573 Z"
       id="path5744"
       inkscape:connector-curvature="0"
       sodipodi:nodetypes="aacaaaacaaaaaaaa" />
    <path
       style="fill:#000000;stroke:none;stroke-width:1px;stroke-linecap:butt;stroke-linejoin:miter;stroke-opacity:1;fill-opacity:1"
       d="M 400.75188,419.68889 C 410.52632,420.44077 433.83459,426.45581 433.83459,426.45581 433.83459,426.45581 438.34586,574.57611 438.34586,577.58363 438.34586,580.59115 436.84211,646.75656 436.84211,646.75656 436.84211,646.75656 427.81955,637.12693 427.81955,640.74152 427.81955,658.78664 426.52918,652.91164 427.81955,658.78664 429.35915,665.79641 431.84719,673.18206 436.84211,678.33551 439.96241,681.55484 444.80789,686.24313 448.87218,684.35054 454.7135,681.63046 453.21455,671.99492 453.38346,665.55355 453.56386,658.67395 449.85049,652.13104 449.62406,645.2528 447.84254,591.13679 446.74013,534.98609 446.61654,479.83927 446.57554,461.54186 445.00845,443.09668 447.36842,424.95205 447.76826,421.87786 450.90246,418.75371 449.62406,415.92949 445.78747,407.45377 434.10195,403.65211 424.81203,403.14754 414.35497,402.57958 402.92587,401.17388 395.48872,414.42573 394.27445,416.58936 400.75188,419.68889 400.75188,419.68889 Z"
       id="path5746"
       inkscape:connector-curvature="0"
       sodipodi:nodetypes="ccscsaaaasaaaasc" />
    <path
       style="fill:#000000;stroke:none;stroke-width:1px;stroke-linecap:butt;stroke-linejoin:miter;stroke-opacity:1;fill-opacity:1"
       d="M 157.89474,479.83927 C 156.86334,485.95817 165.362,491.31679 171.42857,492.62122 184.9117,495.52036 197.07648,482.13723 210.52632,479.08739 223.5634,476.13114 238.77496,481.21856 250.37594,474.57611 252.55091,473.33077 255.36901,471.02059 254.88722,468.56107 253.7635,462.82453 245.58294,460.67855 239.84962,459.53851 228.16893,457.21586 216.17851,462.4123 204.51128,464.80167 193.85118,466.98479 183.19258,469.44866 172.93233,473.07235 167.74941,474.90284 158.80837,474.41906 157.89474,479.83927 Z"
       id="path5748"
       inkscape:connector-curvature="0"
       sodipodi:nodetypes="aaaaaaaaa" />
    <path
       style="fill:#000000;stroke:none;stroke-width:1px;stroke-linecap:butt;stroke-linejoin:miter;stroke-opacity:1;fill-opacity:1"
       d="M 259.3985,479.83926 C 254.79738,488.69304 276.50344,492.07021 286.46617,492.62122 304.19292,493.60163 319.78947,480.26827 336.84211,475.32799 361.83263,468.08804 387.2694,462.38707 412.78195,457.28287 435.69009,452.69973 458.68526,448.08132 481.95489,446.00468 497.18464,444.64554 512.54387,444.58482 527.81955,445.2528 539.90317,445.78119 553.5559,455.26443 563.90977,449.0122 566.22049,447.61686 567.411,444.1472 566.91729,441.4934 566.04152,436.78596 561.06485,433.71389 557.14286,430.96709 547.11528,423.94419 535.54383,417.08695 523.30827,416.68137 509.52455,416.22447 497.51925,426.59888 484.21053,430.21521 459.54588,436.91724 433.967,439.68172 409.02256,445.2528 388.61491,449.81064 368.76153,456.94586 348.1203,460.29039 332.48509,462.82379 316.20241,460.56283 300.75188,464.04979 286.3588,467.2981 268.23301,462.83933 259.3985,479.83926 Z"
       id="path5750"
       inkscape:connector-curvature="0"
       sodipodi:nodetypes="saaaaaaaaaaaaas" />
    <path
       style="fill:#000000;stroke:none;stroke-width:1px;stroke-linecap:butt;stroke-linejoin:miter;stroke-opacity:1;fill-opacity:1"
       d="M 324.06015,376.07987 C 318.2827,378.50467 331.57895,390.36558 335.33835,391.11746 339.09774,391.86934 348.44625,392.88852 354.88722,391.86934 372.82197,389.03145 388.40869,377.5137 406.01504,373.07235 416.32524,370.47152 427.00376,367.60615 437.59398,368.56107 443.11942,369.0593 447.84569,374.15863 453.38346,373.82423 458.643,373.50663 467.46696,372.32255 467.66917,367.05731 468.13444,354.94255 450.83662,346.05655 436.09023,349.0122 410.95611,354.04988 389.2417,363.11112 365.41353,368.56107 351.75576,371.68486 347.9721,366.044 324.06015,376.07987 Z"
       id="path5752"
       inkscape:connector-curvature="0"
       sodipodi:nodetypes="ssaaaaasas" />
    <path
       style="fill:#000000;stroke:none;stroke-width:1px;stroke-linecap:butt;stroke-linejoin:miter;stroke-opacity:1;fill-opacity:1"
       d="M 386.46617,259.53852 C 383.79257,249.34199 393.33389,273.18317 394.73684,280.59115 398.0946,298.32111 395.15615,316.68624 394.73684,334.72648 394.48615,345.51216 385.78372,359.25341 393.23308,367.05731 395.30973,369.23279 399.30239,367.62605 402.25564,367.05731 404.90627,366.54685 408.20837,366.24838 409.77444,364.04979 415.8884,355.46644 411.08414,343.0073 411.2782,332.47085 411.70743,309.16518 413.34404,287.12484 410.52631,262.54603 409.45635,253.21284 390.97744,242.24528 390.97744,242.24528 388.18611,240.28849 386.46617,259.53852 386.46617,259.53852 Z"
       id="path5754"
       inkscape:connector-curvature="0"
       sodipodi:nodetypes="saaaaaasss" />
    <path
       style="fill:#000000;stroke:none;stroke-width:1px;stroke-linecap:butt;stroke-linejoin:miter;stroke-opacity:1;fill-opacity:1"
       d="M 368.42105,167.05731 C 380.40174,160.12587 396.23147,163.30044 409.77444,170.81671 420.65444,176.85505 396.7994,188.38979 388.7218,195.62874 372.05293,210.56697 328.83714,252.30666 333.0827,233.22273 333.0827,233.22273 345.75487,214.55156 351.12782,204.6513 357.70723,192.52801 356.48168,173.96485 368.42105,167.05731 Z"
       id="path6299"
       inkscape:connector-curvature="0"
       sodipodi:nodetypes="asasaa" />
  </g>
</svg>
