<?xml version="1.0" encoding="UTF-8" standalone="no"?>
<!-- Created with Inkscape (http://www.inkscape.org/) -->

<svg
   xmlns:dc="http://purl.org/dc/elements/1.1/"
   xmlns:cc="http://creativecommons.org/ns#"
   xmlns:rdf="http://www.w3.org/1999/02/22-rdf-syntax-ns#"
   xmlns:svg="http://www.w3.org/2000/svg"
   xmlns="http://www.w3.org/2000/svg"
   xmlns:sodipodi="http://sodipodi.sourceforge.net/DTD/sodipodi-0.dtd"
   xmlns:inkscape="http://www.inkscape.org/namespaces/inkscape"
   width="512"
   height="512"
   viewBox="0 0 512 512"
   version="1.1"
   id="svg5127"
   inkscape:version="0.92.4 (5da689c313, 2019-01-14)"
   sodipodi:docname="U+797F.svg">
  <defs
     id="defs5121" />
  <sodipodi:namedview
     id="base"
     pagecolor="#ffffff"
     bordercolor="#666666"
     borderopacity="1.0"
     inkscape:pageopacity="0.0"
     inkscape:pageshadow="2"
     inkscape:zoom="1.52"
     inkscape:cx="293.09211"
     inkscape:cy="269.34313"
     inkscape:document-units="px"
     inkscape:current-layer="layer1"
     showgrid="false"
     units="px"
     inkscape:window-width="1920"
     inkscape:window-height="1017"
     inkscape:window-x="-8"
     inkscape:window-y="-8"
     inkscape:window-maximized="1" />
  <metadata
     id="metadata5124">
    <rdf:RDF>
      <cc:Work
         rdf:about="">
        <dc:format>image/svg+xml</dc:format>
        <dc:type
           rdf:resource="http://purl.org/dc/dcmitype/StillImage" />
        <dc:title></dc:title>
      </cc:Work>
    </rdf:RDF>
  </metadata>
  <g
     inkscape:label="圖層 1"
     inkscape:groupmode="layer"
     id="layer1"
     transform="translate(0,-161.53331)">
    <path
       style="fill:#000000;stroke:none;stroke-width:1px;stroke-linecap:butt;stroke-linejoin:miter;stroke-opacity:1;fill-opacity:1"
       d="M 130.98592,254.51922 C 136.9308,263.33888 149.96722,265.56947 160.56338,266.49106 167.26008,267.0735 174.79181,266.14465 180.28169,262.2657 183.20809,260.19801 188.63412,255.44492 185.91549,253.11077 172.95212,241.98074 173.65479,242.72104 156.33803,239.02627 156.33803,239.02627 141.98521,241.97229 130.98592,249.58965 129.63504,250.52518 130.06749,253.15666 130.98592,254.51922 Z"
       id="path5140"
       inkscape:connector-curvature="0"
       sodipodi:nodetypes="aaasssa" />
    <path
       style="fill:#000000;stroke:none;stroke-width:1px;stroke-linecap:butt;stroke-linejoin:miter;stroke-opacity:1;fill-opacity:1"
       d="M 21.830986,381.98401 C 21.830986,381.98401 41.462188,397.83606 53.280208,398.45918 75.807099,399.64696 94.869477,380.88183 116.19718,373.53331 134.21306,367.32589 152.34068,361.07844 171.0341,357.38246 184.49354,354.72131 187.8554,361.21465 211.97183,353.11077 216.22297,351.68225 222.84877,347.39258 221.12676,343.25162 221.12676,343.25162 211.5723,337.34226 206.19903,336.07037 195.97843,333.6511 184.72779,332.44648 174.69422,335.55148 168.90355,337.34346 165.29092,343.378 159.85915,346.06852 146.98904,352.44349 132.44856,354.65809 118.7361,358.9299 103.81047,363.57964 88.728006,367.74798 73.943662,372.82908 66.446586,375.40568 59.47576,379.71171 51.695701,381.23345 41.922841,383.14498 51.695701,381.23345 21.830986,381.98401 Z"
       id="path5142"
       inkscape:connector-curvature="0"
       sodipodi:nodetypes="caaassaaaaaac" />
    <path
       style="fill:#000000;stroke:none;stroke-width:1px;stroke-linecap:butt;stroke-linejoin:miter;stroke-opacity:1;fill-opacity:1"
       d="M 274.32357,284.14303 C 282.63804,295.72759 296.40175,310.82647 310.23906,307.38246 333.34079,301.63259 342.18324,298.1015 358.40437,294.47475 370.04274,291.87262 378.09638,281.59828 393.61564,288.13672 399.68992,290.69588 386.61972,306.6319 386.61972,306.6319 L 370.32987,354.75088 358.68236,364.94361 C 358.68236,364.94361 359.43553,372.02747 361.26761,374.94176 363.92725,379.17246 367.72426,384.71439 372.72053,384.61559 376.45384,384.54176 380.15799,379.40843 380.98592,377.05444 392.58698,344.06986 398.63886,325.98939 406.33803,300.29387 408.03495,294.63052 416.35619,293.41984 422.1553,292.26941 432.21089,290.27457 442.69383,296.27804 452.8169,294.66007 455.8303,294.17844 460.42968,294.07329 461.26761,291.13894 463.56901,283.07967 453.45829,275.57807 446.66419,270.67007 437.05082,263.72546 427.63228,266.57692 412.67606,260.15303 407.75761,258.0405 404.84671,267.73988 400,270.01218 384.11611,277.45907 348.59155,281.27979 348.59155,281.27979 L 301.40845,285.50514 273.23944,279.87134 C 273.23944,279.87134 273.467,282.94956 274.32357,284.14303 Z"
       id="path5144"
       inkscape:connector-curvature="0"
       sodipodi:nodetypes="asascccaassaaaasaccca" />
    <path
       style="fill:#000000;stroke:none;stroke-width:1px;stroke-linecap:butt;stroke-linejoin:miter;stroke-opacity:1;fill-opacity:1"
       d="M 271.26576,350.52553 C 277.20501,366.65347 283.61934,370.79404 294.04189,372.69009 303.73508,374.45346 312.93157,366.32591 321.12676,360.85725 327.89357,356.34175 341.08689,351.74275 338.73239,343.95585 336.99307,338.20351 326.96834,340.17884 320.98776,340.7683 314.26084,341.43131 308.56568,346.16878 302.11268,348.1812 296.4824,349.93704 290.77631,351.90727 284.88695,352.22123 280.31799,352.4648 269.68461,346.23196 271.26576,350.52553 Z"
       id="path5146"
       inkscape:connector-curvature="0"
       sodipodi:nodetypes="saaaaaas" />
    <path
       style="fill:#000000;stroke:none;stroke-width:1px;stroke-linecap:butt;stroke-linejoin:miter;stroke-opacity:1;fill-opacity:1"
       d="M 207.04225,432.68824 C 225.86017,448.88317 247.1831,452.40655 247.1831,452.40655 259.49254,454.71688 269.73381,435.13577 280.28169,432.68824 293.28355,429.67129 304.21045,420.62505 316.90141,416.49106 330.60406,412.02752 344.82555,408.87068 359.15493,407.33613 376.66047,405.46145 394.39568,406.31769 411.97183,407.33613 422.11672,407.92397 432.50872,407.97573 442.25352,410.85725 451.2941,413.53053 458.54076,420.80456 467.60563,423.39431 477.35734,426.18029 488.75331,430.75786 497.88732,426.35021 502.16813,424.28449 506.2744,419.08817 505.6338,414.37838 504.90341,409.00842 498.06643,406.46498 493.47665,403.58334 481.80219,396.25368 469.08273,388.22537 455.30949,387.66415 448.51878,387.38744 442.61883,392.83536 435.91549,393.95585 422.71628,396.16214 409.13015,393.8129 395.77465,394.66007 378.57048,395.75137 361.39963,397.64122 344.3662,400.29387 325.67043,403.2054 307.21977,407.53339 288.73239,411.56148 267.53544,416.17994 246.19405,420.32907 225.35211,426.35021 219.14725,428.14276 202.14692,428.47526 207.04225,432.68824 Z"
       id="path5148"
       inkscape:connector-curvature="0"
       sodipodi:nodetypes="sssaaaaaaaaaaaaaas" />
    <path
       style="fill:#000000;stroke:none;stroke-width:1px;stroke-linecap:butt;stroke-linejoin:miter;stroke-opacity:1;fill-opacity:1"
       d="M 319.71831,452.40655 C 320.33829,468.8536 322.36054,485.24452 322.53521,501.70232 322.72998,520.05383 321.86887,538.41864 320.56153,556.72456 320.09064,563.31816 324.26834,573.30745 318.44886,576.44287 310.26672,580.85124 307.06607,568.03032 293.66197,563.67416 289.80811,562.42171 294.52302,571.79186 295.77465,575.64599 298.92006,585.33162 304.70347,593.95164 309.15493,603.11077 312.9181,610.85371 316.90141,624.23754 320.42254,626.35021 323.94366,628.46289 328.70089,627.26369 331.69014,624.94176 337.26713,620.60978 338.54575,612.22882 339.43662,605.22345 340.65977,595.6052 336.55601,586.02475 335.91549,576.35021 334.48871,554.79987 334.83252,533.15568 335.21127,511.56148 335.5698,491.12051 336.2757,472.55893 338.02817,450.29387 338.32517,446.52044 344.07499,444.19721 343.66197,440.43472 342.9004,433.49702 335.95854,427.76905 329.57746,424.94176 324.51404,422.69829 315.84262,420.19157 312.96296,424.9222 310.52251,428.93132 319.44444,435.57035 319.44444,437.4222 319.44444,439.27405 319.53013,447.41448 319.71831,452.40655 Z"
       id="path5150"
       inkscape:connector-curvature="0"
       sodipodi:nodetypes="aaaasaacaaaasaaasa" />
    <path
       style="fill:#000000;stroke:none;stroke-width:1px;stroke-linecap:butt;stroke-linejoin:miter;stroke-opacity:1;fill-opacity:1"
       d="M 362.5,458.40173 C 359.43803,468.15507 370.86977,479.36843 380.26316,483.40173 383.11291,484.62535 386.55532,483.13546 389.47368,482.08594 398.18,478.95493 407.07573,474.58439 413.15789,467.61226 415.67556,464.7262 419.03586,460.69817 417.76316,457.08594 415.87263,451.72016 408.15701,450.54596 402.63158,449.1912 397.94581,448.04231 390.78947,448.53331 388.15789,449.1912 385.52632,449.8491 365.2218,449.73194 362.5,458.40173 Z"
       id="path5152"
       inkscape:connector-curvature="0"
       sodipodi:nodetypes="aaaaaaca" />
    <path
       style="fill:#000000;stroke:none;stroke-width:1px;stroke-linecap:butt;stroke-linejoin:miter;stroke-opacity:1;fill-opacity:1"
       d="M 241.44737,472.87542 C 237.43961,476.03065 234.75229,481.59178 234.86842,486.6912 235.03817,494.14541 238.77514,502.99659 245.39474,506.42805 251.67344,509.68279 260.33059,507.34618 266.44737,503.79647 271.1892,501.04468 275.57082,496.07018 276.31579,490.63857 276.8913,486.4425 274.58659,481.90556 271.71052,478.79646 267.24799,473.97235 260.47126,471.03455 253.94737,470.24384 249.7203,469.73151 244.79297,470.2415 241.44737,472.87542 Z"
       id="path5154"
       inkscape:connector-curvature="0"
       sodipodi:nodetypes="aaaaaaaa" />
    <path
       style="fill:#000000;stroke:none;stroke-width:1px;stroke-linecap:butt;stroke-linejoin:miter;stroke-opacity:1;fill-opacity:1"
       d="M 225,545.24384 C 231.8154,540.58591 243.42105,539.98068 248.68421,538.00699 253.94737,536.03331 285.52632,522.87542 285.52632,522.87542 285.52632,522.87542 303.28947,512.3491 302.63158,514.98068 301.97368,517.61226 293.74588,531.71434 288.15789,539.32278 279.79226,550.71318 271.17693,562.42573 259.86842,570.90173 255.39458,574.25499 250.65789,576.16489 244.73684,578.13857 238.81579,580.11226 235.16534,583.07403 230.26316,582.08594 223.98457,580.82042 217.93692,576.00164 215.13158,570.24384 213.30657,566.49812 213.76507,561.68005 215.13158,557.74384 216.87261,552.72881 220.61716,548.23925 225,545.24384 Z"
       id="path5156"
       inkscape:connector-curvature="0"
       sodipodi:nodetypes="acccaacaaaa" />
    <path
       style="fill:#000000;stroke:none;stroke-width:1px;stroke-linecap:butt;stroke-linejoin:miter;stroke-opacity:1;fill-opacity:1"
       d="M 359.21053,520.90173 C 380.21978,518.27604 380.54037,524.22977 390.78947,527.48068 397.62398,529.64852 404.74702,540.2771 410.52632,536.03331 413.90333,533.55354 408.88464,527.7103 409.21053,523.53331 409.74015,516.74509 414.47368,503.79647 414.47368,503.79647 414.47368,503.79647 419.81429,500.08272 422.36842,501.16489 427.96789,503.53734 429.26305,511.61373 430.26316,517.61226 431.49782,525.0176 425.83629,532.69093 427.63158,539.98068 428.83886,544.88283 436.18421,552.48068 436.18421,552.48068 436.18421,552.48068 442.72814,564.31021 438.81579,567.61226 433.30323,572.26489 425.416,562.1378 418.42105,560.37542 412.82704,558.966 407.07324,557.38165 401.31579,557.74384 396.53569,558.04454 392.19576,562.63438 387.5,561.6912 381.99321,560.58511 378.45162,554.99374 374.34211,551.16489 368.66483,545.87534 361.19682,541.35477 358.55263,534.05963 357.05618,529.93102 354.85298,521.44633 359.21053,520.90173 Z"
       id="path5158"
       inkscape:connector-curvature="0"
       sodipodi:nodetypes="saaacaaacaaaaaas" />
    <path
       style="fill:#000000;stroke:none;stroke-width:1px;stroke-linecap:butt;stroke-linejoin:miter;stroke-opacity:1;fill-opacity:1"
       d="M 175.65789,404.45436 C 175.52843,407.85633 180.4162,411.66438 178.28948,414.32279 162.5,434.05963 166.57423,426.68508 162.5,434.05963 159.91756,438.73396 152.12821,450.74692 157.23684,449.1912 172.86079,444.43327 179.60049,437.77086 188.81579,429.45436 192.52827,426.10397 196.14429,422.24536 198.02631,417.61226 199.52104,413.9326 200.82523,409.4545 199.34211,405.77015 196.78373,399.41466 183.55263,392.61226 183.55263,392.61226 183.55263,392.61226 181.33818,390.80759 180.26316,391.29647 176.03317,393.22011 175.8346,399.81088 175.65789,404.45436 Z"
       id="path5160"
       inkscape:connector-curvature="0"
       sodipodi:nodetypes="asasaaacaa" />
    <path
       style="fill:#000000;stroke:none;stroke-width:1px;stroke-linecap:butt;stroke-linejoin:miter;stroke-opacity:1;fill-opacity:1"
       d="M 152.63158,453.79647 C 150.2065,462.59498 167.50827,464.37357 175,469.58594 182.6395,474.90113 188.7259,485.03581 198.02632,485.37542 201.07088,485.48659 205.92105,484.05963 205.92105,480.77015 205.92105,477.48068 205.56529,470.64003 203.28947,466.29647 201.41831,462.72523 198.28188,459.66418 194.73684,457.74384 187.24889,453.68763 178.23466,453.03691 169.73685,452.48068 164.03046,452.10717 154.1511,448.28344 152.63158,453.79647 Z"
       id="path5162"
       inkscape:connector-curvature="0"
       sodipodi:nodetypes="aaasaaaa" />
    <path
       style="fill:#000000;stroke:none;stroke-width:1px;stroke-linecap:butt;stroke-linejoin:miter;stroke-opacity:1;fill-opacity:1"
       d="M 138.15789,359.05963 C 134.7062,366.28071 136.6621,375.12492 134.21052,382.74384 129.34386,397.86829 121.67952,412.09747 113.15789,425.50699 104.1202,439.72858 92.57021,452.20861 81.578947,464.98068 73.784605,474.03786 66.610533,483.88579 57.236842,491.29647 49.533793,497.38637 40.147231,500.97344 31.578947,505.77015 21.728416,511.28469 15.424198,512.25015 1.9736842,522.21752 -1.7305729,524.96252 9.8829238,527.71259 14.473684,528.13857 23.053878,528.93473 31.897623,525.66535 39.473684,521.55963 53.260302,514.08821 63.311195,501.12572 74.342105,489.98068 87.127678,477.06282 99.591179,463.70895 110.52631,449.1912 118.65216,438.40313 125.6811,426.78891 132.23684,414.98068 138.37852,403.91826 147.04444,393.3164 148.68421,380.77015 149.89932,371.4731 143.42105,353.13857 143.42105,353.13857 143.42105,353.13857 139.29673,356.67712 138.15789,359.05963 Z"
       id="path5164"
       inkscape:connector-curvature="0"
       sodipodi:nodetypes="aaaaaasaaaaaaca" />
    <path
       style="fill:#000000;stroke:none;stroke-width:1px;stroke-linecap:butt;stroke-linejoin:miter;stroke-opacity:1;fill-opacity:1"
       d="M 138.15789,359.05963 C 134.02395,388.16928 136.04711,406.02446 134.21053,429.45436 131.98861,457.80017 125.65789,514.32278 125.65789,514.32278 L 115.78947,613.66489 C 115.78947,613.66489 117.60375,624.04024 119.73684,628.79647 122.00177,633.84667 123.45786,641.90532 128.94737,642.61226 131.56644,642.94954 134.86842,637.3491 134.86842,637.3491 134.86842,637.3491 137.93737,626.48841 138.15789,620.90173 138.52374,611.63338 135.73242,602.50539 134.86842,593.27015 133.96754,583.64067 132.89474,569.58594 132.89474,564.32278 132.89474,559.05963 138.81579,485.37542 138.81579,485.37542 L 144.73684,407.74384 C 144.73684,407.74384 149.82268,386.80393 150,365.63857 150.03783,361.1231 138.7928,354.58886 138.15789,359.05963 Z"
       id="path5166"
       inkscape:connector-curvature="0"
       sodipodi:nodetypes="saccaacaasccss" />
  </g>
</svg>
