<?xml version="1.0" encoding="UTF-8" standalone="no"?>
<!-- Created with Inkscape (http://www.inkscape.org/) -->

<svg
   xmlns:dc="http://purl.org/dc/elements/1.1/"
   xmlns:cc="http://creativecommons.org/ns#"
   xmlns:rdf="http://www.w3.org/1999/02/22-rdf-syntax-ns#"
   xmlns:svg="http://www.w3.org/2000/svg"
   xmlns="http://www.w3.org/2000/svg"
   xmlns:sodipodi="http://sodipodi.sourceforge.net/DTD/sodipodi-0.dtd"
   xmlns:inkscape="http://www.inkscape.org/namespaces/inkscape"
   width="512"
   height="512"
   viewBox="0 0 512 512"
   version="1.1"
   id="svg5747"
   inkscape:version="0.92.4 (5da689c313, 2019-01-14)"
   sodipodi:docname="U+7B56.svg">
  <defs
     id="defs5741" />
  <sodipodi:namedview
     id="base"
     pagecolor="#ffffff"
     bordercolor="#666666"
     borderopacity="1.0"
     inkscape:pageopacity="0.0"
     inkscape:pageshadow="2"
     inkscape:zoom="1.42"
     inkscape:cx="339.67081"
     inkscape:cy="247.99487"
     inkscape:document-units="px"
     inkscape:current-layer="layer1"
     showgrid="false"
     units="px"
     inkscape:window-width="1920"
     inkscape:window-height="986"
     inkscape:window-x="-11"
     inkscape:window-y="-11"
     inkscape:window-maximized="1" />
  <metadata
     id="metadata5744">
    <rdf:RDF>
      <cc:Work
         rdf:about="">
        <dc:format>image/svg+xml</dc:format>
        <dc:type
           rdf:resource="http://purl.org/dc/dcmitype/StillImage" />
        <dc:title></dc:title>
      </cc:Work>
    </rdf:RDF>
  </metadata>
  <g
     inkscape:label="圖層 1"
     inkscape:groupmode="layer"
     id="layer1"
     transform="translate(0,-161.53331)">
    <path
       style="fill:#000000;stroke:none;stroke-width:1px;stroke-linecap:butt;stroke-linejoin:miter;stroke-opacity:1;fill-opacity:1"
       d="M 106.01852,311.49628 C 111.79655,310.13228 117.69274,314.74212 123.61111,314.27405 136.07134,313.2886 162.5,302.69998 162.5,302.69998 162.5,302.69998 167.00451,300.36376 169.44444,300.38516 172.22639,300.40956 174.96117,301.67962 177.31481,303.16294 178.79189,304.09383 181.43313,305.17064 181.01852,306.86664 180.28835,309.85351 175.08255,308.51611 172.22222,309.64442 161.56327,313.84903 152.21301,321.28322 141.2037,324.45924 132.2469,327.04314 122.68519,334.18146 113.42593,327.69998 104.16667,321.2185 101.9162,319.58077 102.77778,313.81108 102.97384,312.49813 104.72652,311.80128 106.01852,311.49628 Z"
       id="path5760"
       inkscape:connector-curvature="0"
       sodipodi:nodetypes="ascaaaaasaa" />
    <path
       style="fill:#000000;stroke:none;stroke-width:1px;stroke-linecap:butt;stroke-linejoin:miter;stroke-opacity:1;fill-opacity:1"
       d="M 140.27778,219.82961 C 138.99508,231.42723 145.09721,243.53175 152.31481,252.69998 154.72404,255.76033 159.52274,256.20683 162.03704,259.18146 166.18416,264.08786 168.08647,270.61324 169.90741,276.77405 174.46684,292.20004 177.54806,308.37523 177.31481,324.45924 177.25336,328.6963 174.47317,332.75461 175,336.95924 175.54941,341.34403 176.13948,349.15894 180.55556,348.99627 187.14369,348.75359 187.5,330.47775 187.5,330.47775 187.5,330.47775 185.90671,274.5405 180.09259,246.68146 178.06819,236.9813 167.59616,228.62162 159.25926,221.68146 154.90472,218.05647 149.94316,211.98187 144.44444,213.34812 141.95182,213.96746 140.56013,217.27676 140.27778,219.82961 Z"
       id="path5762"
       inkscape:connector-curvature="0"
       sodipodi:nodetypes="aaaaaaacsaaa" />
    <path
       style="fill:#000000;stroke:none;stroke-width:1px;stroke-linecap:butt;stroke-linejoin:miter;stroke-opacity:1;fill-opacity:1"
       d="M 247.68519,271.68146 C 248.4464,263.96438 261.73094,277.10778 270.83333,273.99627 290.73832,267.19205 328.7037,255.01479 331.01852,255.01479 333.33333,255.01479 348.61111,246.68146 365.27778,256.86664 381.94444,267.05183 373.61111,272.14442 373.61111,272.14442 373.61111,272.14442 347.88081,275.53479 335.18519,278.16294 321.29393,281.0386 307.88537,285.99713 293.98148,288.81109 284.65508,290.69863 274.48313,296.73476 265.74074,292.97775 253.79165,287.84267 246.59845,282.69865 247.68519,271.68146 Z"
       id="path5764"
       inkscape:connector-curvature="0"
       sodipodi:nodetypes="sssscaass" />
    <path
       style="fill:#000000;stroke:none;stroke-width:1px;stroke-linecap:butt;stroke-linejoin:miter;stroke-opacity:1;fill-opacity:1"
       d="M 238.42593,178.16294 C 235.45667,187.23918 250.96911,198.22649 259.72222,205.94072 261.33063,207.35823 265.27778,209.18146 265.27778,209.18146 265.27778,209.18146 250,317.05183 248.61111,318.90368 247.22222,320.75553 244.1581,323.2152 242.59259,325.84812 241.24487,328.11476 239.71218,330.62049 239.81481,333.25553 239.91423,335.80806 240.77621,339.04677 243.05556,340.19998 245.8641,341.62093 251.26342,341.31487 252.31481,338.34812 266.82167,297.41374 281.19255,256.86757 294.90741,204.55183 296.43362,198.73004 292.04828,192.30475 287.96296,187.88516 283.13755,182.66493 279.07953,178.80087 268.98148,178.16294 238.85086,176.25948 238.42593,178.16294 238.42593,178.16294 Z"
       id="path5766"
       inkscape:connector-curvature="0"
       sodipodi:nodetypes="cacsaaassasc" />
    <path
       style="fill:#000000;stroke:none;stroke-width:1px;stroke-linecap:butt;stroke-linejoin:miter;stroke-opacity:1;fill-opacity:1"
       d="M 87.037037,373.07035 C 80.586559,392.17242 85.078841,413.50682 81.018519,433.25553 77.922371,448.31466 68.555604,461.92916 67.12963,477.23701 66.293421,486.21372 67.958996,495.40176 70.37037,504.08887 71.682138,508.81458 73.79357,521.67621 76.388889,517.51479 99.467787,480.50931 104.90036,460.8839 118.51852,423.99627 119.81892,420.47386 120.9492,416.59507 120.37037,412.88516 118.44458,400.54211 110.60104,389.64566 103.24074,379.55183 99.768945,374.79065 96.5931,366.36472 90.740741,367.05183 88.401202,367.32651 87.79068,370.83855 87.037037,373.07035 Z"
       id="path5768"
       inkscape:connector-curvature="0"
       sodipodi:nodetypes="aaaassaaaa" />
    <path
       style="fill:#000000;stroke:none;stroke-width:1px;stroke-linecap:butt;stroke-linejoin:miter;stroke-opacity:1;fill-opacity:1"
       d="M 138.42593,391.58887 C 135.78953,396.77447 139.09708,408.0775 144.90741,407.79257 162.1258,406.94822 174.87277,397.3754 189.81481,392.05183 198.78192,388.85701 207.47543,384.80692 216.66667,382.32961 235.89795,377.14621 255.74748,374.51155 275.46296,371.68146 304.34299,367.53584 333.32517,362.15422 362.5,362.4222 364.98825,362.44506 368.04538,362.92794 369.90741,363.34812 382.60126,366.21257 382.19663,363.90648 384.25926,366.58887 386.79217,369.88284 392.51,373.47728 390.74074,377.23701 388.30863,382.40531 385.18519,393.44072 385.18519,393.44072 384.87355,395.83106 380.51444,396.58605 380.55556,398.99627 380.65437,404.78812 386.76433,409.77545 392.12963,411.95923 396.28459,413.65038 401.62547,414.93868 405.55556,411.03331 417.15911,399.50274 425.34782,389.69235 434.72222,378.6259 437.62177,375.203 439.40069,367.65804 435.64815,365.19998 418.64878,354.06471 398.2788,350.19934 380.09259,341.58887 376.78606,340.02335 373.84626,335.35512 370.37037,336.49627 363.6818,338.69217 368.02107,354.13185 361.11111,355.47775 329.53666,361.62775 305.78033,360.29792 278.24074,363.81109 265.2289,365.47099 252.24451,367.41251 239.35185,369.82961 228.78976,371.80978 218.32774,374.29973 207.87037,376.77405 193.77475,380.10921 188.47443,382.03969 165.74074,387.4222 164.39759,387.74021 163.38979,385.84471 162.03704,385.57035 157.62463,384.67544 152.89978,385.23734 148.55746,386.42668 144.90182,387.42793 140.3894,387.72686 138.42593,391.58887 Z"
       id="path5770"
       inkscape:connector-curvature="0"
       sodipodi:nodetypes="ssaaaassssaasssaasaaasaas" />
    <path
       style="fill:#000000;stroke:none;stroke-width:1px;stroke-linecap:butt;stroke-linejoin:miter;stroke-opacity:1;fill-opacity:1"
       d="M 149.53704,461.49627 C 151.37861,468.86919 158.7963,482.32961 158.7963,482.32961 158.7963,482.32961 163.73369,490.51583 167.12963,489.27405 182.8048,483.54214 179.7211,478.3642 192.59259,470.29257 201.84568,464.49002 212.35769,460.88377 222.68519,457.32961 235.35602,452.96901 248.314,449.07715 261.57407,447.14442 279.90914,444.47198 298.64793,446.61292 317.12963,445.29257 329.82758,444.38542 343.6566,447.53357 355.09259,441.1259 359.0704,438.8971 357.87037,431.40368 349.53704,428.6259 341.2037,425.84812 331.01852,424.9222 331.01852,424.9222 331.01852,424.9222 314.19639,425.0571 306.01852,426.77405 299.62051,428.11732 293.55662,430.7839 287.52842,433.31366 285.30118,434.24833 283.26552,435.61015 281.01852,436.49627 275.61444,438.62741 264.35185,441.58887 264.35185,441.58887 248.68789,443.71871 232.38185,446.26131 216.66667,449.9222 210.24599,451.41791 200,455.47775 197.68519,455.47775 195.37037,455.47775 182.7053,460.54286 175,460.10738 168.51968,459.74113 162.94291,454.70416 156.48148,454.08887 154.00433,453.85298 150.65332,453.09181 149.07407,455.01479 147.6994,456.68866 149.01215,459.39483 149.53704,461.49627 Z"
       id="path5772"
       inkscape:connector-curvature="0"
       sodipodi:nodetypes="acssaaasscaaasasaaaa" />
    <path
       style="fill:#000000;stroke:none;stroke-width:1px;stroke-linecap:butt;stroke-linejoin:miter;stroke-opacity:1;fill-opacity:1"
       d="M 205.09259,341.58887 C 208.47138,356.03055 215.49587,355.30287 218.05556,363.34813 219.83903,368.95369 217.17303,375.5145 219.44444,380.94072 220.62724,383.76633 222.44013,387.38961 225.46296,387.88516 228.46655,388.37756 231.17555,385.40216 233.33334,383.25554 238.68072,377.93582 243.76842,371.26741 244.90741,363.81109 245.41045,360.51796 244.52075,356.80548 242.59259,354.08887 238.45484,348.25912 230.90927,345.75541 224.53703,342.5148 219.22377,339.81272 213.43188,333.88817 207.87037,336.03331 205.93865,336.77839 204.62093,339.57287 205.09259,341.58887 Z"
       id="path5774"
       inkscape:connector-curvature="0"
       sodipodi:nodetypes="saaaaaaaas" />
    <path
       style="fill:#000000;stroke:none;stroke-width:1px;stroke-linecap:butt;stroke-linejoin:miter;stroke-opacity:1;fill-opacity:1"
       d="M 223.61111,410.57035 C 223.61111,410.57035 234.76867,418.39633 235.64815,424.45924 237.6578,438.31333 235.32421,454.10897 236.11111,468.90368 236.96747,485.00433 239.82946,500.9542 240.74074,517.05183 241.75266,534.9271 242.28869,552.86244 241.66667,570.75553 241.17155,584.99803 239.26205,597.93052 237.96296,613.34813 237.76139,615.74032 235.26908,618.5378 232.87037,618.44072 228.82295,618.2769 228.86898,607.98165 225,609.18146 220.7027,610.5141 222.87741,618.16842 223.61111,622.60739 224.63583,628.807 227.70364,634.71575 231.48148,639.73702 235.03386,644.4586 241.80587,657.20986 244.90741,651.31109 258.06134,626.29383 261.91596,611.45262 262.03704,586.95924 262.16422,561.23325 254.55645,536.11588 251.85185,510.57035 249.57015,489.01927 246.54613,466.6871 246.75926,445.75553 246.85644,436.2118 254.99255,428.46666 257.87037,419.36664 258.96559,415.90341 261.8535,411.94499 260.18519,408.7185 256.56477,401.71665 246.2693,400.24333 238.42593,399.45924 233.09554,398.92637 225.82093,398.35669 222.68519,402.69998 221.13894,404.84168 223.61111,410.57035 223.61111,410.57035 Z"
       id="path5776"
       inkscape:connector-curvature="0"
       sodipodi:nodetypes="csaaasaaaassasaaaac" />
    <path
       style="fill:#000000;stroke:none;stroke-width:1px;stroke-linecap:butt;stroke-linejoin:miter;stroke-opacity:1;fill-opacity:1"
       d="M 150.92593,525.38516 C 142.31851,530.07112 141.06019,542.47604 137.96296,551.77405 135.33251,559.67079 133.23954,567.98829 133.33333,576.31109 133.39199,581.51666 132.08092,588.95961 136.57407,591.58887 138.80679,592.89539 141.8589,590.75279 143.98148,589.27405 151.65546,583.92779 157.27645,575.58223 161.11111,567.05183 163.81634,561.0339 165.10241,554.19912 164.81481,547.60738 164.49327,540.23759 164.40862,531.09847 158.7963,526.31109 156.78659,524.59678 153.24595,524.12212 150.92593,525.38516 Z"
       id="path5778"
       inkscape:connector-curvature="0"
       sodipodi:nodetypes="aaaaaaaaa" />
    <path
       style="fill:#000000;stroke:none;stroke-width:1px;stroke-linecap:butt;stroke-linejoin:miter;stroke-opacity:1;fill-opacity:1"
       d="M 328.7037,509.18146 C 323.95994,517.43017 329.70823,528.44749 332.87037,537.4222 336.6172,548.05637 344.29012,556.86665 350,566.58887 350,566.58887 361.25011,575.5762 368.05556,576.77405 372.67799,577.58766 378.83191,577.97221 381.94444,574.45923 386.55426,569.25633 384.03302,560.47928 382.87037,553.6259 381.75839,547.0712 379.16294,540.63103 375.46296,535.10738 371.27223,528.85109 359.25926,519.36664 359.25926,519.36664 359.25926,519.36664 350.41838,512.18479 345.37037,509.64442 342.31894,508.10881 339.06272,506.30334 335.64815,506.40368 333.15609,506.47691 329.9466,507.02023 328.7037,509.18146 Z"
       id="path5780"
       inkscape:connector-curvature="0"
       sodipodi:nodetypes="aacaaaacaaa" />
  </g>
</svg>
