<svg xmlns="http://www.w3.org/2000/svg" width="512" height="512"><path d="M42.883 282.326c5.69.82 11.385 1.63 17.026 2.731 3.778.737 7.41 2.36 11.252 2.591 5.89.355 11.747-1.15 17.603-1.872 16.892-2.087 50.562-7.117 50.562-7.117s27.628-7.591 41.573-10.861c15.518-3.639 31.233-6.386 46.816-9.738 15.754-3.388 47.191-10.487 47.191-10.487l44.57-6.741s33.9-4.187 50.936-5.244c11.715-.726 23.47-.906 35.206-.749 12.998.174 38.951 1.873 38.951 1.873l13.483.374s9.364 3.371 14.982 9.738c5.618 6.367 7.483 10.834 10.861 16.48 2.696 4.506 6.486 8.703 7.49 13.857.217 1.11-.193 2.255-.374 3.371-.286 1.764.396 4.302-1.123 5.244-4.71 2.918-10.914-2.184-16.105-4.12-7.847-2.927-15.037-7.382-22.472-11.236-6.794-3.522-13.093-8.088-20.225-10.862-7.083-2.754-14.616-4.277-22.097-5.618-8.156-1.461-16.434-2.565-24.72-2.621-17.677-.122-52.808 4.869-52.808 4.869l-45.693 5.992-18.352 3.37-63.296 14.982-58.053 16.854-36.33 12.36s-3.984 2.652-6.1 3.761c-6.605 3.46-13.11 7.913-20.49 8.973-4.86.697-9.885-.535-14.608-1.873-4.993-1.415-9.844-3.57-14.185-6.414-3.69-2.418-6.887-5.58-9.817-8.88-4.286-4.825-9.078-10.024-11.204-15.792 0 0-4.067-5.927-2.419-8.724 1.723-2.921 7.988.956 11.97 1.53z"/><path d="M197.004 192.517c-.375 5.255 12.734 9.363 12.734 9.363 2.354 2.818 10.487 3.371 10.487 3.371s5.797 1.035 8.614 1.873c2.69.8 6.05.857 7.865 2.996 4.864 5.731 4.494 22.097 4.494 22.097l2.622 21.723s4.847 16.557 5.618 25.094c.563 6.222-2.532 12.74-.749 18.727 2.887 9.694 11.134 16.942 17.603 24.719 3.445 4.14 6.935 8.368 11.236 11.61 1.695 1.278 3.616 3.702 5.618 2.996 1.704-.6 1.51-3.288 2.126-4.987 2.559-7.07 5.977-15.47 6.488-21.604.283-3.396.673-7.486-1.498-10.113-1.685-2.039-5.296-1.145-7.49-2.621-4.697-3.16-8.92-7.57-11.236-12.735-2.985-6.655-1.532-14.51-2.622-21.722-1.251-8.281-3.498-16.404-4.495-24.72-.506-4.221.553-8.686-.749-12.734-1.717-5.341-5.52-9.821-8.988-14.232-3.439-4.372-11.61-11.985-11.61-11.985s-11.446-6.434-17.604-8.614c-5.795-2.051-11.884-4.937-17.977-4.12-3.93.527-10.206 1.662-10.487 5.618z"/><path d="M124.345 237.46l16.853 1.124 19.476 5.993s6.628 4.908 7.49 8.614c1.553 6.666-4.527 13.044-5.243 19.85-.536 5.097.085 10.275.75 15.356.926 7.09 2.212 14.198 4.494 20.974 3.565 10.586 8.887 20.53 14.232 30.337 5.37 9.852 15.457 25.55 21.657 35.027 3.16 4.83 2.41 6.66 5.31 8.044 10.401 4.964 23.003-1.722 34.413-3.345 16.112-2.292 31.852-6.866 47.983-9.014 15.636-2.082 31.452-2.458 47.174-3.737 13.491-1.098 26.984-4.582 40.467-3.38 13 1.16 25.923 4.76 37.827 10.113 7.643 3.436 15.28 7.71 20.974 13.858 3.494 3.772 7.49 13.483 7.49 13.483s-1.144 6.71-3.744 8.24c-3.995 2.349-9.357-.022-13.858-1.124-14.346-3.513-40.824-17.229-40.824-17.229s-28.261-6.733-42.688-7.499c-18.38-.975-36.903.919-55.09 3.746-11.43 1.776-22.575 5.1-33.7 8.265-10.094 2.872-19.741 5.054-29.945 9.72-5.8 2.653-12.294 9.267-18.727 13.484-4.494 2.946-8.529 8.937-13.858 8.24-7.615-.998-16.104-16.48-16.104-16.48s-9.583-12.947-10.487-20.6c-.377-3.187-.32-7.436 2.247-9.362 2.1-1.576 5.503 1.52 7.865.374 1.933-.937 3.745-5.243 3.745-5.243l-.374-7.116s-11.572-19.928-16.48-30.338c-3.272-6.94-6.33-14.022-8.614-21.348-1.866-5.985-4.12-18.352-4.12-18.352l-4.869-14.232-4.494-13.858-10.861-4.12s-8.375-5.74-10.487-10.112c-1.692-3.501-2.207-7.876-1.124-11.61.793-2.735 5.244-6.742 5.244-6.742z"/></svg>