<?xml version="1.0" encoding="UTF-8" standalone="no"?>
<!-- Created with Inkscape (http://www.inkscape.org/) -->

<svg
   xmlns:dc="http://purl.org/dc/elements/1.1/"
   xmlns:cc="http://creativecommons.org/ns#"
   xmlns:rdf="http://www.w3.org/1999/02/22-rdf-syntax-ns#"
   xmlns:svg="http://www.w3.org/2000/svg"
   xmlns="http://www.w3.org/2000/svg"
   xmlns:sodipodi="http://sodipodi.sourceforge.net/DTD/sodipodi-0.dtd"
   xmlns:inkscape="http://www.inkscape.org/namespaces/inkscape"
   width="540"
   height="512"
   viewBox="0 0 540 512"
   version="1.1"
   id="svg6331"
   inkscape:version="0.92.4 (5da689c313, 2019-01-14)"
   sodipodi:docname="U+7E93.svg">
  <defs
     id="defs6325" />
  <sodipodi:namedview
     id="base"
     pagecolor="#ffffff"
     bordercolor="#666666"
     borderopacity="1.0"
     inkscape:pageopacity="0.0"
     inkscape:pageshadow="2"
     inkscape:zoom="1.52"
     inkscape:cx="199.77134"
     inkscape:cy="313.2827"
     inkscape:document-units="px"
     inkscape:current-layer="svg6331"
     showgrid="false"
     units="px"
     inkscape:window-width="1920"
     inkscape:window-height="986"
     inkscape:window-x="-11"
     inkscape:window-y="-11"
     inkscape:window-maximized="1" />
  <metadata
     id="metadata6328">
    <rdf:RDF>
      <cc:Work
         rdf:about="">
        <dc:format>image/svg+xml</dc:format>
        <dc:type
           rdf:resource="http://purl.org/dc/dcmitype/StillImage" />
        <dc:title></dc:title>
      </cc:Work>
    </rdf:RDF>
  </metadata>
  <g
     inkscape:label="圖層 1"
     inkscape:groupmode="layer"
     id="layer1"
     transform="translate(0,-161.53332)" />
  <path
     style="fill:#000000;stroke:none;stroke-width:1px;stroke-linecap:butt;stroke-linejoin:miter;stroke-opacity:1;fill-opacity:1"
     d="M 130.09146,74.807398 C 130.09146,74.807398 136.32559,88.408661 135.95624,95.600705 135.38753,106.67479 128.96459,116.76834 123.69352,126.52409 115.3261,142.01057 93.303299,169.71018 93.303299,169.71018 93.303299,169.71018 87.596307,177.15144 85.839035,181.43974 84.874182,183.79429 81.814412,189.67441 84.23955,188.904 99.000657,184.21472 99.768568,177.05529 106.09918,169.71018 118.52212,155.29642 125.85219,137.13045 137.02256,121.72563 139.17333,118.75955 140.8449,115.13387 143.95366,113.19504 145.96554,111.9403 149.2905,113.35066 150.88476,111.59556 155.46471,106.55355 155.30834,97.916295 153.55057,91.335411 151.5876,83.986281 145.55119,78.05459 139.68837,73.207913 136.62549,70.675896 132.23643,65.535384 129.02513,67.876296 127.13619,69.253261 130.09146,74.807398 130.09146,74.807398 Z"
     id="path6344"
     inkscape:connector-curvature="0"
     sodipodi:nodetypes="caacasaaaaaaac" />
  <path
     style="fill:#000000;stroke:none;stroke-width:1px;stroke-linecap:butt;stroke-linejoin:miter;stroke-opacity:1;fill-opacity:1"
     d="M 62.37992,179.84025 C 60.050771,185.71709 60.979598,189.0158 62.200067,195.86714 63.095261,200.89249 61.658524,208.04202 66.112052,210.23047 76.982874,215.57235 88.679018,201.39033 99.70124,196.36827 104.40239,194.22628 108.67693,191.11377 113.56344,189.43717 120.42065,187.0844 127.88317,187.03261 134.88991,185.17187 139.23531,184.01789 146.08115,185.10649 147.68579,180.90658 148.70855,178.22965 145.6989,175.18038 143.4205,173.44231 138.31409,169.54692 131.09098,169.72379 124.75985,168.64386 110.51654,166.21433 98.884519,168.73941 81.573742,164.91172 74.57856,163.36497 64.384303,174.78286 62.37992,179.84025 Z"
     id="path6346"
     inkscape:connector-curvature="0"
     sodipodi:nodetypes="ssaaaaaaass" />
  <path
     style="fill:#000000;stroke:none;stroke-width:1px;stroke-linecap:butt;stroke-linejoin:miter;stroke-opacity:1;fill-opacity:1"
     d="M 171.67807,137.72048 C 160.29284,149.65292 152.24321,164.39226 141.82101,177.17445 127.17795,195.13326 95.969108,229.42429 95.969108,229.42429 L 80.507418,239.0212 C 80.507418,239.0212 71.301248,236.83456 68.244699,239.55437 64.0757,243.26407 64.964623,250.53575 65.57889,256.08238 66.10562,260.83857 66.63043,267.27138 70.910507,269.41142 75.190585,271.55146 80.496911,267.82786 84.772712,265.67929 88.616836,263.74763 91.150022,259.78551 94.902784,257.68186 108.78338,249.90093 139.68837,241.15385 139.68837,241.15385 139.68837,241.15385 155.91434,242.57037 156.21638,236.88856 156.45819,232.33965 147.96373,232.42196 143.4205,232.0901 130.00103,231.10986 103.96653,240.62069 103.96653,240.62069 103.96653,240.62069 141.90205,200.93492 159.94851,174.50864 163.50755,169.29698 170.50448,167.57963 175.94336,164.37857 183.61984,159.86058 199.40248,151.58268 199.40248,151.58268 203.22503,149.4106 203.52009,143.08632 202.60145,138.7868 201.9403,135.69242 196.73667,131.32254 196.73667,131.32254 196.73667,131.32254 186.23131,128.2125 181.27498,129.72305 177.29174,130.93703 174.55266,134.70773 171.67807,137.72048 Z"
     id="path6348"
     inkscape:connector-curvature="0"
     sodipodi:nodetypes="aaccaaaaacaacsasacaa" />
  <path
     style="fill:#000000;stroke:none;stroke-width:1px;stroke-linecap:butt;stroke-linejoin:miter;stroke-opacity:1;fill-opacity:1"
     d="M 172.74439,211.82996 C 172.74439,211.82996 152.46579,239.10743 141.82102,252.35024 136.1327,259.42689 130.69963,266.77671 124.22668,273.14355 120.62514,276.68605 115.60927,278.76115 112.49712,282.74046 110.19533,285.68361 108.71872,289.27611 107.69867,292.87054 107.25931,294.41873 105.74809,296.90683 107.1655,297.66899 112.05556,300.29842 115.67716,290.53733 119.96138,287.00576 131.46273,277.52498 143.25967,268.40114 154.6169,258.74819 160.94825,253.36693 168.34827,248.90943 173.27756,242.22018 176.86369,237.35365 179.20278,231.53808 180.74182,225.69216 181.74135,221.89555 182.8518,217.74732 181.80814,213.9626 181.16555,211.63232 179.9363,208.43629 177.54285,208.09783 175.53648,207.81411 172.74439,211.82996 172.74439,211.82996 Z"
     id="path6350"
     inkscape:connector-curvature="0"
     sodipodi:nodetypes="caaaaaaaaaaac" />
  <path
     style="fill:#000000;stroke:none;stroke-width:1px;stroke-linecap:butt;stroke-linejoin:miter;stroke-opacity:1;fill-opacity:1"
     d="M 7.9974256,343.5209 C 7.9974256,343.5209 13.549381,358.57794 20.260145,360.58207 25.003843,361.99874 29.451826,356.89237 34.122349,355.25046 58.937462,346.52679 84.932542,341.16825 109.29815,331.25818 118.86908,327.36546 128.50554,323.24546 137.02256,317.39598 141.58519,314.26237 148.27481,311.64164 149.28528,306.19958 149.64802,304.24599 148.47674,301.57409 146.61947,300.86796 143.04115,299.50749 139.56529,303.85653 135.95624,305.13326 124.03221,309.35149 111.75748,312.50563 99.701239,316.32965 76.719126,323.61917 59.181499,332.07831 30.923379,338.72244 27.962048,339.41872 24.646102,338.87672 21.85963,337.65612 17.357151,335.68384 15.287905,326.39348 10.663234,328.05921 5.7427365,329.83149 7.9974256,343.5209 7.9974256,343.5209 Z"
     id="path6352"
     inkscape:connector-curvature="0"
     sodipodi:nodetypes="caaaaaaaasaac" />
  <path
     style="fill:#000000;stroke:none;stroke-width:1px;stroke-linecap:butt;stroke-linejoin:miter;stroke-opacity:1;fill-opacity:1"
     d="M 216.99682,104.66445 C 219.94174,112.99918 227.38311,119.25491 230.32586,127.59041 234.93719,140.65228 235.84304,154.83639 236.62339,168.66636 237.08387,176.82737 232.81042,185.50716 235.65748,193.1693 236.92759,196.58748 239.61399,202.16313 243.12174,201.16673 248.35203,199.68103 245.94794,190.59628 246.32071,185.17187 247.33385,170.42909 244.28396,155.6836 243.6549,140.91945 243.35219,133.81485 245.45458,126.31048 243.12174,119.59298 241.02284,113.54912 235.44421,109.35628 231.60545,104.23793 230.64575,102.95834 230.07613,101.25737 228.72637,100.39916 225.04975,98.061474 219.09143,94.734887 215.93049,97.733351 214.23458,99.342087 216.21807,102.46043 216.99682,104.66445 Z"
     id="path6354"
     inkscape:connector-curvature="0"
     sodipodi:nodetypes="aaaaaaaaaaaa" />
  <path
     style="fill:#000000;stroke:none;stroke-width:1px;stroke-linecap:butt;stroke-linejoin:miter;stroke-opacity:1;fill-opacity:1"
     d="M 231.39218,67.876296 C 227.67863,72.241793 240.6341,75.692394 246.32071,76.406883 256.93011,77.739893 275.11144,67.876296 277.24409,67.876296 279.37674,67.876296 286.30784,65.210487 286.30784,65.210487 L 292.17262,69.475781 296.43791,154.24849 C 296.43791,154.24849 292.45973,171.27867 293.23894,179.84026 293.88084,186.89322 294.81937,194.90926 299.63688,200.1004 302.24097,202.90646 308.28875,207.62295 310.30011,204.36569 316.0143,195.11192 307.60405,178.44885 307.63431,165.44489 307.68532,143.52688 309.01035,121.51522 312.43276,99.865999 313.94712,90.28656 321.76539,81.004789 319.36386,71.608428 316.56048,60.639774 307.75903,46.498786 296.43791,46.549828 284.05528,46.605656 277.21158,52.490947 267.64718,55.613577 255.5196,59.573044 239.01925,58.910211 231.39218,67.876296 Z"
     id="path6356"
     inkscape:connector-curvature="0"
     sodipodi:nodetypes="sascccaasaaasas" />
  <path
     style="fill:#000000;stroke:none;stroke-width:1px;stroke-linecap:butt;stroke-linejoin:miter;stroke-opacity:1;fill-opacity:1"
     d="M 245.25439,106.7971 C 248.40082,111.5875 254.51616,114.46986 260.18291,115.32769 265.04305,116.06342 270.23398,114.42857 274.57828,112.12872 278.24508,110.18753 283.45736,107.74295 283.64203,103.59813 283.83254,99.322293 279.25103,95.088834 275.11144,94.00122 268.75162,92.330273 262.84889,98.881415 256.45078,100.39916 252.61129,101.30996 244.72122,101.99865 244.72122,101.99865 244.72122,101.99865 244.37089,105.45198 245.25439,106.7971 Z"
     id="path6358"
     inkscape:connector-curvature="0"
     sodipodi:nodetypes="aaaaaaca" />
  <path
     style="fill:#000000;stroke:none;stroke-width:1px;stroke-linecap:butt;stroke-linejoin:miter;stroke-opacity:1;fill-opacity:1"
     d="M 237.79012,152.11585 C 236.28777,156.44924 245.1376,161.75132 250.58601,163.31224 255.29411,164.66107 260.3468,162.18348 265.089,160.95993 267.42861,160.35628 269.6735,159.42217 271.91247,158.51379 275.89221,156.89915 282.57809,157.34311 283.64203,153.18217 284.52256,149.73855 280.33557,146.40561 277.24409,144.65158 274.29096,142.97605 270.28843,142.77171 267.11402,143.58526 262.63874,144.73219 254.86901,145.87213 248.93169,147.7078 245.11594,148.88753 239.61136,146.86267 237.79012,152.11585 Z"
     id="path6360"
     inkscape:connector-curvature="0"
     sodipodi:nodetypes="saaaaasas" />
  <path
     style="fill:#000000;stroke:none;stroke-width:1px;stroke-linecap:butt;stroke-linejoin:miter;stroke-opacity:1;fill-opacity:1"
     d="M 335.35872,53.48093 C 327.92311,57.79598 335.07975,71.210636 338.55769,79.072692 339.88341,82.06956 343.71923,83.502146 344.95563,86.536956 351.13765,101.711 347.62116,119.21149 348.1546,135.58783 348.46705,145.17966 346.61734,154.90558 348.1546,164.37857 349.32489,171.59025 350.8138,179.24492 355.0857,185.17187 356.64443,187.33449 359.07837,191.11977 361.48364,189.97033 365.97634,187.82334 362.10758,180.02032 362.0168,175.0418 361.74717,160.25496 359.13076,145.57537 358.81783,130.78938 358.56577,118.87946 360.96226,106.93124 359.88415,95.067543 359.19329,87.465156 358.50857,79.49806 355.0857,72.674751 352.54442,67.608841 348.04495,63.73271 343.8893,59.87887 341.28309,57.461947 338.43296,51.696877 335.35872,53.48093 Z"
     id="path6362"
     inkscape:connector-curvature="0"
     sodipodi:nodetypes="aaaaaaaaaaaaa" />
  <path
     style="fill:#000000;stroke:none;stroke-width:1px;stroke-linecap:butt;stroke-linejoin:miter;stroke-opacity:1;fill-opacity:1"
     d="M 353.48621,55.080415 C 346.95627,57.856338 366.29492,64.653665 373.2132,63.077841 394.94868,58.127007 406.78547,52.979858 423.86356,52.947768 428.51494,52.939028 432.81861,58.04415 433.99363,62.544679 436.81818,73.363133 432.92731,96.667029 432.92731,98.799676 432.92731,100.93232 433.85277,136.44828 430.2615,154.78165 429.6456,157.9258 429.60506,161.8959 427.06253,163.8454 425.22367,165.25536 418.97309,162.37167 420.13143,164.37857 429.07306,179.87056 426.97784,185.12052 435.05995,191.56981 437.08257,193.1838 442.15614,196.2638 442.52422,193.70246 445.40353,173.66643 441.84887,171.66562 441.99106,160.64643 442.31926,135.21215 441.69502,109.59945 445.19003,84.404309 446.24431,76.804165 452.2821,69.479749 450.52164,62.011517 447.91646,50.959759 439.35122,32.056556 428.66201,35.886593 406.18109,43.941704 376.55938,45.271853 353.48621,55.080415 Z"
     id="path6364"
     inkscape:connector-curvature="0"
     sodipodi:nodetypes="sssssaasasaaass" />
  <path
     style="fill:#000000;stroke:none;stroke-width:1px;stroke-linecap:butt;stroke-linejoin:miter;stroke-opacity:1;fill-opacity:1"
     d="M 365.21577,97.733352 C 363.67983,103.35704 373.43658,106.92697 379.07797,108.39658 384.98821,109.93623 391.20623,106.87554 397.20547,105.73077 400.25422,105.14902 405.09439,106.47095 406.26922,103.59813 407.78094,99.901518 399.87128,93.468058 399.87128,93.468058 388.78176,94.716076 368.28229,86.505584 365.21577,97.733352 Z"
     id="path6366"
     inkscape:connector-curvature="0"
     sodipodi:nodetypes="aaaasa" />
  <path
     style="fill:#000000;stroke:none;stroke-width:1px;stroke-linecap:butt;stroke-linejoin:miter;stroke-opacity:1;fill-opacity:1"
     d="M 351.88673,144.65158 C 347.89049,145.98596 358.3152,153.05988 362.54996,152.11585 376.32028,149.04609 385.46142,145.73978 397.20547,144.11842 400.90673,143.60743 406.96793,147.03551 408.40187,143.58526 410.33343,138.93769 403.01655,130.7101 398.2718,132.38886 384.00598,137.43632 373.9348,137.28955 351.88673,144.65158 Z"
     id="path6368"
     inkscape:connector-curvature="0"
     sodipodi:nodetypes="ssaass" />
  <path
     style="fill:#000000;stroke:none;stroke-width:1px;stroke-linecap:butt;stroke-linejoin:miter;stroke-opacity:1;fill-opacity:1"
     d="M 212.19836,196.90143 C 209.88783,205.18972 228.19321,217.16157 228.19321,217.16157 243.74402,214.39427 249.39295,206.56499 260.71608,203.29938 269.36271,200.80566 278.40341,199.74721 287.37416,199.03408 292.15753,198.65383 297.41007,201.03914 301.76953,199.03407 303.25813,198.34941 305.01796,196.9397 304.9685,195.30195 304.73708,187.6387 295.68471,182.48076 288.97365,178.77393 285.95308,177.10553 282.11267,175.53658 278.84357,176.64128 259.56837,183.1548 250.94301,194.11721 235.12432,196.90143 228.9758,197.98362 222.6485,194.45159 216.46366,195.30194 214.95936,195.50877 212.60611,195.43875 212.19836,196.90143 Z"
     id="path6370"
     inkscape:connector-curvature="0"
     sodipodi:nodetypes="acaaaaasaaa" />
  <path
     style="fill:#000000;stroke:none;stroke-width:1px;stroke-linecap:butt;stroke-linejoin:miter;stroke-opacity:1;fill-opacity:1"
     d="M 326.82813,191.56981 C 324.96888,198.77693 332.30363,213.28548 339.09085,210.23047 358.61318,201.44321 371.82303,195.75737 389.20805,192.10297 404.72204,188.84186 419.77564,196.4233 436.65944,188.904 441.17318,186.89378 427.59569,177.17445 427.59569,177.17445 427.59569,177.17445 403.38451,176.17767 391.34069,177.17445 373.02577,178.69024 354.37479,180.37334 336.9582,186.2382 333.34191,187.45595 327.78131,187.87496 326.82813,191.56981 Z"
     id="path6372"
     inkscape:connector-curvature="0"
     sodipodi:nodetypes="asascaaa" />
  <path
     style="fill:#000000;stroke:none;stroke-width:1px;stroke-linecap:butt;stroke-linejoin:miter;stroke-opacity:1;fill-opacity:1"
     d="M 249.08865,222.79958 C 241.29229,234.61956 245.69711,240.93834 238.95858,251.05715 235.68404,255.9743 231.26629,260.66674 226.59373,264.61297 224.33396,266.52147 222.00975,270.08436 219.12946,269.41142 217.11125,268.93989 218.00152,264.00027 215.93049,264.07981 212.35657,264.21707 211.08499,270.10047 211.13204,273.67672 211.17178,276.69771 212.94367,279.91133 215.39733,281.67414 218.03116,283.56639 222.2296,284.96904 224.99424,283.27363 233.17167,278.25882 245.25439,265.67929 245.25439,265.67929 245.25439,265.67929 257.49626,252.87648 260.71608,242.22018 262.8984,234.99757 252.99913,216.87094 249.08865,222.79958 Z"
     id="path6374"
     inkscape:connector-curvature="0"
     sodipodi:nodetypes="ssaaaaascss" />
  <path
     style="fill:#000000;stroke:none;stroke-width:1px;stroke-linecap:butt;stroke-linejoin:miter;stroke-opacity:1;fill-opacity:1"
     d="M 396.13915,210.23047 C 401.07383,227.60201 406.86752,231.76184 413.4271,241.81167 416.61349,246.69347 418.70809,253.43413 424.09034,255.67387 426.9972,256.88351 430.96031,256.3966 433.46047,254.48289 436.055,252.49694 437.12863,248.68587 437.1926,245.41915 437.30379,239.74151 434.55949,234.09379 431.32782,229.42429 427.45542,223.82898 421.83705,219.35886 415.86613,216.09525 409.84654,212.80503 394.26459,203.63145 396.13915,210.23047 Z"
     id="path6376"
     inkscape:connector-curvature="0"
     sodipodi:nodetypes="saaaaaas" />
  <path
     style="fill:#000000;stroke:none;stroke-width:1px;stroke-linecap:butt;stroke-linejoin:miter;stroke-opacity:1;fill-opacity:1"
     d="M 303.90217,229.95746 C 305.69181,241.89121 314.17307,250.47946 311.8996,260.88083 306.83335,284.05945 297.31728,303.83109 285.95641,323.28328 278.6771,335.74698 273.68213,356.20641 259.29832,357.40563 255.615,357.71272 251.54549,346.24741 251.11917,349.91884 250.03919,359.21953 250.82771,367.71822 248.53296,376.11134 247.91009,378.3895 249.92887,380.06915 251.65233,380.84222 255.81863,382.71104 261.28701,381.20869 265.20815,378.86878 276.8654,371.91241 282.30274,357.69253 289.50681,346.18671 304.34378,322.49019 316.33567,297.08644 328.20084,271.77085 330.73621,266.36137 338.42525,260.22728 335.13194,255.24283 329.57056,246.82564 319.31834,230.00643 307.63431,224.09268 306.04864,223.29011 304.43534,228.35797 304.43534,228.35797 304.43534,228.35797 303.81882,229.40167 303.90217,229.95746 Z"
     id="path6378"
     inkscape:connector-curvature="0"
     sodipodi:nodetypes="ssaassaaaasscs" />
  <path
     style="fill:#000000;stroke:none;stroke-width:1px;stroke-linecap:butt;stroke-linejoin:miter;stroke-opacity:1;fill-opacity:1"
     d="M 354.31035,248.2069 C 355.04327,254.59852 361.63084,259.46074 362.06897,265.87931 363.53395,287.34131 352.91038,308.19282 344.39655,327.94828 339.50097,339.30796 332.95509,350.02661 325.43103,359.84483 316.65494,371.29683 306.81865,382.24602 295.25862,390.87931 284.85716,398.64735 272.83754,404.18185 260.77586,408.98276 251.90088,412.51527 242.62994,415.28364 233.18966,416.74138 224.38138,418.10153 215.37808,417.64926 206.46552,417.60345 199.70662,417.56871 186.20689,416.74138 186.20689,416.74138 L 215.94828,424.5 C 215.94828,424.5 242.84251,428.89858 256.03448,426.65517 269.055,424.44091 281.41009,418.46802 292.67241,411.56897 306.22713,403.26565 318.08127,392.19972 328.87931,380.53448 336.98078,371.78237 343.72006,361.79398 350,351.65517 357.24131,339.96425 363.26931,327.53393 368.96552,315.01724 371.71733,308.97049 371.75273,301.33257 376.2931,296.48276 378.35752,294.27764 382.40014,294.79139 384.48276,292.60345 388.87951,287.98434 392.41709,281.27921 391.81034,274.93103 390.94209,265.84689 383.41902,258.28734 376.72414,252.08621 372.38316,248.06538 366.56754,245.97048 361.2069,243.46552 359.39387,242.61831 357.35083,240.3349 355.60345,241.31034 353.56119,242.45038 354.04389,245.88321 354.31035,248.2069 Z"
     id="path6382"
     inkscape:connector-curvature="0"
     sodipodi:nodetypes="aaaaaaaaccaaaaaaaaaaaa" />
  <path
     style="fill:#000000;stroke:none;stroke-width:1px;stroke-linecap:butt;stroke-linejoin:miter;stroke-opacity:1;fill-opacity:1"
     d="M 100.43103,357.25861 C 106.32184,367.39968 113.07471,375.77559 121.12069,380.53448 121.12069,380.53448 165.03649,358.53811 187.5,348.63793 201.24534,342.58004 214.9301,336.16822 229.31034,331.82759 253.75068,324.45035 279.07088,320.14744 304.31034,316.31034 333.42666,311.88385 362.79399,308.14251 392.24138,307.68966 415.85475,307.32653 439.74068,307.96665 462.93103,312.43103 478.94867,315.51459 493.58734,323.85545 509.48276,327.51724 517.54161,329.37374 526.58887,334.52887 534.05172,330.96552 537.0758,329.52159 539.36418,325.69303 539.22414,322.34483 538.85421,313.50031 530.74601,306.1609 523.7069,300.7931 518.46509,296.79586 511.68031,294.94612 505.17241,293.89655 470.11337,288.24237 434.12297,295.16669 398.7069,297.77586 370.16092,299.8789 341.76757,303.73397 313.36207,307.25862 295.51618,309.473 277.65942,311.67557 259.91379,314.58621 240.282,317.80621 220.60406,321.01165 201.2931,325.79311 180.2933,330.99272 159.60537,337.50376 139.22414,344.75862 122.58478,350.68153 113.16319,351.92465 100.43103,357.25861 Z"
     id="path6384"
     inkscape:connector-curvature="0"
     sodipodi:nodetypes="ccaaaaaaaaaaaaaasc" />
  <path
     style="fill:#000000;stroke:none;stroke-width:1px;stroke-linecap:butt;stroke-linejoin:miter;stroke-opacity:1;fill-opacity:1"
     d="M 281.89655,358.98276 C 304.00897,368.09587 325.86207,373.92529 347.84483,381.39655 347.84483,381.39655 372.1308,391.99999 384.05172,397.77586 404.87071,407.86299 424.18814,421.1363 445.68966,429.67241 448.60621,430.83028 452.23618,434.1483 454.74138,432.25862 457.83842,429.92252 456.43312,424.11169 454.74138,420.62069 450.19107,411.2309 438.89998,406.94279 430.17241,401.22414 426.355,398.72282 422.27145,396.61792 418.10345,394.75862 393.82168,383.92676 368.55419,375.29718 343.10345,367.60345 330.36118,363.75148 317.27632,361.13509 304.31034,358.12069 294.56524,355.8551 275,351.65517 275,351.65517 271.72076,352.36033 278.79539,357.70469 281.89655,358.98276 Z"
     id="path6386"
     inkscape:connector-curvature="0"
     sodipodi:nodetypes="scaaaaaaaass" />
</svg>
