<?xml version="1.0" encoding="UTF-8" standalone="no"?>
<!-- Created with Inkscape (http://www.inkscape.org/) -->

<svg
   xmlns:dc="http://purl.org/dc/elements/1.1/"
   xmlns:cc="http://creativecommons.org/ns#"
   xmlns:rdf="http://www.w3.org/1999/02/22-rdf-syntax-ns#"
   xmlns:svg="http://www.w3.org/2000/svg"
   xmlns="http://www.w3.org/2000/svg"
   xmlns:sodipodi="http://sodipodi.sourceforge.net/DTD/sodipodi-0.dtd"
   xmlns:inkscape="http://www.inkscape.org/namespaces/inkscape"
   width="512"
   height="512"
   viewBox="0 0 512 512"
   version="1.1"
   id="svg8683"
   inkscape:version="0.92.4 (5da689c313, 2019-01-14)"
   sodipodi:docname="U+80A5.svg">
  <defs
     id="defs8677" />
  <sodipodi:namedview
     id="base"
     pagecolor="#ffffff"
     bordercolor="#666666"
     borderopacity="1.0"
     inkscape:pageopacity="0.0"
     inkscape:pageshadow="2"
     inkscape:zoom="1.6290957"
     inkscape:cx="257.16019"
     inkscape:cy="225.88954"
     inkscape:document-units="px"
     inkscape:current-layer="layer1"
     showgrid="false"
     units="px"
     inkscape:window-width="1920"
     inkscape:window-height="986"
     inkscape:window-x="-11"
     inkscape:window-y="-11"
     inkscape:window-maximized="1" />
  <metadata
     id="metadata8680">
    <rdf:RDF>
      <cc:Work
         rdf:about="">
        <dc:format>image/svg+xml</dc:format>
        <dc:type
           rdf:resource="http://purl.org/dc/dcmitype/StillImage" />
        <dc:title></dc:title>
      </cc:Work>
    </rdf:RDF>
  </metadata>
  <g
     inkscape:label="圖層 1"
     inkscape:groupmode="layer"
     id="layer1"
     transform="translate(0,-161.53331)">
    <path
       style="fill:#000000;stroke:none;stroke-width:1px;stroke-linecap:butt;stroke-linejoin:miter;stroke-opacity:1;fill-opacity:1"
       d="M 65.524343,322.45226 C 59.398835,328.44812 77.304658,340.82667 78.467423,351.57419 81.513364,379.72803 80.330289,408.19609 80.085308,436.51316 79.956923,451.35302 78.467423,481.00499 78.467423,481.00499 78.467423,481.00499 71.787457,515.19762 67.142228,531.96837 61.224255,553.33413 57.206302,575.87256 46.109723,595.06589 41.234204,603.49889 40.447125,609.62685 26.695103,616.90733 12.94308,624.18782 4.853655,632.27724 4.853655,632.27724 L 0,637.93984 C 0,637.93984 19.864742,637.5933 28.312988,633.08618 41.775299,625.90406 51.34348,612.57876 59.861745,599.91954 70.102625,584.7003 77.039948,567.27384 82.512135,549.7651 86.519558,536.943 88.181736,523.46374 89.792618,510.12692 93.647046,478.21534 90.851547,445.67491 95.455215,413.86277 97.248883,401.46821 99.36628,389.93085 101.36158,376.47413 102.78416,366.8799 100.53786,366.75066 101.11781,345.9116 101.30975,339.01465 93.453468,341.92068 88.114807,337.68668 79.464429,330.82621 71.658391,316.44804 65.524343,322.45226 Z"
       id="path8696"
       inkscape:connector-curvature="0"
       sodipodi:nodetypes="ssacaasccaaaasssss" />
    <path
       style="fill:#000000;stroke:none;stroke-width:1px;stroke-linecap:butt;stroke-linejoin:miter;stroke-opacity:1;fill-opacity:1"
       d="M 94.646273,284.43197 C 86.881584,287.78263 94.335916,295.2201 96.646305,302.36668 99.310272,310.60696 99.685259,316.84263 108.3983,317.5986 117.48869,318.38732 124.28484,313.72192 132.08723,309.98909 142.81907,304.85475 152.39373,300.93819 160.97956,294.13928 167.80285,288.73608 163.37321,303.8278 160.35554,322.48218 157.73178,338.70161 156.76763,357.41693 157.74379,370.17987 160.15875,401.75458 160.85377,419.33601 162.74014,439.81031 164.0636,454.17481 167.20575,472.01706 166.64216,488.28548 165.74226,514.2618 166.5866,546.30423 169.06898,552.19193 171.90521,558.91889 145.10816,543.58803 147.22754,550.57405 159.64241,591.4966 152.64823,587.58361 160.97956,603.96426 163.67167,609.25735 167.4511,617.71628 172.30476,617.71628 177.15841,617.71628 188.22606,589.07388 190.91043,573.22444 192.39908,564.43492 191.74966,554.95756 189.29255,546.52933 180.52539,516.45687 182.03661,483.96461 179.58524,451.07412 177.18164,418.82468 175.14115,386.04516 177.96735,343.48477 179.08168,326.70385 179.52074,312.29209 187.67466,299.80188 193.15836,291.40191 207.14767,290.81626 211.94294,282.00514 214.13798,277.97183 212.75188,268.25312 212.75188,268.25312 L 200.61774,252.88321 C 200.61774,252.88321 190.05451,249.41198 185.24783,251.26532 178.83343,253.73855 177.41258,263.13477 171.49581,266.63523 148.86525,280.02384 119.0104,273.91823 94.646273,284.43197 Z"
       id="path8698"
       inkscape:connector-curvature="0"
       sodipodi:nodetypes="sssssssssssasasssaaccaas" />
    <path
       style="fill:#000000;stroke:none;stroke-width:1px;stroke-linecap:butt;stroke-linejoin:miter;stroke-opacity:1;fill-opacity:1"
       d="M 103.54464,378.26929 C 103.36666,388.75981 131.85763,392.02131 131.85763,392.02131 134.50611,395.36242 139.94705,386.35872 139.94705,386.35872 139.94705,386.35872 140.1801,381.4648 140.29662,379.01784 140.44975,375.8022 142.38285,372.1489 140.756,369.37093 139.23251,366.76945 135.68054,365.39468 132.66657,365.32622 128.08485,365.22214 122.87867,366.44893 117.50522,367.81059 110.42335,369.60518 103.6471,372.23018 103.54464,378.26929 Z"
       id="path8700"
       inkscape:connector-curvature="0"
       sodipodi:nodetypes="sscaasss" />
    <path
       style="fill:#000000;stroke:none;stroke-width:1px;stroke-linecap:butt;stroke-linejoin:miter;stroke-opacity:1;fill-opacity:1"
       d="M 250.77218,322.45227 C 243.53984,326.8053 257.28813,342.91082 266.14208,345.9116 286.98012,352.97403 306.54177,321.83893 328.43066,324.07015 329.99485,324.22959 331.83544,325.06079 332.47536,326.49697 340.52506,344.56299 324.17349,365.19504 321.15017,384.74083 320.07138,391.71524 313.34239,401.207 318.72335,405.77334 323.21363,409.58384 331.49412,405.03057 335.71114,400.91969 344.2015,392.64302 341.88114,377.9593 346.35176,366.97736 351.48644,354.36417 355.27629,340.24351 364.83307,330.54169 372.95888,322.29256 393.30427,325.71758 395.57289,314.36284 397.97419,302.34402 382.35656,292.78031 372.11355,286.04986 366.47973,282.348 359.1267,278.35566 352.69893,280.38726 344.46737,282.98898 343.77539,295.93236 336.52008,300.61082 311.73158,316.59526 273.6453,308.6853 250.77218,322.45227 Z"
       id="path8702"
       inkscape:connector-curvature="0"
       sodipodi:nodetypes="saaaaaaaaaaaas" />
    <path
       style="fill:#000000;stroke:none;stroke-width:1px;stroke-linecap:butt;stroke-linejoin:miter;stroke-opacity:1;fill-opacity:1"
       d="M 223.26813,349.14736 C 220.7011,356.59262 237.07133,357.46672 241.87381,363.70833 244.37839,366.96344 246.83064,370.92768 246.72746,375.03353 245.99342,404.24463 238.30356,428.83061 238.63804,455.92778 238.8527,473.3182 237.69675,491.96725 245.10958,507.7001 253.48378,525.47336 267.60327,542.59343 285.5567,550.57405 319.07529,565.47367 358.97323,555.44215 395.57288,553.00088 426.89031,550.91194 457.30878,540.87407 488.60127,538.43991 492.90264,538.10532 499.1934,542.05747 501.54435,538.43991 504.43862,533.98631 497.90167,528.37438 495.07281,523.87895 486.20938,509.79381 479.00702,498.64262 462.71511,485.85865 455.40029,480.11884 459.50647,504.63985 454.62569,512.55375 450.72096,518.88504 445.16343,524.72685 438.44684,527.92366 417.5788,537.85597 392.79163,536.28441 369.68672,536.82203 346.69532,537.35701 322.98145,537.67672 300.92661,531.15943 288.89438,527.60386 275.84299,522.9586 267.75997,513.36269 258.42111,502.2759 255.80338,486.49091 254.00795,472.10662 251.73076,453.86266 254.2522,435.08698 258.05266,417.09854 261.36712,401.41045 258.05266,417.09854 274.23151,371.79776 278.34378,360.2834 260.25779,353.2051 249.96323,349.14737 241.68475,345.88429 226.16861,340.73498 223.26813,349.14736 Z"
       id="path8704"
       inkscape:connector-curvature="0"
       sodipodi:nodetypes="aasaaaaaaasaaaaaaasaa" />
    <path
       style="fill:#000000;stroke:none;stroke-width:1px;stroke-linecap:butt;stroke-linejoin:miter;stroke-opacity:1;fill-opacity:1"
       d="M 105.134,460.80995 C 126.83716,445.17287 137.59198,433.9231 153.69908,420.33431 158.37186,416.39211 162.49263,405.13495 167.6462,408.42379 175.3198,413.32084 165.12138,427.00191 160.30867,434.72869 155.24089,442.86499 144.73292,446.3058 138.85523,453.87777 134.23491,459.82992 130.28533,469.55601 128.45528,473.94814 124.41057,483.65545 123.99182,483.40607 119.72349,485.85865 115.25675,488.42523 108.62273,490.35983 104.35358,487.47653 104.35358,487.47653 85.031957,476.86793 82.254224,467.28391 81.604795,465.04318 82.23241,461.93549 84.095737,460.5317 89.697336,456.31158 99.443755,464.90976 105.134,460.80995 Z"
       id="path8706"
       inkscape:connector-curvature="0"
       sodipodi:nodetypes="saaaasasaas" />
    <path
       style="fill:#000000;stroke:none;stroke-width:1px;stroke-linecap:butt;stroke-linejoin:miter;stroke-opacity:1;fill-opacity:1"
       d="M 251.05953,416.94924 C 247.91224,423.43388 243.52744,439.98426 253.51489,438.43356 276.23595,434.90577 284.03913,418.15425 301.39421,413.26621 319.55209,408.15206 332.8043,413.73293 357.86726,409.58319 366.43164,408.16516 346.57949,396.12388 339.45213,391.16806 335.01698,388.0842 329.74355,382.42964 324.72003,384.41585 301.77322,393.48863 288.61256,396.24247 271.93001,404.05865 264.52559,407.5278 254.62982,409.59305 251.05953,416.94924 Z"
       id="path8708"
       inkscape:connector-curvature="0"
       sodipodi:nodetypes="asasassa" />
  </g>
</svg>
