<?xml version="1.0" encoding="UTF-8" standalone="no"?>
<!-- Created with Inkscape (http://www.inkscape.org/) -->

<svg
   xmlns:dc="http://purl.org/dc/elements/1.1/"
   xmlns:cc="http://creativecommons.org/ns#"
   xmlns:rdf="http://www.w3.org/1999/02/22-rdf-syntax-ns#"
   xmlns:svg="http://www.w3.org/2000/svg"
   xmlns="http://www.w3.org/2000/svg"
   xmlns:sodipodi="http://sodipodi.sourceforge.net/DTD/sodipodi-0.dtd"
   xmlns:inkscape="http://www.inkscape.org/namespaces/inkscape"
   width="512"
   height="530"
   viewBox="0 0 512 530"
   version="1.1"
   id="svg6307"
   inkscape:version="0.92.4 (5da689c313, 2019-01-14)"
   sodipodi:docname="U+8302.svg">
  <defs
     id="defs6301" />
  <sodipodi:namedview
     id="base"
     pagecolor="#ffffff"
     bordercolor="#666666"
     borderopacity="1.0"
     inkscape:pageopacity="0.0"
     inkscape:pageshadow="2"
     inkscape:zoom="1.42"
     inkscape:cx="285.56338"
     inkscape:cy="221.97183"
     inkscape:document-units="px"
     inkscape:current-layer="layer1"
     showgrid="false"
     units="px"
     showguides="false"
     inkscape:window-width="1920"
     inkscape:window-height="1017"
     inkscape:window-x="-8"
     inkscape:window-y="-8"
     inkscape:window-maximized="1" />
  <metadata
     id="metadata6304">
    <rdf:RDF>
      <cc:Work
         rdf:about="">
        <dc:format>image/svg+xml</dc:format>
        <dc:type
           rdf:resource="http://purl.org/dc/dcmitype/StillImage" />
        <dc:title></dc:title>
      </cc:Work>
    </rdf:RDF>
  </metadata>
  <g
     inkscape:label="圖層 1"
     inkscape:groupmode="layer"
     id="layer1"
     transform="translate(0,-156.77081)">
    <path
       style="fill:#000000;stroke:none;stroke-width:1px;stroke-linecap:butt;stroke-linejoin:miter;stroke-opacity:1;fill-opacity:1"
       d="M 118.30986,214.2356 C 120.5784,242.39368 129.42073,248.25162 137.32394,264.2356 143.44486,276.61495 151.49893,287.95341 159.15493,299.44687 161.39389,302.80808 164.32932,312.88677 166.19718,309.30602 166.19718,309.30602 165.30392,286.29937 164.78873,274.79898 164.3575,265.17278 167.60894,254.58416 163.38028,245.92574 158.48623,235.9049 147.31175,230.27409 138.02817,224.09475 131.91083,220.02292 117.71974,206.91075 118.30986,214.2356 Z"
       id="path6320"
       inkscape:connector-curvature="0"
       sodipodi:nodetypes="saasaaas" />
    <path
       style="fill:#000000;stroke:none;stroke-width:1px;stroke-linecap:butt;stroke-linejoin:miter;stroke-opacity:1;fill-opacity:1"
       d="M 76.056338,298.74264 C 73.239067,308.82551 94.366197,321.27785 97.183099,321.98208 100,322.6863 104.76237,321.25685 107.74648,319.16518 115.47854,313.74549 117.73861,303.04299 123.94366,295.92574 129.40197,289.66501 123.94366,295.92574 142.25352,279.02433 145.01873,276.47183 134.66682,278.94585 130.98592,279.72856 118.48966,282.38577 107.18809,289.06171 95.070423,293.10884 88.800486,295.20291 77.835223,292.3761 76.056338,298.74264 Z"
       id="path6322"
       inkscape:connector-curvature="0"
       sodipodi:nodetypes="acaasaaa" />
    <path
       style="fill:#000000;stroke:none;stroke-width:1px;stroke-linecap:butt;stroke-linejoin:miter;stroke-opacity:1;fill-opacity:1"
       d="M 228.87324,164.93982 C 226.21122,182.81471 228.861,196.85428 232.39437,213.53138 233.70443,219.71474 245.7525,217.74341 248.59155,223.39053 254.30964,234.76433 248.324,249.11121 245.07042,261.4187 240.26409,279.59986 232.52667,297.35918 221.83099,312.82715 219.56528,316.1038 211.34331,317.85431 213.38028,321.27785 216.76034,326.95873 227.34274,319.90765 232.39437,315.64405 244.18772,305.6904 251.40845,279.02433 252.8169,274.09475 254.22535,269.16518 264.79457,247.97656 266.90141,233.95391 268.68153,222.10586 269.73313,209.24404 265.49296,198.03842 261.41881,187.27153 252.85632,178.20521 243.66197,171.27785 239.37847,168.05051 229.66324,159.6351 228.87324,164.93982 Z"
       id="path6324"
       inkscape:connector-curvature="0"
       sodipodi:nodetypes="ssaaaaasaaas" />
    <path
       style="fill:#000000;stroke:none;stroke-width:1px;stroke-linecap:butt;stroke-linejoin:miter;stroke-opacity:1;fill-opacity:1"
       d="M 304.92958,312.12292 C 292.53554,312.25306 325.2675,326.39617 334.50704,334.65813 345.39844,344.39718 350.51074,363.24814 364.78873,366.34827 368.49475,367.15294 373.33168,365.33227 375.35211,362.12292 379.11228,356.15008 376.93462,347.38896 373.94366,340.99616 370.91817,334.52953 364.68249,329.69107 358.45071,326.20743 342.34813,317.20591 330.06343,311.859 304.92958,312.12292 Z"
       id="path6326"
       inkscape:connector-curvature="0"
       sodipodi:nodetypes="saaaaas" />
    <path
       style="fill:#000000;stroke:none;stroke-width:1px;stroke-linecap:butt;stroke-linejoin:miter;stroke-opacity:1;fill-opacity:1"
       d="M 134.50704,405.78489 C 129.30816,404.05193 130.27457,416.68796 131.69014,421.98208 134.05807,430.83793 143.72813,435.82636 149.29577,443.10884 151.03609,445.38518 151.40259,449.65868 154.22535,450.15109 163.84934,451.82991 169.88135,438.42214 178.16901,433.24968 194.74552,422.90401 211.5149,412.53435 229.57746,405.08067 248.32564,397.34406 268.93847,395.02999 288.02817,388.17926 298.61741,384.37909 316.19718,377.61588 319.01408,374.79898 321.83099,371.98208 330.126,367.84272 328.87324,362.82715 327.08793,355.67944 315.60358,352.61191 308.4507,354.37644 303.11061,355.69378 302.4998,364.05634 297.88732,367.0525 285.61103,375.02689 269.50734,374.35281 255.6338,379.02433 237.95211,384.97814 221.13502,393.29539 203.52113,399.44687 188.44965,404.71044 173.70957,413.71696 157.74648,413.53137 149.58152,413.43644 157.74648,413.53137 134.50704,405.78489 Z"
       id="path6328"
       inkscape:connector-curvature="0"
       sodipodi:nodetypes="saaaaaacaaaaaas" />
    <path
       style="fill:#000000;stroke:none;stroke-width:1px;stroke-linecap:butt;stroke-linejoin:miter;stroke-opacity:1;fill-opacity:1"
       d="M 323.23944,393.81306 C 323.23944,393.81306 318.18285,412.54121 314.08451,421.27785 307.27904,435.7854 298.85997,449.70457 288.73239,462.12292 273.41046,480.91053 254.84768,496.97999 235.91549,512.12292 220.45923,524.48562 202.31517,533.16394 186.61972,545.22152 180.68323,549.78206 176.74427,547.28112 169.71831,560.01025 166.62213,565.61969 161.17391,577.25516 166.90141,581.84123 173.33568,586.99322 182.73797,577.01547 190.14085,573.39053 203.59397,566.80299 216.46196,558.79177 228.16901,549.44687 250.48197,531.63603 269.63885,510.1092 288.73239,488.88349 303.46776,472.50263 320.05072,456.98891 330.28169,437.47504 334.14468,430.10703 338.70762,421.73477 337.32394,413.53137 335.9805,405.56658 329.25519,377.15533 323.23944,393.81306 Z"
       id="path6330"
       inkscape:connector-curvature="0"
       sodipodi:nodetypes="caaaasaaaaaac" />
    <path
       style="fill:#000000;stroke:none;stroke-width:1px;stroke-linecap:butt;stroke-linejoin:miter;stroke-opacity:1;fill-opacity:1"
       d="M 52.112676,402.96799 C 38.024358,399.75609 52.816901,424.09475 53.521127,428.32011 54.225352,432.54546 64.788732,449.44687 64.788732,449.44687 64.788732,449.44687 70.377902,451.47117 73.239437,452.26377 77.410804,453.41917 82.323557,452.66546 85.915493,455.08067 88.995553,457.1517 92.253521,464.2356 92.253521,464.2356 92.253521,464.2356 93.593911,502.92476 90.845071,521.98208 87.999863,541.7075 82.610641,561.16781 75.352113,579.72856 71.489664,589.60521 68.779064,601.19166 60.56338,607.89757 53.369231,613.76967 43.077907,616.10231 33.802817,615.64405 27.489902,615.33215 20.888997,604.36658 16.197183,608.6018 12.391514,612.03711 17.779384,618.99756 20.422535,623.39053 24.787708,630.64554 30.690038,638.34844 38.732395,640.99616 43.904124,642.6988 49.841642,640.82223 54.929577,638.88349 60.770396,636.65787 66.007685,632.74477 70.422536,628.3201 76.032957,622.69721 80.409693,615.78375 83.802817,608.6018 95.51109,583.81985 101.57067,556.58541 107.04225,529.72856 110.29736,513.75109 112.67606,485.36236 112.67606,481.13701 112.67606,476.91166 111.2362,449.20418 104.22535,435.36236 101.74919,430.47358 97.464387,426.50849 92.957746,423.39053 87.938619,419.918 81.546193,419.01503 76.056338,416.34827 67.832392,412.3534 68.616919,406.73068 52.112676,402.96799 Z"
       id="path6332"
       inkscape:connector-curvature="0"
       sodipodi:nodetypes="sscaacaaaaaaaaaaasaaas" />
    <path
       style="fill:#000000;stroke:none;stroke-width:1px;stroke-linecap:butt;stroke-linejoin:miter;stroke-opacity:1;fill-opacity:1"
       d="M 220.42254,255.78489 C 214.58171,257.85661 230.06646,263.59732 235.21127,267.0525 239.05477,269.63374 242.61494,274.8479 247.1831,274.09475 311.58469,263.47692 311.34935,255.45375 364.78874,252.26377 368.60327,252.03607 360.84735,243.50523 357.04226,240.99616 349.04813,235.72487 343.37626,229.52378 328.87325,235.36236 317.88778,239.78487 305.80091,240.73306 294.3662,243.81306 286.33323,245.97679 278.58868,249.26649 270.42254,250.85532 253.98333,254.05379 244.00694,247.41957 220.42254,255.78489 Z"
       id="path6334"
       inkscape:connector-curvature="0"
       sodipodi:nodetypes="sassasaas" />
    <path
       style="fill:#000000;stroke:none;stroke-width:1px;stroke-linecap:butt;stroke-linejoin:miter;stroke-opacity:1;fill-opacity:1"
       d="M 180.28169,286.77081 C 158.27779,279.64379 192.81655,308.92519 197.88732,320.57363 213.29714,355.97268 221.62185,394.15302 236.61972,429.72856 248.8136,458.65292 262.67321,486.93744 278.16901,514.2356 291.15458,537.11162 305.88721,558.99232 321.12676,580.43278 335.76208,601.02315 367.60563,640.29194 367.60563,640.29194 367.60563,640.29194 390.53705,667.105 405.6338,675.5032 414.1439,680.2373 426.05752,689.15255 433.80282,683.24968 435.29643,682.11136 434.33902,679.41563 433.80282,677.61588 432.04571,671.7182 430.9241,663.54346 429.57746,656.48912 428.59324,651.33324 425.32774,646.04581 426.76056,640.99617 429.3468,631.88161 432.71356,627.09263 445.77464,619.86941 452.80712,615.98021 452.12687,593.50684 448.59155,595.92574 421.83099,614.2356 431.47241,609.35064 421.83099,614.2356 413.61894,618.39634 404.97459,623.72302 395.77465,623.39053 389.89119,623.1779 384.37482,619.76084 379.57746,616.34827 359.8132,602.28907 345.20125,581.95027 330.28169,562.82715 319.22817,548.65932 309.96662,533.15529 300.70423,517.75673 290.90273,501.46191 273.23944,467.75673 273.23944,467.75673 273.23944,467.75673 249.32773,426.67938 241.5493,404.37644 235.54552,387.16191 233.05323,368.87487 230.28169,350.85532 228.45301,338.9659 227.34812,326.95469 226.76056,314.93982 226.69177,313.53305 227.4938,311.91701 226.76056,310.71447 217.68764,295.83449 195.61043,291.73576 180.28169,286.77081 Z"
       id="path6336"
       inkscape:connector-curvature="0"
       sodipodi:nodetypes="saaaacaasaassaaaaacaaaas" />
  </g>
</svg>
