<?xml version="1.0" encoding="UTF-8" standalone="no"?>
<!-- Created with Inkscape (http://www.inkscape.org/) -->

<svg
   xmlns:dc="http://purl.org/dc/elements/1.1/"
   xmlns:cc="http://creativecommons.org/ns#"
   xmlns:rdf="http://www.w3.org/1999/02/22-rdf-syntax-ns#"
   xmlns:svg="http://www.w3.org/2000/svg"
   xmlns="http://www.w3.org/2000/svg"
   xmlns:sodipodi="http://sodipodi.sourceforge.net/DTD/sodipodi-0.dtd"
   xmlns:inkscape="http://www.inkscape.org/namespaces/inkscape"
   width="512"
   height="512"
   viewBox="0 0 512 512"
   version="1.1"
   id="svg6937"
   inkscape:version="0.92.4 (5da689c313, 2019-01-14)"
   sodipodi:docname="U+8ECA.svg">
  <defs
     id="defs6931" />
  <sodipodi:namedview
     id="base"
     pagecolor="#ffffff"
     bordercolor="#666666"
     borderopacity="1.0"
     inkscape:pageopacity="0.0"
     inkscape:pageshadow="2"
     inkscape:zoom="1.52"
     inkscape:cx="232.70823"
     inkscape:cy="287.80737"
     inkscape:document-units="px"
     inkscape:current-layer="svg6937"
     showgrid="false"
     units="px"
     inkscape:window-width="1920"
     inkscape:window-height="986"
     inkscape:window-x="-11"
     inkscape:window-y="-11"
     inkscape:window-maximized="1" />
  <metadata
     id="metadata6934">
    <rdf:RDF>
      <cc:Work
         rdf:about="">
        <dc:format>image/svg+xml</dc:format>
        <dc:type
           rdf:resource="http://purl.org/dc/dcmitype/StillImage" />
        <dc:title></dc:title>
      </cc:Work>
    </rdf:RDF>
  </metadata>
  <g
     inkscape:label="圖層 1"
     inkscape:groupmode="layer"
     id="layer1"
     transform="translate(0,-161.53331)" />
  <path
     style="fill:#000000;stroke:none;stroke-width:1px;stroke-linecap:butt;stroke-linejoin:miter;stroke-opacity:1;fill-opacity:1"
     d="M 139.09774,134.55639 C 141.20536,140.92334 144.04559,143.25934 149.13655,146.45149 152.02142,148.26037 157.25499,151.86562 163.85395,152.12506 188.05627,153.07657 185.83348,145.37866 201.99881,140.57143 219.02631,135.5078 235.75253,129.23744 253.12663,125.53383 263.59925,123.3014 274.37172,122.82229 284.96241,121.24217 302.29385,118.65633 319.41421,114.57774 336.84211,112.75188 345.98958,111.79353 355.22537,112.04431 364.40482,111.46773 368.50516,111.21018 375.02015,114.24923 376.69173,110.49624 378.40888,106.64093 372.22028,103.16313 368.99055,100.44636 363.92271,96.183444 357.80234,92.875001 351.38465,91.24142 345.71461,89.79815 339.58893,89.889095 333.83459,90.947368 313.92353,94.609187 296.8116,107.60968 277.44361,113.50376 255.62325,120.14415 233.06129,124.26837 210.52632,127.78947 200.57204,129.34483 190.51369,130.29511 180.45113,130.79699 172.69135,131.18401 157.14286,130.79699 157.14286,130.79699 157.14286,130.79699 152.42594,123.78682 148.87218,124.03008 144.09515,124.35707 137.59302,130.01075 139.09774,134.55639 Z"
     id="path6950"
     inkscape:connector-curvature="0"
     sodipodi:nodetypes="ssssaaaaaaaaaaacas" />
  <path
     style="fill:#000000;stroke:none;stroke-width:1px;stroke-linecap:butt;stroke-linejoin:miter;stroke-opacity:1;fill-opacity:1"
     d="M 185.64356,184.77228 C 186.1879,192.59295 197.52475,205.06931 197.52475,205.06931 197.52475,205.06931 206.43564,209.0297 208.41584,207.0495 210.39604,205.06931 281.18812,186.25743 281.18812,186.25743 281.18812,186.25743 296.47449,183.25305 303.46535,185.76238 309.41208,187.89692 319.08815,191.94861 317.82178,198.13862 311.83345,227.40953 301.19669,246.51316 295.54455,271.40594 293.36384,281.01007 289.76337,290.8549 291.08911,300.61386 291.79506,305.81044 295.30386,319.72113 297.52475,314.9703 319.69515,267.54434 321.51248,235.10901 337.62376,190.71287 339.08735,186.6798 346.58395,188.90492 349.50495,185.76238 352.34711,182.70466 355.73794,177.38302 353.46535,173.88119 347.34698,164.4534 340.41715,161.25722 332.17822,158.0396 329.24159,156.89273 325.66974,155.80698 322.77228,157.0495 317.79747,159.18286 318.2728,169.56918 312.87129,169.92079 273.66932,172.47263 245.34241,179.2235 211.38614,178.83168 203.91519,178.74547 195.53725,172.5487 189.10891,176.35644 186.49867,177.90258 185.43291,181.74581 185.64356,184.77228 Z"
     id="path6952"
     inkscape:connector-curvature="0"
     sodipodi:nodetypes="acccasaassasaasaaa" />
  <path
     style="fill:#000000;stroke:none;stroke-width:1px;stroke-linecap:butt;stroke-linejoin:miter;stroke-opacity:1;fill-opacity:1"
     d="M 139.60396,209.52475 C 141.67895,218.36028 153.86817,222.52645 155.94059,231.30693 161.42921,254.56118 166.25806,276.66737 172.27723,299.12871 174.23695,306.44168 178.71287,320.91089 178.71287,320.91089 178.71287,320.91089 182.18708,331.57296 183.66337,328.83168 188.62472,319.61907 189.87136,312.60131 190.09901,304.07921 190.34185,294.98856 186.68263,286.21115 184.65347,277.34653 180.32221,258.42491 174.65426,242.72357 170.29703,220.91089 168.77743,213.30365 160.89109,199.62376 160.89109,199.62376 160.89109,199.62376 149.01334,187.74945 143.06931,190.71287 137.36303,193.55776 138.14621,203.31749 139.60396,209.52475 Z"
     id="path6954"
     inkscape:connector-curvature="0"
     sodipodi:nodetypes="asacsaascaa" />
  <path
     style="fill:#000000;stroke:none;stroke-width:1px;stroke-linecap:butt;stroke-linejoin:miter;stroke-opacity:1;fill-opacity:1"
     d="M 200.49505,246.65347 C 195.28624,248.75108 209.56557,261.47583 216.33663,259.0297 235.39143,252.14592 254.39419,246.79414 273.26733,240.21782 278.2465,238.48283 287.60259,240.01973 288.11881,234.77228 288.89461,226.88612 275.7229,223.00075 267.82178,222.39604 261.4049,221.90493 256.00698,227.51232 250,229.82178 241.66981,233.02444 233.20289,235.86221 224.75248,238.73267 216.69849,241.46847 200.49505,246.65347 200.49505,246.65347 Z"
     id="path6956"
     inkscape:connector-curvature="0"
     sodipodi:nodetypes="ssaaaaas" />
  <path
     style="fill:#000000;stroke:none;stroke-width:1px;stroke-linecap:butt;stroke-linejoin:miter;stroke-opacity:1;fill-opacity:1"
     d="M 159.40594,305.56436 C 150.97129,313.34028 172.69344,317.82224 180.69307,316.95049 201.24321,314.71107 215.76645,306.94757 233.66337,303.58416 250.66108,300.38974 268.03994,299.68292 285.14851,297.14852 290.94509,296.28984 306.54968,298.38971 302.47525,294.17822 295.40996,286.87526 288.39667,286.74899 280.69307,285.26733 252.04149,279.75666 216.50669,294.22609 184.65346,300.11881 176.18774,301.68494 166.85517,298.69691 159.40594,305.56436 Z"
     id="path6958"
     inkscape:connector-curvature="0"
     sodipodi:nodetypes="ssaassas" />
  <path
     style="fill:#000000;fill-opacity:1;stroke:none;stroke-width:1px;stroke-linecap:butt;stroke-linejoin:miter;stroke-opacity:1"
     d="M 26.237624,384.77228 C 29.602458,392.80947 33.386768,406.16434 42.079208,405.56436 62.388338,404.16256 75.052852,389.8463 92.079208,383.28713 109.90164,376.42129 128.07627,370.3712 146.53465,365.46535 167.86565,359.79602 189.57822,355.50006 211.38614,352.09901 231.39032,348.97926 251.58936,347.12964 271.78218,345.66337 288.74703,344.4315 305.77093,343.15625 322.77228,343.68317 337.52656,344.14044 364.85149,348.13861 366.83168,348.13861 368.81188,348.13861 385.14851,353.58416 385.14851,353.58416 385.14851,353.58416 412.73507,367.55211 425.74257,375.86139 429.0246,377.95797 431.35428,383.67024 435.14851,382.79208 439.31916,381.8268 441.53998,375.66303 441.08911,371.40594 440.29914,363.94712 432.42832,358.95955 426.73267,354.07921 417.68531,346.32695 406.46936,341.52192 396.0396,335.76238 393.28374,334.24053 390.72485,332.01851 387.62376,331.47629 380.20418,330.179 372.7321,334.0681 365.20323,334.29025 357.65149,334.51307 350.14225,332.82812 342.58728,332.7986 325.55769,332.73204 308.55852,334.3904 291.58416,335.76238 259.66951,338.34194 227.83476,341.88621 196.0396,345.66337 180.00265,347.56851 163.84,348.85333 148.0198,352.09901 131.74369,355.43823 115.78558,360.28098 100,365.46535 93.692945,367.53674 87.747802,370.65191 81.383524,372.54018 69.664144,376.0173 55.480099,379.59574 45.544554,380.31683 38.746634,380.8102 30.017263,372.97283 25.247525,377.84158 23.614396,379.50861 25.3364,382.61963 26.237624,384.77228 Z"
     id="path6960"
     inkscape:connector-curvature="0"
     sodipodi:nodetypes="asaaaaascaaaaaaaaaaaaasaa" />
  <path
     style="fill:#000000;stroke:none;stroke-width:1px;stroke-linecap:butt;stroke-linejoin:miter;stroke-opacity:1;fill-opacity:1"
     d="M 224.34211,27.131579 C 222.29676,37.62818 236.87374,45.047895 239.47368,55.421053 242.29942,66.69513 239.79616,78.671142 239.47368,90.289474 238.81553,114.00108 236.41687,137.6381 235.52632,161.34211 234.68638,183.69906 233.98263,206.07581 234.21053,228.44737 234.4341,250.39359 236.84211,291.60526 236.84211,294.23684 236.84211,296.86842 238.42939,331.95299 238.15789,350.81579 237.85449,371.89477 236.67355,392.96994 234.86842,413.97368 233.92278,424.9767 230.92105,446.86842 230.92105,446.86842 L 220.39474,437 C 215.11761,432.0527 223.84874,451.04901 225.6579,458.05263 229.91524,474.53376 231.07044,494.89096 238.81579,507.39474 238.81579,507.39474 248.82163,490.08235 253.28947,475.15789 257.33858,461.63218 249.45289,447.15048 248.68421,433.05263 247.41863,409.84149 247.98976,386.55103 248.68421,363.31579 249.4521,337.62349 253.02033,312.04447 253.28947,286.34211 253.52616,263.7386 253.06622,241.05504 250.65789,218.57895 249.85123,211.0507 247.26517,203.76154 246.71053,196.21053 244.99093,172.79946 245.80901,149.11317 248.68421,125.81579 251.29755,104.64017 259.01429,84.365398 262.5,63.315789 263.14885,59.397489 263.81579,51.473684 263.81579,51.473684 263.81579,51.473684 258.13851,35.235679 251.97368,29.763158 248.44096,26.627164 243.42425,25.537621 238.81579,24.5 235.38603,23.72777 228.28947,23.842105 228.28947,23.842105 228.28947,23.842105 224.6697,25.450426 224.34211,27.131579 Z"
     id="path6962"
     inkscape:connector-curvature="0"
     sodipodi:nodetypes="aaaaasaacsacsaaaaaaacaaca" />
</svg>
