<?xml version="1.0" encoding="UTF-8" standalone="no"?>
<!-- Created with Inkscape (http://www.inkscape.org/) -->

<svg
   xmlns:dc="http://purl.org/dc/elements/1.1/"
   xmlns:cc="http://creativecommons.org/ns#"
   xmlns:rdf="http://www.w3.org/1999/02/22-rdf-syntax-ns#"
   xmlns:svg="http://www.w3.org/2000/svg"
   xmlns="http://www.w3.org/2000/svg"
   xmlns:sodipodi="http://sodipodi.sourceforge.net/DTD/sodipodi-0.dtd"
   xmlns:inkscape="http://www.inkscape.org/namespaces/inkscape"
   width="512"
   height="512"
   viewBox="0 0 512 512"
   version="1.1"
   id="svg7513"
   inkscape:version="0.92.4 (5da689c313, 2019-01-14)"
   sodipodi:docname="U+8F15.svg">
  <defs
     id="defs7507" />
  <sodipodi:namedview
     id="base"
     pagecolor="#ffffff"
     bordercolor="#666666"
     borderopacity="1.0"
     inkscape:pageopacity="0.0"
     inkscape:pageshadow="2"
     inkscape:zoom="1.5277688"
     inkscape:cx="263.06719"
     inkscape:cy="239.76235"
     inkscape:document-units="px"
     inkscape:current-layer="layer1"
     showgrid="false"
     units="px"
     inkscape:window-width="1920"
     inkscape:window-height="986"
     inkscape:window-x="-11"
     inkscape:window-y="-11"
     inkscape:window-maximized="1" />
  <metadata
     id="metadata7510">
    <rdf:RDF>
      <cc:Work
         rdf:about="">
        <dc:format>image/svg+xml</dc:format>
        <dc:type
           rdf:resource="http://purl.org/dc/dcmitype/StillImage" />
        <dc:title></dc:title>
      </cc:Work>
    </rdf:RDF>
  </metadata>
  <g
     inkscape:label="圖層 1"
     inkscape:groupmode="layer"
     id="layer1"
     transform="translate(0,-161.53331)">
    <path
       style="fill:#000000;stroke:none;stroke-width:1px;stroke-linecap:butt;stroke-linejoin:miter;stroke-opacity:1;fill-opacity:1"
       d="M 119.78252,301.74931 C 124.99924,307.68982 132.87703,311.94678 140.7281,312.87665 161.53845,315.34141 181.14568,301.71918 201.60118,297.16746 208.53512,295.62453 222.54676,293.24017 222.54676,293.24017 227.69511,288.02105 211.90016,282.24128 204.87393,280.14918 201.31291,279.08887 197.41174,280.19399 193.74659,280.80373 181.68438,282.81041 170.26433,287.65827 158.40093,290.62197 150.59464,292.57213 142.81695,294.82683 134.83715,295.85837 129.20704,296.58617 120.96215,291.7856 117.81887,296.51292 116.7867,298.06524 118.55246,300.34859 119.78252,301.74931 Z"
       id="path7526"
       inkscape:connector-curvature="0"
       sodipodi:nodetypes="aaasaaaaaa" />
    <path
       style="fill:#000000;stroke:none;stroke-width:1px;stroke-linecap:butt;stroke-linejoin:miter;stroke-opacity:1;fill-opacity:1"
       d="M 83.127761,354.11325 C 87.518499,387.19744 94.848809,404.13253 99.491493,429.38642 102.40384,445.22812 101.3967,462.13498 106.69154,477.16852 108.43409,482.1161 112.65149,489.19766 117.81887,488.29586 121.85713,487.59111 122.55188,481.23678 123.05527,477.16852 124.44772,465.91512 118.64185,454.92349 116.50977,443.78651 112.71197,423.94862 107.70119,404.28713 105.38244,384.22252 104.83083,379.4493 104.72789,369.82244 104.72789,369.82244 104.72789,369.82244 106.0039,363.84645 104.72789,361.3133 101.42983,354.76597 94.277183,346.96308 87.055056,348.22231 84.730121,348.62768 82.817277,351.77375 83.127761,354.11325 Z"
       id="path7528"
       inkscape:connector-curvature="0"
       sodipodi:nodetypes="sasaaaacaas" />
    <path
       style="fill:#000000;stroke:none;stroke-width:1px;stroke-linecap:butt;stroke-linejoin:miter;stroke-opacity:1;fill-opacity:1"
       d="M 125.67346,347.56776 C 116.92908,350.21975 139.79341,361.26557 155.12818,358.04055 173.32609,354.21339 154.23063,358.46811 203.56483,344.94956 207.65056,343.82999 213.03907,344.53922 216.00127,347.56776 218.48478,350.10689 219.40755,353.41589 217.96492,358.04055 207.88303,390.36017 203.09503,414.46191 193.09204,441.82286 191.78368,445.4016 188.5102,452.29565 188.5102,452.29565 188.5102,452.29565 188.76366,480.71753 194.40114,475.20487 209.7057,460.23916 204.9751,446.44109 210.11032,432.00462 217.23286,411.98126 223.15947,391.51707 231.0559,371.78608 232.03543,369.33849 232.66212,366.6288 234.32865,364.58604 236.2046,362.28658 239.82828,361.78179 241.52869,359.34965 244.2591,355.44428 247.67914,349.81893 245.45599,345.60411 243.52464,341.94251 237.76038,342.33993 233.6741,341.67682 232.16654,341.43218 230.57319,342.05019 229.09225,341.67682 219.72119,339.31421 213.22553,327.66744 203.56483,327.93128 198.96397,328.05693 196.07861,333.47877 191.78294,335.13132 170.8551,343.18226 150.2102,340.12628 125.67346,347.56776 Z"
       id="path7530"
       inkscape:connector-curvature="0"
       sodipodi:nodetypes="sssasacsaaaaaaaaas" />
    <path
       style="fill:#000000;stroke:none;stroke-width:1px;stroke-linecap:butt;stroke-linejoin:miter;stroke-opacity:1;fill-opacity:1"
       d="M 117.81887,407.7863 C 117.81887,407.7863 123.7633,422.05363 138.76445,418.25908 156.59929,413.74774 163.32786,416.05048 195.05569,401.89535 200.84774,399.31127 188.72208,389.22176 182.61925,387.49527 182.61925,387.49527 164.73688,393.19544 155.78273,396.00441 143.1402,399.97045 118.6764,393.96091 117.81887,407.7863 Z"
       id="path7532"
       inkscape:connector-curvature="0"
       sodipodi:nodetypes="ssssas" />
    <path
       style="fill:#000000;stroke:none;stroke-width:1px;stroke-linecap:butt;stroke-linejoin:miter;stroke-opacity:1;fill-opacity:1"
       d="M 9.8182395,526.91427 C 4.3725443,528.76183 12.309243,536.65282 15.578331,540.20708 18.293725,543.15935 22.360478,546.87064 26.181972,545.8962 38.852959,542.66523 49.420936,533.81967 61.527634,528.87792 75.389508,523.21973 89.707917,518.69698 104.07334,514.47783 117.02036,510.67527 138.76445,504.65959 143.3463,504.65959 145.52689,504.65959 161.95724,503.29057 171.25704,502.53404 180.7213,501.76412 190.18962,499.12809 199.63754,500.07775 215.61544,501.68378 231.65382,509.31521 248.07418,511.85964 254.34172,512.83083 263.58795,518.47882 267.05611,513.16873 269.8845,508.83819 263.8032,502.76588 259.85607,499.4232 248.6411,489.92567 232.63111,486.61652 217.96492,485.67766 207.54532,485.01064 197.47858,489.72841 187.2011,491.56861 163.68625,495.77897 140.05115,499.29109 116.50977,503.35049 94.451598,507.15413 71.981571,509.19275 50.400296,515.13238 44.331514,516.80264 38.76386,519.99698 32.732658,521.79822 25.233746,524.0378 21.445624,522.96945 9.8182395,526.91427 Z"
       id="path7534"
       inkscape:connector-curvature="0"
       sodipodi:nodetypes="sasaasasaaaaaaaas" />
    <path
       style="fill:#000000;fill-opacity:1;stroke:none;stroke-width:1px;stroke-linecap:butt;stroke-linejoin:miter;stroke-opacity:1"
       d="M 307.63817,303.71296 C 301.69697,306.20753 320.18546,322.62593 321.3837,326.62218 323.27299,332.92317 334.82083,326.85853 341.02018,324.65854 351.1144,321.07636 358.7074,312.55488 367.8567,306.98571 376.61814,301.65262 394.69323,291.93107 394.69323,291.93107 403.60121,288.76873 387.96821,313.19917 382.25679,320.73124 365.32138,343.06522 352.75657,357.98255 335.78379,377.02248 318.12616,396.83067 298.61348,414.91408 279.49255,433.31372 273.70754,438.88052 269.50598,451.99628 261.81972,449.67745 254.72687,447.53764 256.58332,428.07732 256.58332,428.07732 252.19598,427.0859 249.34102,437.7229 246.76508,443.13196 244.00604,448.92549 240.83964,455.04247 240.87414,461.45934 240.8964,465.59901 241.21408,471.17525 244.80144,473.24123 250.40061,476.46581 258.34279,472.79943 263.78337,469.31393 285.72304,455.25833 302.26283,438.94586 319.42006,421.53183 338.55561,402.10987 354.61595,379.87622 371.784,358.6951 386.65324,340.35014 397.3285,317.9703 415.6388,303.05841 417.90856,301.20992 421.47106,301.24745 423.49339,299.13111 426.46253,296.02394 428.72979,287.34923 428.72979,287.34923 428.72979,287.34923 419.40452,278.00177 413.67515,274.91279 411.063,273.50446 408.09374,271.80972 405.16601,272.29459 397.45894,273.57097 393.2708,282.75278 386.18408,286.04012 370.48674,293.32172 352.69698,294.81977 335.78378,298.47656 326.45645,300.49322 324.6474,296.57118 307.63817,303.71296 Z"
       id="path7536"
       inkscape:connector-curvature="0"
       sodipodi:nodetypes="ssaasssaacaaasaaaacaaaas" />
    <path
       style="fill:#000000;stroke:none;stroke-width:1px;stroke-linecap:butt;stroke-linejoin:miter;stroke-opacity:1;fill-opacity:1"
       d="M 405.82056,402.5499 428.07524,414.98634 393.38413,432.65917 390.76593,437.89556 434.62073,435.93192 477.82099,440.51376 494.18472,429.38642 488.94832,416.94999 445.74807,403.859 Z"
       id="path7538"
       inkscape:connector-curvature="0" />
    <path
       style="fill:#000000;stroke:none;stroke-width:1px;stroke-linecap:butt;stroke-linejoin:miter;stroke-opacity:1;fill-opacity:1"
       d="M 277.5289,503.35049 C 271.77644,509.34505 278.29359,521.03069 283.41985,527.56881 287.21323,532.40697 292.39264,538.60821 299.78358,536.07796 317.24504,530.10013 327.94978,519.85403 342.98383,513.82328 352.27451,510.09642 362.11048,507.88885 371.784,505.31414 384.56913,501.91123 398.04922,500.88734 410.40241,496.15045 412.955,495.17164 417.37757,494.94772 417.60245,492.22316 418.12662,485.87246 402.54782,480.44127 402.54782,480.44127 402.54782,480.44127 391.11335,478.7626 385.52954,479.78672 370.1438,482.6086 357.16223,493.14747 342.32928,498.1141 331.23973,501.8273 319.89979,505.19434 308.29272,506.62324 303.52865,507.20972 298.6693,507.09622 293.89263,506.62324 288.3571,506.07511 281.38037,499.33693 277.5289,503.35049 Z"
       id="path7540"
       inkscape:connector-curvature="0"
       sodipodi:nodetypes="aasaaaacaaaaa" />
    <path
       style="fill:#000000;stroke:none;stroke-width:1px;stroke-linecap:butt;stroke-linejoin:miter;stroke-opacity:1;fill-opacity:1"
       d="M 225.81951,579.93276 C 225.81951,579.93276 234.92742,599.98614 250.69238,608.73293 258.12322,612.85575 265.32208,600.04812 272.94706,596.29649 283.38363,591.1615 293.82548,585.70907 305.01997,582.55096 323.90712,577.22266 343.79555,576.42339 363.27486,574.04182 378.72591,572.15275 394.18184,569.40858 409.74786,569.45997 418.08458,569.48749 426.76801,569.2788 434.62073,572.07817 441.74591,574.61819 446.29978,582.54285 453.60266,584.51461 457.61037,585.59668 463.62724,587.23875 466.0391,583.86006 467.88482,581.27446 465.03195,577.43436 463.42091,574.69637 459.66543,568.31389 453.64104,563.42372 447.71172,558.98718 441.14499,554.0737 426.11159,547.2053 426.11159,547.2053 426.11159,547.2053 412.41821,545.04543 405.82056,546.55075 400.30221,547.80982 396.08586,552.47254 390.76593,554.40534 373.54996,560.66014 355.07811,562.71681 337.09289,566.18723 316.243,570.21041 294.98509,572.05405 274.25615,576.66001 264.7477,578.77278 255.84784,584.27081 246.11054,584.51461 239.17874,584.68816 225.80612,572.99881 225.81951,579.93276 Z"
       id="path7542"
       inkscape:connector-curvature="0"
       sodipodi:nodetypes="ssaaaaaaaaacaaaaas" />
    <path
       style="fill:#000000;stroke:none;stroke-width:1px;stroke-linecap:butt;stroke-linejoin:miter;stroke-opacity:1;fill-opacity:1"
       d="M 151.20089,198.98507 C 152.89194,221.04025 162.30413,220.13237 164.29187,231.71253 167.02556,247.63843 163.63857,264.04358 162.32823,280.14918 160.58139,301.61988 156.28833,322.82994 154.47363,344.29501 152.11839,372.15373 151.93562,400.15376 150.54634,428.07732 149.10238,457.09994 147.28657,486.10395 145.96449,515.13238 145.18964,532.14561 145.86654,549.25886 144.00085,566.18723 142.27564,581.84098 135.17501,596.91489 135.4917,612.66023 135.85148,630.54763 139.36255,648.97724 147.27359,665.02417 148.02709,666.55259 148.86327,669.2181 150.54634,668.95146 157.50921,667.84839 157.19856,656.26141 158.40093,649.31499 162.34826,626.51022 155.83574,603.07657 155.78273,579.93276 155.69223,540.42003 158.31743,500.94762 159.71003,461.45934 160.5334,438.11195 160.56713,414.71799 162.32823,391.42256 164.21539,366.45972 166.84136,341.51703 170.83737,316.80394 175.07225,290.61355 187.2011,238.91258 187.2011,238.91258 187.2011,238.91258 188.80785,231.12828 187.2011,227.78524 180.54403,213.93438 150.02605,183.66246 151.20089,198.98507 Z"
       id="path7544"
       inkscape:connector-curvature="0"
       sodipodi:nodetypes="saaaaaaaaaaaaaacas" />
    <path
       style="fill:#000000;stroke:none;stroke-width:1px;stroke-linecap:butt;stroke-linejoin:miter;stroke-opacity:1;fill-opacity:1"
       d="M 320.72915,439.85921 C 323.94466,441.30319 327.95351,441.3998 330.54739,443.78651 333.06051,446.09891 335.12924,452.9502 335.12924,452.9502 335.12924,452.9502 335.88692,499.64059 335.78379,522.98697 335.73077,534.9889 332.26952,547.33079 335.12924,558.98718 335.78062,561.64227 336.9888,564.39885 339.05654,566.18723 343.80795,570.29669 351.53769,576.26967 356.72937,572.73272 365.7469,566.58932 356.70036,550.89516 357.38392,540.00525 358.81336,517.23246 359.98878,494.28225 364.58396,471.93213 366.51579,462.53605 372.68591,459.2554 373.0931,444.44106 373.38308,433.89075 355.91737,430.96498 345.60203,428.73187 336.39298,426.73825 325.477,426.40524 317.45641,431.35007 315.7043,432.43028 313.62616,434.60506 314.18366,436.58646 314.84436,438.93464 318.50387,438.85991 320.72915,439.85921 Z"
       id="path7546"
       inkscape:connector-curvature="0"
       sodipodi:nodetypes="aacaaaaaasaaaa" />
    <path
       style="fill:#000000;stroke:none;stroke-width:1px;stroke-linecap:butt;stroke-linejoin:miter;stroke-opacity:1;fill-opacity:1"
       d="M 105.38244,465.38663 C 104.1102,471.28565 113.00998,477.88302 119.12797,477.16852 151.20031,473.42288 169.96466,464.07264 199.63753,461.45934 206.65333,460.84146 193.27388,443.01084 186.54655,445.0956 159.86918,453.36278 142.77727,455.04361 121.09162,460.80479 115.81991,462.20531 106.53238,460.05465 105.38244,465.38663 Z"
       id="path7548"
       inkscape:connector-curvature="0"
       sodipodi:nodetypes="asssaa" />
  </g>
</svg>
