<?xml version="1.0" encoding="UTF-8" standalone="no"?>
<!-- Created with Inkscape (http://www.inkscape.org/) -->

<svg
   xmlns:dc="http://purl.org/dc/elements/1.1/"
   xmlns:cc="http://creativecommons.org/ns#"
   xmlns:rdf="http://www.w3.org/1999/02/22-rdf-syntax-ns#"
   xmlns:svg="http://www.w3.org/2000/svg"
   xmlns="http://www.w3.org/2000/svg"
   xmlns:sodipodi="http://sodipodi.sourceforge.net/DTD/sodipodi-0.dtd"
   xmlns:inkscape="http://www.inkscape.org/namespaces/inkscape"
   width="512"
   height="512"
   viewBox="0 0 512 512"
   version="1.1"
   id="svg9259"
   inkscape:version="0.92.4 (5da689c313, 2019-01-14)"
   sodipodi:docname="U+99D5.svg">
  <defs
     id="defs9253" />
  <sodipodi:namedview
     id="base"
     pagecolor="#ffffff"
     bordercolor="#666666"
     borderopacity="1.0"
     inkscape:pageopacity="0.0"
     inkscape:pageshadow="2"
     inkscape:zoom="1.5208438"
     inkscape:cx="309.46046"
     inkscape:cy="265.76227"
     inkscape:document-units="px"
     inkscape:current-layer="layer1"
     showgrid="false"
     units="px"
     inkscape:window-width="1920"
     inkscape:window-height="986"
     inkscape:window-x="-11"
     inkscape:window-y="-11"
     inkscape:window-maximized="1" />
  <metadata
     id="metadata9256">
    <rdf:RDF>
      <cc:Work
         rdf:about="">
        <dc:format>image/svg+xml</dc:format>
        <dc:type
           rdf:resource="http://purl.org/dc/dcmitype/StillImage" />
        <dc:title></dc:title>
      </cc:Work>
    </rdf:RDF>
  </metadata>
  <g
     inkscape:label="圖層 1"
     inkscape:groupmode="layer"
     id="layer1"
     transform="translate(0,-161.53331)">
    <path
       style="fill:#000000;stroke:none;stroke-width:1px;stroke-linecap:butt;stroke-linejoin:miter;stroke-opacity:1;fill-opacity:1"
       d="M 82.868062,296.02325 C 82.374292,303.799 89.550599,310.13665 92.075624,317.50756 93.651806,322.10866 91.470549,329.33091 95.758649,331.62583 111.21961,339.90029 128.41749,318.48757 145.47949,314.43838 178.16416,306.68159 200.81591,307.10157 225.27836,294.79558 230.73142,292.05238 239.39662,283.13266 239.39662,283.13266 247.6692,280.72573 239.96541,300.64223 237.55511,308.91384 233.07523,324.2878 222.23503,345.59451 219.75382,353.11014 218.57452,356.68225 210.91549,345.40731 209.31859,348.81328 198.99752,370.8267 192.18713,382.29689 192.13114,395.46493 192.10545,401.507 201.51822,406.66256 200.72486,412.65237 198.93271,426.18295 190.98844,428.53306 197.04184,431.0675 207.15826,435.30304 213.94726,419.12898 219.75383,410.81086 240.78481,380.68321 242.46857,340.44328 260.26709,308.3 262.60637,304.07539 266.74291,300.9769 268.86082,296.63709 271.19058,291.86319 275.0325,286.26136 273.15769,281.29115 269.7125,272.15779 257.75383,268.73311 248.60419,265.33138 244.34584,263.74818 239.38622,261.98441 235.09976,263.48986 229.77418,265.36026 223.43685,275.76661 223.43685,275.76661 223.43685,275.76661 186.44832,287.01886 167.57764,291.11255 151.17348,294.67117 134.53121,297.16263 117.8568,299.09244 112.15114,299.75278 105.92572,302.63554 100.66935,300.32011 94.937529,297.79525 95.254833,285.15645 89.006437,285.58801 84.980438,285.86607 83.123812,291.99577 82.868062,296.02325 Z"
       id="path9272"
       inkscape:connector-curvature="0"
       sodipodi:nodetypes="aaasssssssssaaaaaacaaaaa" />
    <path
       style="fill:#000000;stroke:none;stroke-width:1px;stroke-linecap:butt;stroke-linejoin:miter;stroke-opacity:1;fill-opacity:1"
       d="M 289.11746,264.71754 C 289.67079,267.79684 300.40503,271.06769 304.50985,275.90257 306.84805,278.65664 309.3741,285.58801 309.3741,285.58801 319.7556,296.88945 317.96782,323.0321 317.96782,325.48745 317.96782,327.9428 326.94282,347.34302 330.24457,343.28874 330.24457,343.28874 334.3624,325.3943 334.54143,316.27989 334.71139,307.62715 334.24751,298.69607 331.47225,290.49871 327.73627,279.46363 321.42369,269.11698 313.67096,260.42068 308.71467,254.86118 303.02838,244.86061 295.86967,246.91625 289.76989,248.66781 288.21276,259.68287 289.11746,264.71754 Z"
       id="path9274"
       inkscape:connector-curvature="0"
       sodipodi:nodetypes="sasssaaaas" />
    <path
       style="fill:#000000;stroke:none;stroke-width:1px;stroke-linecap:butt;stroke-linejoin:miter;stroke-opacity:1;fill-opacity:1"
       d="M 326.56155,261.03451 C 326.56155,261.03451 333.55236,272.4695 339.45213,273.9251 348.81427,276.23493 357.78984,267.93408 367.07482,265.33138 369.5118,264.64826 372.79452,265.41211 374.44087,263.48986 377.38114,260.05685 378.98679,253.05464 375.66855,249.98544 368.50715,243.36151 356.50593,253.75175 346.81818,254.89614 340.70866,255.61784 333.34013,252.45333 328.40306,256.12381 327.00009,257.16685 326.56155,261.03451 326.56155,261.03451 Z"
       id="path9278"
       inkscape:connector-curvature="0"
       sodipodi:nodetypes="caaaaaac" />
    <path
       style="fill:#000000;stroke:none;stroke-width:1px;stroke-linecap:butt;stroke-linejoin:miter;stroke-opacity:1;fill-opacity:1"
       d="M 407.5881,241.39171 C 403.86109,245.08164 403.67244,251.13205 402.06356,256.12381 398.22647,268.0289 394.91054,280.12 392.24216,292.34023 390.64908,299.63598 388.55913,311.98303 388.55913,314.43838 388.55913,316.89373 394.83135,323.22307 397.15286,320.57675 410.55949,305.29433 403.24524,281.45087 416.79566,269.01441 421.18546,264.98548 431.51042,269.52481 433.98311,264.1037 438.19977,254.85913 421.09252,236.48101 421.09252,236.48101 416.66727,234.64801 410.99193,238.02175 407.5881,241.39171 Z"
       id="path9280"
       inkscape:connector-curvature="0"
       sodipodi:nodetypes="aaassaasa" />
    <path
       style="fill:#000000;stroke:none;stroke-width:1px;stroke-linecap:butt;stroke-linejoin:miter;stroke-opacity:1;fill-opacity:1"
       d="M 241.85197,397.92027 C 241.85197,397.92027 258.33191,398.66496 266.40547,397.30644 290.33527,393.27982 312.64655,382.57012 335.76911,375.20829 344.77154,372.34207 353.36153,367.38248 362.77796,366.61456 371.22837,365.92542 381.44522,364.85393 387.9453,370.29759 390.42559,372.37478 391.01448,379.50515 391.01448,379.50515 391.01448,379.50515 391.54079,384.5132 389.78681,385.64353 382.19379,390.53673 372.42462,379.43071 363.3918,379.50515 341.45793,379.68591 320.5237,389.03497 299.5527,395.46493 286.43279,399.48765 274.28308,406.63412 260.88094,409.58319 258.47465,410.11268 255.81737,411.07407 253.51489,410.19702 248.24012,408.18778 236.20924,398.06134 241.85197,397.92027 Z"
       id="path9282"
       inkscape:connector-curvature="0"
       sodipodi:nodetypes="saaaacaaaaas" />
    <path
       style="fill:#000000;stroke:none;stroke-width:1px;stroke-linecap:butt;stroke-linejoin:miter;stroke-opacity:1;fill-opacity:1"
       d="M 257.19791,447.02727 C 252.04381,449.63548 273.15769,453.77949 273.15769,453.77949 273.15769,453.77949 301.86476,444.55001 316.12631,439.66122 321.88115,437.6885 327.29742,434.42475 333.31376,433.52285 337.77009,432.85481 342.90597,436.37271 346.81818,434.13669 350.23524,432.18368 356.23411,424.29105 352.34272,423.70145 332.08608,420.63226 338.85563,419.73103 332.08608,420.63226 319.00911,422.3732 308.30982,432.20103 295.86968,436.59204 283.27932,441.03607 274.92392,438.0571 257.19791,447.02727 Z"
       id="path9284"
       inkscape:connector-curvature="0"
       sodipodi:nodetypes="scaaasaas" />
    <path
       style="fill:#000000;stroke:none;stroke-width:1px;stroke-linecap:butt;stroke-linejoin:miter;stroke-opacity:1;fill-opacity:1"
       d="M 249.21802,495.52044 C 249.21802,495.52044 263.25779,501.88591 270.70234,501.65881 285.45029,501.20891 298.31361,491.17607 312.44328,486.92671 323.75381,483.52518 335.15024,480.16539 346.81818,478.33299 355.93445,476.90132 371.00824,485.05728 374.44087,476.49147 375.67988,473.39964 370.73755,470.46663 367.68866,469.12542 361.50803,466.40655 354.14391,468.38864 347.43202,469.12542 334.30583,470.56631 321.48615,474.19428 308.76026,477.71915 295.04186,481.51893 282.18418,488.3275 268.24698,491.22358 261.40919,492.64443 250.22198,486.6872 247.37651,493.06509 246.95968,493.99938 249.21802,495.52044 249.21802,495.52044 Z"
       id="path9286"
       inkscape:connector-curvature="0"
       sodipodi:nodetypes="caaaaaaaaac" />
    <path
       style="fill:#000000;stroke:none;stroke-width:1px;stroke-linecap:butt;stroke-linejoin:miter;stroke-opacity:1;fill-opacity:1"
       d="M 201.95254,550.76581 C 209.72308,556.297 225.8922,562.42872 228.34755,561.81489 230.8029,561.20105 245.95704,551.91164 255.35639,548.31046 273.38789,541.40205 292.4715,537.60342 311.21561,532.96452 325.04648,529.54157 338.93735,526.30085 352.95656,523.75696 364.34521,521.69041 375.77185,519.43584 387.33146,518.84626 402.66973,518.06396 430.91392,520.07394 433.36927,520.68777 435.82462,521.30161 442.28385,525.51277 443.80451,529.89534 447.55403,540.7015 442.12092,553.12136 437.66614,563.6564 432.86753,575.00455 427.22399,588.26838 416.18183,593.73444 410.31096,596.64062 396.53902,593.1206 396.53902,593.1206 396.53902,593.1206 378.519,580.95589 379.35157,586.98222 381.48577,602.43004 382.57897,608.26916 384.26227,618.90177 385.65616,627.70628 384.26227,618.90177 388.55913,645.29679 390.19437,655.34185 407.11576,636.44214 414.95415,629.95085 427.46638,619.58895 438.01189,606.73652 446.8737,593.1206 455.26176,580.23258 465.1835,566.69904 466.5165,551.37965 467.1232,544.40717 464.85986,536.95593 460.99196,531.12301 456.96533,525.05072 450.33973,520.83998 443.80451,517.61859 434.90202,513.23031 424.7933,511.55728 414.95415,510.25254 400.14567,508.28883 385.03017,508.3939 370.14401,509.6387 344.02798,511.82255 318.41061,518.19481 292.80048,523.75696 270.73509,528.54924 248.55258,533.2252 227.11987,540.33057 218.49957,543.18837 190.91883,542.91184 201.95254,550.76581 Z"
       id="path9288"
       inkscape:connector-curvature="0"
       sodipodi:nodetypes="scaaaacaaacsasaaaaaaaaas" />
    <path
       style="fill:#000000;stroke:none;stroke-width:1px;stroke-linecap:butt;stroke-linejoin:miter;stroke-opacity:1;fill-opacity:1"
       d="M 128.90587,580.84385 C 125.35412,594.22963 131.14779,608.01046 128.90587,612.14956 125.26743,618.86696 132.14646,627.64216 136.88576,633.63387 140.54714,638.2628 146.13773,645.64637 151.61786,643.45527 157.65582,641.04114 156.515,630.90123 155.91472,624.42631 154.72176,611.55847 148.78339,598.79995 140.56879,588.82374 137.57451,585.18734 130.11395,576.29086 128.90587,580.84385 Z"
       id="path9290"
       inkscape:connector-curvature="0"
       sodipodi:nodetypes="ssaaaas" />
    <path
       style="fill:#000000;stroke:none;stroke-width:1px;stroke-linecap:butt;stroke-linejoin:miter;stroke-opacity:1;fill-opacity:1"
       d="M 199.49719,579.00234 C 199.49719,581.45769 203.35596,592.75619 206.2494,599.25897 209.11762,605.70508 211.80424,612.57894 216.68464,617.6741 219.35512,620.46209 222.81597,624.94728 226.50604,623.81247 233.77389,621.57737 236.78658,610.46968 235.7136,602.942 234.7709,596.32832 227.74992,592.10772 222.82301,587.59606 217.29702,582.53581 211.88979,574.30066 204.40789,574.70547 202.236,574.82298 199.49719,579.00234 199.49719,579.00234 Z"
       id="path9292"
       inkscape:connector-curvature="0"
       sodipodi:nodetypes="caaaaaac" />
    <path
       style="fill:#000000;stroke:none;stroke-width:1px;stroke-linecap:butt;stroke-linejoin:miter;stroke-opacity:1;fill-opacity:1"
       d="M 269.47466,568.5671 C 272.54385,574.70547 274.91567,587.62641 281.13757,594.96211 285.72616,600.37211 295.79511,612.98427 298.93886,606.62502 298.93886,606.62502 295.48958,594.00977 295.86967,587.59606 296.13404,583.13508 302.54473,578.02481 299.5527,574.70547 297.18779,572.08185 292.59938,577.14059 289.11746,576.54699 281.71193,575.28448 275.95941,561.70532 269.47466,565.49791 268.59154,566.0144 269.47466,568.5671 269.47466,568.5671 Z"
       id="path9294"
       inkscape:connector-curvature="0"
       sodipodi:nodetypes="casaaaac" />
    <path
       style="fill:#000000;stroke:none;stroke-width:1px;stroke-linecap:butt;stroke-linejoin:miter;stroke-opacity:1;fill-opacity:1"
       d="M 337.61062,556.90419 C 331.51443,564.48405 348.6597,583.91304 348.6597,583.91304 350.03379,589.04021 358.05509,593.702 362.77796,591.27909 367.92721,588.63745 366.94372,579.62043 365.23331,574.09164 363.26448,567.72752 357.57341,562.55637 351.72888,559.35954 347.5381,557.06728 340.60428,553.18194 337.61062,556.90419 Z"
       id="path9296"
       inkscape:connector-curvature="0"
       sodipodi:nodetypes="asaaaa" />
    <path
       style="fill:#000000;stroke:none;stroke-width:1px;stroke-linecap:butt;stroke-linejoin:miter;stroke-opacity:1;fill-opacity:1"
       d="M 184.76509,243.23323 C 184.76509,243.23323 195.28472,255.34694 196.02313,262.84991 198.09543,283.90654 183.72625,303.40194 175.76649,323.00598 166.97236,344.66498 158.14885,366.6121 145.47949,386.25736 135.48355,401.75719 123.66243,416.35968 109.87691,428.61215 97.0667,439.99777 80.879628,446.92217 66.908287,456.84867 60.602932,461.32856 48.493162,470.96694 48.493162,470.96694 48.493162,470.96694 61.905231,467.69835 68.135962,464.82856 90.514919,454.52112 112.85199,442.47859 130.74739,425.54296 148.76639,408.49035 161.69091,386.47266 173.71601,364.77305 186.29638,342.07145 193.73327,316.87913 203.79405,292.95406 207.66831,283.74086 216.04705,275.30859 215.45696,265.33138 215.09078,259.13998 210.61657,253.56665 206.2494,249.16264 201.0848,243.95447 194.23023,235.95461 187.22044,238.11356 185.41162,238.67066 184.76509,243.23323 184.76509,243.23323 Z"
       id="path9298"
       inkscape:connector-curvature="0"
       sodipodi:nodetypes="caaaaacaaaaaaac" />
    <path
       style="fill:#000000;stroke:none;stroke-width:1px;stroke-linecap:butt;stroke-linejoin:miter;stroke-opacity:1;fill-opacity:1"
       d="M 319.80933,319.34908 C 309.31779,323.30145 329.96066,333.57354 336.99678,332.23966 361.39791,327.61377 374.33073,325.75518 392.856,321.80443 398.00087,320.70722 406.77381,323.18441 408.20193,318.1214 410.00872,311.71593 400.49079,305.80407 394.08367,304.00314 381.51863,300.47133 368.81067,310.58398 356.02575,313.2107 344.03196,315.67488 341.13458,311.31544 319.80933,319.34908 Z"
       id="path9300"
       inkscape:connector-curvature="0"
       sodipodi:nodetypes="ssaaaas" />
    <path
       style="fill:#000000;stroke:none;stroke-width:1px;stroke-linecap:butt;stroke-linejoin:miter;stroke-opacity:1;fill-opacity:1"
       d="M 228.7916,398.09006 C 246.1619,426.87512 243.03148,416.11454 246.1619,426.87512 250.1371,440.53958 248.01129,455.35128 247.15449,469.55641 246.38963,482.23716 240.56603,494.62126 241.69525,507.27477 242.71827,518.73829 250.13225,536.55613 252.61372,540.03019 255.09519,543.50424 259.95689,544.58155 260.05813,542.01536 260.51167,530.51925 256.68593,523.89074 256.58407,514.71918 256.39011,497.2549 260.12284,479.96775 262.04331,462.6083 263.92962,445.55764 262.04331,462.6083 267.99884,411.49 268.69042,405.55398 260.12145,401.86281 254.5989,399.57894 246.63621,396.28595 224.33963,390.71252 228.7916,398.09006 Z"
       id="path9302"
       inkscape:connector-curvature="0"
       sodipodi:nodetypes="saaacsaasas" />
    <path
       style="fill:#000000;stroke:none;stroke-width:1px;stroke-linecap:butt;stroke-linejoin:miter;stroke-opacity:1;fill-opacity:1"
       d="M 301.74684,398.58636 C 302.28871,405.97407 310.81705,410.76855 312.66531,417.94183 317.12338,435.24408 313.03004,453.69499 312.16902,471.54159 311.34477,488.62608 306.70978,520.17842 307.70237,522.65989 308.69496,525.14136 311.25707,529.03101 314.15419,528.61542 320.83813,527.65661 324.03618,517.97584 324.57637,511.24512 327.13885,479.31657 322.4608,478.78501 323.58379,462.6083 324.81372,444.89112 335.38706,427.43898 332.02079,410.00112 330.74092,403.37116 321.59861,392.63082 321.59861,392.63082 L 306.70978,385.68271 C 306.70978,385.68271 301.40973,393.99032 301.74684,398.58636 Z"
       id="path9304"
       inkscape:connector-curvature="0"
       sodipodi:nodetypes="aaasasaacca" />
  </g>
</svg>
