<?xml version="1.0" standalone="no"?>
<!DOCTYPE svg PUBLIC "-//W3C//DTD SVG 1.1//EN" "http://www.w3.org/Graphics/SVG/1.1/DTD/svg11.dtd" >
<svg xmlns="http://www.w3.org/2000/svg" xmlns:xlink="http://www.w3.org/1999/xlink" version="1.1" viewBox="0 0 256 256">
  <g transform="matrix(1 0 0 -1 0 204)">
   <path fill="currentColor"
d="M123 148q12 2 33 14h1q8 4 13 4q3 -1 3 -3t-2 -2q-3 -1 -5 -2q-5 -1 -15 -5q1 -2 5 -2v-1q1 -1 1 -2q0 -10 5 -18l9 3q13 5 18 9t17 1q1 -1 1 -2q-1 -2 -2 -2q-13 -2 -42 -13q17 -40 52 -65q5 -3 7 2q1 11 -1 21v8q1 2 2 1q3 -11 6 -26q-1 -8 3 -13q0 -3 -1 -6
q-1 -1 -2 -1q-1 -1 -2 1q-45 29 -69 76q-4 -1 -18 -7q2 1 -3 -1q-5 -4 -12 2q-4 1 0 2q7 -2 14 1q10 4 18 7q-8 14 -10 23q-5 -2 -10 -5q-6 -3 -14 -1q-3 1 0 2zM68 177q5 -9 4 -12q-3 -6 -9 -14q-18 -31 -25 -52q-1 -3 0 -4q0 -1 3 1t11 6q7 3 11 6q15 15 19 25q0 3 10 0
q2 -2 2 -4q-1 -1 -3 -2q-27 -17 -42 -58q-1 -2 0 -3t3 1q3 1 10 8q4 3 6 5q4 2 2 -1l-12 -12q-7 -8 -9 -10q-5 -3 -7 1q-3 8 18 44q-12 -7 -24 -19q-5 -2 -6 4q6 25 29 72q0 1 1 3q5 8 6 15q0 4 2 0zM161 70q5 2 8 1q1 -1 3 -2q4 -1 7 -4q0 -1 2 -2q2 -2 5 -2q3 -1 3 -6
q1 -3 -4 -7q-3 -23 -2 -45l-1 -3q0 -14 -4 -20q-1 -5 -2 -4q-2 -1 -7 5q-4 5 -8 7q-10 6 -12 10q-3 3 1 2q11 -2 18 -4q7 -1 9 4q2 29 -3 61q-2 7 -10 5q-2 0 -8 -3l-6 -2q-6 -3 -8 -3l-12 -3q-2 -1 0 1q13 9 31 14zM122 161q3 -2 0 -5q-3 -4 -2 -12q-3 -16 -2 -57
q0 -3 1 -4q1 0 3 2q15 13 26 30q2 3 4 3q1 -1 -1 -5q-9 -16 -16 -24q-9 -10 -12 -20q-1 -3 -2 -4q-2 0 -3 2q-2 1 -6 9q-2 2 1 6q1 6 1 21q1 12 1 41q0 18 -5 22q-3 3 2 2q6 -4 10 -7zM181 198q2 5 13 -6q3 -4 3 -5q0 -2 -3 -2q-15 -2 -40 -24q-5 -4 -6 -3t3 6q4 4 14 13
l11 11q1 0 1 2q-1 0 -3 1l-6 -2q-20 -6 -34 -12q-9 -3 -20 0q-4 1 1 2q4 0 16 3q1 0 2 1q19 7 38 10q7 1 10 5zM127 54q1 -5 3 -13q1 -6 2 -8q0 -11 8 -21h2q3 0 5 1q6 2 16 4q3 0 3 -3t-1 -3q-3 -2 -10 -3h-3h-9q-1 -2 -5 -2q-6 -2 -8 2q-2 2 1 4q-3 4 -5 6q-2 0 -1 4
q-2 5 1 8q1 6 -1 24q0 3 2 0zM162 43q0 -4 -1 -4q-3 -3 -5 -4l-2 -1q-4 -1 -8 -4l-1 -1q-4 -2 -2 2h-6t-1 2q2 0 7 3q2 1 3 2q2 4 13 6q3 0 3 -1zM103 33q-8 0 -9 4h-1q-9 11 -14 15q-4 4 1 2q18 -10 24 -17q2 -4 -1 -4zM76 83q-1 2 2 1q3 -2 9 -4h3q1 -1 1 -3q-1 -1 -2 -1
q-9 0 -11 -3q-3 -4 -8 -8q-4 -3 -1 1q8 10 7 17zM34 24q0 1 1 1t2 -1q0 -3 2 -6v-2q2 -4 2 -7q-1 -5 -3 -3q-11 9 -4 18zM60 34q-2 3 2 1l10 -8q1 -4 -2 -5q-3 0 -4 2q-5 4 -6 10z" />
  </g>

</svg>
