<?xml version="1.0" standalone="no"?>
<!DOCTYPE svg PUBLIC "-//W3C//DTD SVG 1.1//EN" "http://www.w3.org/Graphics/SVG/1.1/DTD/svg11.dtd" >
<svg xmlns="http://www.w3.org/2000/svg" xmlns:xlink="http://www.w3.org/1999/xlink" version="1.1" viewBox="0 0 256 256">
  <g transform="matrix(1 0 0 -1 0 204)">
   <path fill="currentColor"
d="M143 129q6 -1 10 -5q1 -2 3 -5q6 -6 10 -8q4 -6 -1 -8q-7 -2 -7 -8q-11 -60 -21 -68q-6 -5 -11 -11v-1q-5 -5 -7 1q-2 5 -6 10q-1 1 -1 2q-4 5 -7 18q-1 2 -1 4q-1 6 2 1q7 -17 19 -25q2 -3 7 0q16 18 22 87q-1 12 -11 13q-7 0 -17 -3q-15 -65 -60 -108q-5 -4 -1 1
q43 50 55 105q-6 -2 -12 -5t-17 -1q-3 0 0 2q3 0 9 2l21 6q1 5 2 17q1 8 3 17q1 7 -2 14q-2 3 1 1q10 -11 8 -12q-3 -20 -7 -36q10 3 17 3zM216 118q2 2 17 -12q6 -5 0 -8q-6 -1 -21 -26q11 1 18 -3q3 -5 -2 -10q-23 7 -28 2q-2 -3 -4 -1q1 -6 -2 -10q-5 -3 -7 3q-2 1 -3 3
q-6 9 -10 13q-6 6 -1 14q-1 6 -3 11q0 1 -1 5q-2 5 2 1q3 -6 4 -11h1q2 -14 12 -19q1 -1 3 -2q1 -2 3 -2l4 1q3 1 4 2q13 13 17 38q1 9 -3 7q-12 -2 -21 -8q-6 -3 -12 -2q-2 -1 -2 0t2 3q25 11 33 11zM58 127l-1 2q1 1 3 1q8 -9 6 -10q-1 -3 -2 -14v-8q9 5 15 6q2 -1 2 -2
q1 -1 0 -2l-9 -6t-8 -5q-1 -2 -1 -4q-1 -19 0 -33q6 8 16 19q6 5 9 9q5 5 1 -2q-21 -28 -45 -52q-11 -11 -21 -7q-5 0 0 2q8 0 33 25q0 13 -1 15q-2 2 1 5q1 1 3 15q-1 4 -2 3q-12 -7 -20 -6q-3 0 -3 1t3 2q1 0 5 2q11 6 17 11q1 14 1 21q0 5 -2 12zM78 155q6 -2 11 -3
q3 -2 0 -4q-7 0 -13 -1q-5 -1 -20 -7q-12 -6 -23 -4q-5 0 0 1q11 1 32 10q5 1 6 5l1 1q1 3 6 2z" />
  </g>

</svg>
